<svg xmlns="http://www.w3.org/2000/svg">
<defs>
<font id="PTSansProCondensedLight" horiz-adv-x="379" >
  <font-face 
    font-family="PTSansProCondensedLight"
    font-weight="300"
    font-stretch="condensed"
    units-per-em="1000"
    panose-1="2 11 4 6 2 2 3 2 2 4"
    ascent="770"
    descent="-230"
    x-height="500"
    cap-height="700"
    bbox="-372 -239 735 1000"
    underline-thickness="50"
    underline-position="-50"
    unicode-range="U+0020-FB04"
  />
<missing-glyph horiz-adv-x="750" 
d="M50 0v700h650v-700h-650zM620 570l-50 50l-195 -217l-195 217l-50 -50l197 -220l-197 -220l50 -50l195 217l195 -217l50 50l-198 220zM129 63v-36h8v12h4q16 0 16 12t-17 12h-11zM137 57h4q8 0 8 -5q0 -6 -9 -6h-3v11zM189 57v6h-31v-6h12v-30h7v30h12zM222 37
q0 -4 -7 -4q-5 0 -9 2l-3 -7q8 -2 13 -2q14 0 14 12q0 7 -9 10t-9 6t6 3q3 0 9 -2l2 7q-8 2 -11 2q-14 0 -14 -11q0 -7 9 -10.5t9 -5.5zM235 52l2 -5q6 2 9 2q5 0 5 -4v-2l-1 1h-4q-12 0 -12 -10q0 -8 8 -8q6 0 9 5l2 -4h6q-1 1 -1 7v11q0 10 -10 10q-4 0 -13 -3zM245 32
q-4 0 -4 4t5 4h4l1 -1v-3q-1 -4 -6 -4zM284 27h8v16q0 12 -9 12q-7 0 -10 -5l-2 4h-5v-27h7v17q1 4 6 4t5 -6v-15zM299 34l-2 -6q6 -2 10 -2q11 0 11 9q0 5 -8 9q-5 2 -5 3q0 2 3 2q2 0 8 -2l2 6q-6 2 -10 2q-10 0 -10 -9q0 -5 8 -9q5 -2 5 -3q0 -2 -3 -2t-9 2zM338 42
q0 -21 20 -21t20 21q0 20 -20 20q-8 0 -14 -5.5t-6 -14.5zM344 42q0 15 14 15t14 -15t-14 -15t-14 15zM365 33l-1 5q-2 -1 -4 -1q-4 0 -4 5q0 4 4 4h3l2 4q-3 2 -7 2q-9 0 -9 -10q0 -11 9 -11q5 0 7 2zM399 63v-36h8v12h4q16 0 16 12t-17 12h-11zM407 57h4q8 0 8 -5
q0 -6 -9 -6h-3v11zM430 52l2 -5q6 2 9 2q5 0 5 -4v-2l-2 1h-3q-13 0 -13 -10q0 -8 9 -8q6 0 9 5l2 -4h6q-1 1 -1 7v11q0 10 -10 10q-4 0 -13 -3zM440 32q-4 0 -4 4t5 4h3l2 -1v-3q-1 -4 -6 -4zM477 47l1 7q-1 1 -4 1q-4 0 -6 -5h-1l-1 4h-6v-27h8v17q0 4 6 4zM482 52l1 -5
q8 2 9 2q5 0 5 -4v-2l-1 1h-4q-13 0 -13 -10q0 -8 9 -8q7 0 9 5h1l1 -4h6q-1 1 -1 7v11q0 10 -10 10q-3 0 -12 -3zM491 32q-4 0 -4 4t5 4h4l1 -1v-3q-1 -4 -6 -4zM533 57v6h-31v-6h12v-30h7v30h12zM547 39l-6 15h-8l12 -27q-2 -5 -5 -5l-1 1l-2 -6q1 -1 5 -1q6 0 10 13

<glyph glyph-name="IJ" unicode="IJ" horiz-adv-x="378" 
d="M64 0v700h59v-700h-59zM261 159v541h59v-549q0 -85 -20 -122.5t-76 -37.5q-39 0 -61 14l14 52q17 -11 39 -11q29 0 37 26t8 87z" />
    <glyph glyph-name="ij" unicode="ij" horiz-adv-x="319" 
d="M59 0v500h57v-500h-57zM48 655q0 23 10.5 35.5t28.5 12.5t29 -12t11 -36q0 -46 -40 -46q-39 0 -39 46zM203 0v500h57v-528q0 -95 -23 -140t-73 -45q-10 0 -16 1v52q34 0 44.5 37t10.5 123zM192 655q0 23 10.5 35.5t28.5 12.5t29 -12t11 -36q0 -46 -40 -46q-39 0 -39 46z
" />
    <glyph glyph-name="uniF374.var.accented" unicode="&#xf374;`" horiz-adv-x="323" 
d="M281 69l13 -47q-34 -31 -98 -31q-161 0 -161 272q0 140 45 205.5t115 65.5q56 0 94 -20l-15 -52q-30 17 -75 17q-43 0 -71 -45t-32 -137h152v-55h-153q6 -196 112 -196q44 0 74 23zM166 597l38 148h62v-19l-66 -129h-34z" />
    <glyph glyph-name="uniF376.var.accented" unicode="&#xf376;`" horiz-adv-x="187" 
d="M64 0v525h59v-525h-59zM72 597l38 148h62v-19l-66 -129h-34z" />
    <glyph glyph-name="uniF377.var.accented" unicode="&#xf377;`" horiz-adv-x="228" 
d="M84 0v525h59v-525h-59zM5 684q0 20 9.5 31t24.5 11q31 0 31 -42q0 -41 -31 -41q-15 0 -24.5 11t-9.5 30zM157 684q0 20 8.5 31t22.5 11q15 0 24.5 -11t9.5 -31q0 -19 -9.5 -30t-24.5 -11q-14 0 -22.5 11t-8.5 30zM68 612l37 138h51v-19l-63 -119h-25z" />
    <glyph glyph-name="uniF350.var.accented" unicode="&#xf350;`" horiz-adv-x="315" 
d="M250 0l-34 142h-122l-32 -142h-58l135 532h37l134 -532h-60zM143 347l-34 -150h94l-35 151l-12 81h-1zM146 597l38 148h62v-19l-66 -129h-34z" />
    <glyph glyph-name="uniF355.var.accented" unicode="&#xf355;`" horiz-adv-x="306" 
d="M53 0v525h210v-55h-151v-175h138v-55h-138v-185h154v-55h-213zM127 597l38 148h62v-19l-66 -129h-34z" />
    <glyph glyph-name="uniF358.var.accented" unicode="&#xf358;`" 
d="M267 0v320l6 83h-3l-24 -85l-152 -318h-41v525h59v-321l-6 -83h4l24 85l152 319h40v-525h-59zM163 597l38 148h62v-19l-66 -129h-34z" />
    <glyph glyph-name="uniF35E.var.accented" unicode="&#xf35e;`" horiz-adv-x="374" 
d="M35 263q0 271 152 271q81 0 116.5 -69.5t35.5 -201.5q0 -272 -152 -272q-81 0 -116.5 69.5t-35.5 202.5zM95 263q0 -217 91 -217q48 0 70.5 52.5t22.5 164.5q0 216 -93 216q-47 0 -69 -52.5t-22 -163.5zM150 597l38 148h62v-19l-66 -129h-34z" />
    <glyph glyph-name="uniF363.var.accented" unicode="&#xf363;`" horiz-adv-x="297" 
d="M69 525l82 -267l13 -68h3l9 70l61 265h60l-93 -346q-30 -111 -48 -147t-55 -36q-32 0 -52 17l17 52q16 -12 33 -12q25 0 38 85l-134 387h66zM120 597l38 148h62v-19l-66 -129h-34z" />
    <glyph glyph-name="uniF36B.var.accented" unicode="&#xf36b;`" horiz-adv-x="443" 
d="M331 0v525h59v-525h-59zM53 3v522h59v-200q24 6 46 6q127 0 127 -160q0 -178 -143 -178q-58 0 -89 10zM149 48q76 0 76 119q0 109 -77 109q-18 0 -36 -7v-216q13 -5 37 -5zM185 597l38 148h62v-19l-66 -129h-34z" />
    <glyph glyph-name="uniF36D.var.accented" unicode="&#xf36d;`" horiz-adv-x="318" 
d="M80 242v55h144q-1 88 -30 135t-79 47q-43 0 -78 -24l-17 50q47 29 101 29q163 0 163 -271q0 -142 -46.5 -207t-124.5 -65q-53 0 -90 22l18 53q35 -20 75 -20q48 0 78 49.5t31 146.5h-145zM91 597l38 148h62v-19l-66 -129h-34z" />
    <glyph glyph-name="uniF36E.var.accented" unicode="&#xf36e;`" horiz-adv-x="494" 
d="M112 525v-229h56q2 113 39 175.5t106 62.5q80 0 113.5 -68.5t33.5 -202.5q0 -137 -35.5 -204.5t-111.5 -67.5q-72 0 -107.5 67.5t-37.5 182.5h-56v-241h-59v525h59zM228 263q0 -217 85 -217q46 0 66.5 52t20.5 165q0 216 -87 216q-85 0 -85 -216zM222 597l38 148h62v-19
l-66 -129h-34z" />
    <glyph glyph-name="uniF36F.var.accented" unicode="&#xf36f;`" horiz-adv-x="324" 
d="M271 520v-520h-59v230l-47 -16l-82 -214h-68l78 188l32 33q-39 10 -61.5 48t-22.5 102q0 161 145 161q52 0 85 -12zM178 477q-33 0 -55 -25.5t-22 -83.5q0 -105 80 -105h31v210q-12 4 -34 4zM149 597l38 148h62v-19l-66 -129h-34z" />
    <glyph glyph-name="uniF371.var.accented" unicode="&#xf371;`" horiz-adv-x="306" 
d="M54 0v525h210v-55h-151v-175h138v-55h-138v-185h154v-55h-213zM51 684q0 20 9.5 31t24.5 11q31 0 31 -42q0 -41 -31 -41q-15 0 -24.5 11t-9.5 30zM203 684q0 20 8.5 31t22.5 11q15 0 24.5 -11t9.5 -31q0 -19 -9.5 -30t-24.5 -11q-14 0 -22.5 11t-8.5 30zM114 612l37 138
h51v-19l-63 -119h-25z" />
    <glyph glyph-name="uniF38A.var.accented" unicode="&#xf38a;`" horiz-adv-x="314" 
d="M265 388l-92 -395h-36l-138 532h64l83 -349l11 -82h2l9 84l37 187q20 103 39.5 134.5t57.5 31.5q31 0 53 -15l-18 -53q-16 10 -31 10q-13 0 -21.5 -19t-19.5 -66zM126 597l38 148h62v-19l-66 -129h-34z" />
    <glyph glyph-name="afii10053.var.accented" unicode="&#x404;`" horiz-adv-x="381" 
d="M337 75l15 -51q-37 -36 -120 -36q-197 0 -197 362q0 189 54.5 275.5t143.5 86.5q67 0 113 -24l-16 -54q-37 23 -92 23q-60 0 -99 -64t-44 -204h199v-55h-199q2 -144 43 -217.5t112 -73.5q47 0 87 32zM190 752l75 118h79v-19l-105 -99h-49z" />
    <glyph glyph-name="afii10055.var.accented" unicode="&#x406;`" horiz-adv-x="187" 
d="M64 0v700h59v-700h-59zM65 752l75 118h79v-19l-105 -99h-49z" />
    <glyph glyph-name="afii10056.var.accented" unicode="&#x407;`" horiz-adv-x="195" 
d="M72 850l46 78h75v-19l-84 -59h-37zM13 793q0 20 10 32.5t27 12.5q16 0 26 -12.5t10 -32.5q0 -19 -10 -31.5t-26 -12.5q-17 0 -27 12t-10 32zM106 793q0 20 10 32.5t26 12.5q17 0 27 -12.5t10 -32.5t-10 -32t-27 -12q-16 0 -26 12t-10 32zM67 0v700h59v-700h-59z" />
    <glyph glyph-name="afii10017.var.accented" unicode="&#x410;`" horiz-adv-x="382" 
d="M316 0l-47 206h-160l-46 -206h-59l171 712h31l172 -712h-62zM173 488l-49 -227h131l-50 229l-15 104h-2zM175 752l75 118h79v-19l-105 -99h-49z" />
    <glyph glyph-name="afii10022.var.accented" unicode="&#x415;`" horiz-adv-x="347" 
d="M53 0v700h251v-55h-192v-257h176v-55h-176v-278h195v-55h-254zM124 752l75 118h79v-19l-105 -99h-49z" />
    <glyph glyph-name="afii10026.var.accented" unicode="&#x418;`" horiz-adv-x="441" 
d="M329 0v466l6 99h-3l-28 -101l-210 -464h-41v700h59v-475l-6 -98h3l28 101l212 472h39v-700h-59zM183 752l75 118h79v-19l-105 -99h-49z" />
    <glyph glyph-name="afii10032.var.accented" unicode="&#x41e;`" horiz-adv-x="443" 
d="M35 350q0 182 44.5 272t141.5 90q102 0 144.5 -91.5t42.5 -270.5q0 -183 -44.5 -272.5t-142.5 -89.5q-101 0 -143.5 92t-42.5 270zM95 350q0 -85 11.5 -151.5t41 -111t73.5 -44.5q127 0 127 307q0 134 -30.5 220.5t-96.5 86.5q-126 0 -126 -307zM194 752l75 118h79v-19
l-105 -99h-49z" />
    <glyph glyph-name="afii10037.var.accented" unicode="&#x423;`" horiz-adv-x="361" 
d="M71 700l112 -362l15 -89h4l13 92l86 359h61l-115 -449q-41 -161 -63 -208.5t-65 -47.5q-36 0 -60 21l18 53q21 -17 42 -17q31 0 52 128l-168 520h68zM141 752l75 118h79v-19l-105 -99h-49z" />
    <glyph glyph-name="afii10045.var.accented" unicode="&#x42b;`" horiz-adv-x="503" 
d="M391 0v700h59v-700h-59zM53 5v695h59v-277q27 9 58 9q73 0 115.5 -45t42.5 -162q0 -121 -42.5 -177t-130.5 -56q-58 0 -102 13zM160 47q108 0 108 171q0 90 -27.5 124.5t-80.5 34.5q-28 0 -48 -9v-314q17 -7 48 -7zM205 752l75 118h79v-19l-105 -99h-49z" />
    <glyph glyph-name="afii10047.var.accented" unicode="&#x42d;`" horiz-adv-x="375" 
d="M95 329v55h185q-2 135 -39 204t-103 69q-49 0 -95 -31l-22 49q53 37 122 37q97 0 147 -84t50 -275q0 -365 -207 -365q-63 0 -107 24l16 55q41 -24 95 -24q63 0 102.5 70t41.5 216h-186zM92 752l75 118h79v-19l-105 -99h-49z" />
    <glyph glyph-name="afii10048.var.accented" unicode="&#x42e;`" horiz-adv-x="581" 
d="M112 700v-313h77q2 161 45 243t135 82q98 0 137.5 -91t39.5 -271q0 -183 -41.5 -272.5t-136.5 -89.5q-96 0 -137.5 88.5t-42.5 255.5h-76v-332h-59v700h59zM248 350q0 -307 121 -307q63 0 90 74t27 233q0 307 -117 307q-64 0 -92.5 -74.5t-28.5 -232.5zM236 752l75 118
h79v-19l-105 -99h-49z" />
    <glyph glyph-name="afii10049.var.accented" unicode="&#x42f;`" horiz-adv-x="372" 
d="M319 693v-693h-59v315l-65 -21l-112 -294h-68l100 259l39 43q-107 29 -107 197q0 209 172 209q56 0 100 -15zM214 653q-107 0 -107 -152t109 -152h44v298q-13 6 -46 6zM184 752l75 118h79v-19l-105 -99h-49z" />
    <glyph glyph-name="afii10023.var.accented" unicode="&#x401;`" horiz-adv-x="347" 
d="M53 0v700h251v-55h-192v-257h176v-55h-176v-278h195v-55h-254zM228 813q0 20 9.5 30.5t25.5 10.5q37 0 37 -41q0 -40 -37 -40q-16 0 -25.5 10.5t-9.5 29.5zM50 813q0 41 37 41q16 0 25.5 -10.5t9.5 -30.5q0 -19 -9.5 -29.5t-25.5 -10.5q-37 0 -37 40zM117 752l43 118h67
v-19l-69 -99h-41z" />
    <glyph glyph-name="afii10065.var.accented" unicode="&#x430;`" horiz-adv-x="322" 
d="M66 429l-21 45q52 34 126 34q62 0 83.5 -39t21.5 -111q0 -42 -2 -118t-2 -108q0 -88 10 -134h-43l-14 49h-3q-28 -53 -97 -53q-46 0 -73.5 37.5t-27.5 101.5q0 150 162 150q22 0 33 -1q2 44 2 58q0 63 -14 89t-50 26q-50 0 -91 -26zM140 47q56 0 79 56v129q-22 2 -33 2
q-103 0 -103 -96q0 -44 15.5 -67.5t41.5 -23.5zM133 572l38 148h62v-19l-66 -129h-34z" />
    <glyph glyph-name="afii10070.var.accented" unicode="&#x435;`" horiz-adv-x="330" 
d="M268 72l21 -44q-40 -40 -110 -40q-75 0 -112 69.5t-37 192.5q0 126 38 194t107 68q124 0 125 -182q0 -41 -4 -82h-207q2 -207 105 -207q45 0 74 31zM175 459q-77 0 -84 -158h154v15q0 70 -19 106.5t-51 36.5zM146 572l38 148h62v-19l-66 -129h-34z" />
    <glyph glyph-name="afii10074.var.accented" unicode="&#x438;`" horiz-adv-x="353" 
d="M249 0v297l8 88h-4l-30 -101l-135 -284h-40v500h57v-306l-9 -85h5l29 98l136 293h40v-500h-57zM155 572l38 148h62v-19l-66 -129h-34z" />
    <glyph glyph-name="afii10080.var.accented" unicode="&#x43e;`" horiz-adv-x="348" 
d="M30 250q0 137 36.5 199.5t107.5 62.5q75 0 109.5 -61t34.5 -201q0 -139 -36 -200.5t-108 -61.5q-75 0 -109.5 61t-34.5 201zM89 250q0 -209 85 -209q44 0 64.5 49t20.5 160q0 209 -85 209t-85 -209zM146 572l38 148h62v-19l-66 -129h-34z" />
    <glyph glyph-name="afii10085.var.accented" unicode="&#x443;`" horiz-adv-x="302" 
d="M68 500l79 -333l18 -100h3l13 101l63 332h56l-96 -449q-14 -68 -23.5 -105.5t-24 -77t-31.5 -56.5t-39 -17t-37 8l9 57q8 -2 13 -2q23 0 38.5 32t26.5 110l-131 500h63zM139 572l38 148h62v-19l-66 -129h-34z" />
    <glyph glyph-name="afii10093.var.accented" unicode="&#x44b;`" horiz-adv-x="433" 
d="M105 253v-200q26 -6 45 -6q38 0 54 26.5t16 81.5q0 105 -69 105q-27 0 -46 -7zM105 500v-194q29 7 58 7q116 0 116 -147q0 -91 -33 -131.5t-108 -40.5q-45 0 -90 6v500h57zM328 0v500h57v-500h-57zM176 572l38 148h62v-19l-66 -129h-34z" />
    <glyph glyph-name="afii10095.var.accented" unicode="&#x44d;`" horiz-adv-x="299" 
d="M75 225v53h134q-2 181 -90 181q-43 0 -76 -25l-22 46q40 32 105 32q73 0 107.5 -63t34.5 -199q0 -262 -153 -262q-55 0 -93 19l16 53q30 -19 74 -19q95 0 98 184h-135zM94 572l38 148h62v-19l-66 -129h-34z" />
    <glyph glyph-name="afii10096.var.accented" unicode="&#x44e;`" horiz-adv-x="469" 
d="M304 -9q-69 0 -101 59t-35 180h-63v-230h-57v500h57v-217h64q5 117 38 171.5t98 54.5q71 0 102.5 -63.5t31.5 -195.5q0 -135 -33 -197t-102 -62zM223 250q0 -206 82 -206q40 0 57.5 47t17.5 159q0 206 -76 206q-81 0 -81 -206zM206 572l38 148h62v-19l-66 -129h-34z" />
    <glyph glyph-name="afii10097.var.accented" unicode="&#x44f;`" horiz-adv-x="313" 
d="M212 0v211l-51 -12l-84 -199h-65l75 174l27 37q-35 9 -57 43t-22 89q0 168 145 168q42 0 89 -14v-497h-57zM180 249l32 2v200q-13 7 -38 7q-80 0 -80 -108q0 -48 22 -74.5t64 -26.5zM146 572l38 148h62v-19l-66 -129h-34z" />
    <glyph glyph-name="afii10071.var.accented" unicode="&#x451;`" horiz-adv-x="330" 
d="M268 72l21 -44q-40 -40 -110 -40q-75 0 -112 69.5t-37 192.5q0 126 38 194t107 68q124 0 125 -182q0 -41 -4 -82h-207q2 -207 105 -207q45 0 74 31zM175 459q-77 0 -84 -158h154v15q0 70 -19 106.5t-51 36.5zM67 634q0 20 9.5 31t24.5 11q31 0 31 -42q0 -41 -31 -41
q-15 0 -24.5 11t-9.5 30zM219 634q0 20 8.5 31t22.5 11q15 0 24.5 -11t9.5 -31q0 -19 -9.5 -30t-24.5 -11q-14 0 -22.5 11t-8.5 30zM130 562l37 138h51v-19l-63 -119h-25z" />
    <glyph glyph-name="afii10101.var.accented" unicode="&#x454;`" horiz-adv-x="303" 
d="M268 66l16 -48q-34 -28 -99 -28q-78 0 -116.5 68.5t-38.5 191.5q0 125 42.5 192.5t118.5 67.5q56 0 87 -19l-16 -51q-29 17 -72 17q-45 0 -72 -45t-31 -131h150v-53h-150q3 -80 30 -132.5t79 -52.5q44 0 72 23zM158 572l38 148h62v-19l-66 -129h-34z" />
    <glyph glyph-name="afii10103.var.accented" unicode="&#x456;`" horiz-adv-x="175" 
d="M59 0v500h57v-500h-57zM49 655q0 23 10.5 35.5t28.5 12.5t29 -12t11 -36q0 -46 -40 -46q-39 0 -39 46zM55 752l75 118h79v-19l-105 -99h-49z" />
    <glyph glyph-name="afii10104.var.accented" unicode="&#x457;`" horiz-adv-x="178" 
d="M16 654q0 43 31 43q14 0 23 -11.5t9 -31.5q0 -19 -9 -30.5t-23 -11.5q-31 0 -31 42zM96 654q0 43 31 43q32 0 32 -43q0 -42 -32 -42q-31 0 -31 42zM58 0v500h57v-500h-57zM61 752l75 118h79v-19l-105 -99h-49z" />
    <glyph glyph-name="afii10062.var.accented" unicode="&#x40e;`" horiz-adv-x="361" 
d="M71 700l112 -362l15 -89h4l13 92l86 359h61l-115 -449q-41 -161 -63 -208.5t-65 -47.5q-36 0 -60 21l18 53q21 -17 42 -17q31 0 52 128l-168 520h68zM80 849l56 20q5 -89 60 -89q53 0 61 88l47 -17q-8 -54 -36 -85t-75 -31q-48 0 -78 29t-35 85zM160 832l70 118h78v-19
l-104 -99h-44z" />
    <glyph glyph-name="afii10110.var.accented" unicode="&#x45e;`" horiz-adv-x="302" 
d="M68 500l79 -333l18 -100h3l13 101l63 332h56l-96 -449q-14 -68 -23.5 -105.5t-24 -77t-31.5 -56.5t-39 -17t-37 8l9 57q8 -2 13 -2q23 0 38.5 32t26.5 110l-131 500h63zM50 678l48 23q9 -91 59 -91q51 0 61 90l41 -17q-7 -55 -35 -86.5t-68 -31.5t-70 29t-36 84zM136 669
l36 148h61v-19l-67 -129h-30z" />
    <glyph glyph-name="afii10148.var.accented" unicode="&#x474;`" horiz-adv-x="393" 
d="M317 522l-114 -534h-30l-174 712h65l110 -492l16 -104h1l10 105l49 257q21 107 38 158t35 67t50 16q35 0 60 -18l-19 -52q-22 15 -39 15q-19 0 -31.5 -32.5t-26.5 -97.5zM156 752l75 118h79v-19l-105 -99h-49z" />
    <glyph glyph-name="afii10196.var.accented" unicode="&#x475;`" horiz-adv-x="331" 
d="M269 362l-97 -374h-26l-142 512h64l77 -293l17 -106h1l14 108l20 90q26 114 47.5 161t60.5 47q25 0 40 -8l-8 -55q-14 6 -20 6q-13 0 -23.5 -18.5t-24.5 -69.5zM135 572l38 148h62v-19l-66 -129h-34z" />
    <glyph glyph-name="uni04AE.var.accented" unicode="&#x4ae;`" horiz-adv-x="367" 
d="M155 0v282l-150 418h68l103 -312l10 -58h2l11 60l100 310h63l-148 -417v-283h-59zM142 752l75 118h79v-19l-105 -99h-49z" />
    <glyph glyph-name="uni04AF.var.accented" unicode="&#x4af;`" horiz-adv-x="314" 
d="M131 0l-127 500h66l76 -323l17 -116h1l16 118l69 321h61l-122 -500v-200h-57v200zM125 572l38 148h62v-19l-66 -129h-34z" />
    <glyph glyph-name="uni04B0.var.accented" unicode="&#x4b0;`" horiz-adv-x="367" 
d="M57 233v50h97l-149 417h68l103 -312l10 -58h2l11 60l100 310h63l-148 -417h98v-50h-98v-233h-59v233h-98zM150 752l75 118h79v-19l-105 -99h-49z" />
    <glyph glyph-name="uni04B1.var.accented" unicode="&#x4b1;`" horiz-adv-x="314" 
d="M53 -52v53h77l-126 499h66l76 -323l17 -116h1l16 118l69 321h61l-122 -499h78v-53h-78v-148h-57v148h-78zM132 572l38 148h62v-19l-66 -129h-34z" />
    <glyph glyph-name="uni04D0.var.accented" unicode="&#x4d0;`" horiz-adv-x="382" 
d="M316 0l-47 206h-160l-46 -206h-59l171 712h31l172 -712h-62zM173 488l-49 -227h131l-50 229l-15 104h-2zM78 849l56 20q5 -89 60 -89q53 0 61 88l47 -17q-8 -54 -36 -85t-75 -31q-48 0 -78 29t-35 85zM158 832l70 118h78v-19l-104 -99h-44z" />
    <glyph glyph-name="uni04D1.var.accented" unicode="&#x4d1;`" horiz-adv-x="322" 
d="M66 429l-21 45q52 34 126 34q62 0 83.5 -39t21.5 -111q0 -42 -2 -118t-2 -108q0 -88 10 -134h-43l-14 49h-3q-28 -53 -97 -53q-46 0 -73.5 37.5t-27.5 101.5q0 150 162 150q22 0 33 -1q2 44 2 58q0 63 -14 89t-50 26q-50 0 -91 -26zM140 47q56 0 79 56v129q-22 2 -33 2
q-103 0 -103 -96q0 -44 15.5 -67.5t41.5 -23.5zM60 678l48 23q9 -91 59 -91q51 0 61 90l41 -17q-7 -55 -35 -86.5t-68 -31.5t-70 29t-36 84zM146 669l36 148h61v-19l-67 -129h-30z" />
    <glyph glyph-name="uni04D2.var.accented" unicode="&#x4d2;`" horiz-adv-x="382" 
d="M316 0l-47 206h-160l-46 -206h-59l171 712h31l172 -712h-62zM173 488l-49 -227h131l-50 229l-15 104h-2zM245 813q0 20 9.5 30.5t25.5 10.5q37 0 37 -41q0 -40 -37 -40q-16 0 -25.5 10.5t-9.5 29.5zM67 813q0 41 37 41q16 0 25.5 -10.5t9.5 -30.5q0 -19 -9.5 -29.5
t-25.5 -10.5q-37 0 -37 40zM134 752l43 118h67v-19l-69 -99h-41z" />
    <glyph glyph-name="uni04D3.var.accented" unicode="&#x4d3;`" horiz-adv-x="322" 
d="M66 429l-21 45q52 34 126 34q62 0 83.5 -39t21.5 -111q0 -42 -2 -118t-2 -108q0 -88 10 -134h-43l-14 49h-3q-28 -53 -97 -53q-46 0 -73.5 37.5t-27.5 101.5q0 150 162 150q22 0 33 -1q2 44 2 58q0 63 -14 89t-50 26q-50 0 -91 -26zM140 47q56 0 79 56v129q-22 2 -33 2
q-103 0 -103 -96q0 -44 15.5 -67.5t41.5 -23.5zM50 634q0 20 9.5 31t24.5 11q31 0 31 -42q0 -41 -31 -41q-15 0 -24.5 11t-9.5 30zM202 634q0 20 8.5 31t22.5 11q15 0 24.5 -11t9.5 -31q0 -19 -9.5 -30t-24.5 -11q-14 0 -22.5 11t-8.5 30zM113 562l37 138h51v-19l-63 -119
h-25z" />
    <glyph glyph-name="uni04D4.var.accented" unicode="&#x4d4;`" horiz-adv-x="551" 
d="M257 595h-2l-21 -95l-88 -239h111v334zM257 0v206h-133l-76 -206h-62l270 700h252v-55h-192v-257h175v-55h-175v-278h195v-55h-254zM266 752l75 118h79v-19l-105 -99h-49z" />
    <glyph glyph-name="uni04D5.var.accented" unicode="&#x4d5;`" horiz-adv-x="517" 
d="M141 45q31 0 51 20.5t27 51.5v121q-18 2 -27 2q-109 0 -109 -98q0 -38 16.5 -67.5t41.5 -29.5zM244 65h-5q-34 -73 -109 -73q-48 0 -77 39.5t-29 105.5q0 83 40.5 117t115.5 34q13 0 39 -2q2 44 2 58q0 62 -14 86.5t-50 24.5q-23 0 -50.5 -10t-45.5 -26l-18 45
q48 44 128 44q69 0 88 -66q30 70 102 70q124 0 124 -186q0 -51 -4 -82h-207q1 -105 24.5 -154t77.5 -49q22 0 44.5 8.5t33.5 19.5l21 -44q-43 -37 -114 -37q-40 0 -71.5 20t-45.5 57zM362 459q-78 0 -86 -164h155v16q0 70 -19 109t-50 39zM241 572l38 148h62v-19l-66 -129
h-34z" />
    <glyph glyph-name="uni04D6.var.accented" unicode="&#x4d6;`" horiz-adv-x="347" 
d="M53 0v700h251v-55h-192v-257h176v-55h-176v-278h195v-55h-254zM70 849l56 20q5 -89 60 -89q53 0 61 88l47 -17q-8 -54 -36 -85t-75 -31q-48 0 -78 29t-35 85zM150 832l70 118h78v-19l-104 -99h-44z" />
    <glyph glyph-name="uni04D7.var.accented" unicode="&#x4d7;`" horiz-adv-x="330" 
d="M268 72l21 -44q-40 -40 -110 -40q-75 0 -112 69.5t-37 192.5q0 126 38 194t107 68q124 0 125 -182q0 -41 -4 -82h-207q2 -207 105 -207q45 0 74 31zM175 459q-77 0 -84 -158h154v15q0 70 -19 106.5t-51 36.5zM70 678l48 23q9 -91 59 -91q51 0 61 90l41 -17
q-7 -55 -35 -86.5t-68 -31.5t-70 29t-36 84zM156 669l36 148h61v-19l-67 -129h-30z" />
    <glyph glyph-name="uni04D8.var.accented" unicode="&#x4d8;`" horiz-adv-x="416" 
d="M323 329h-227q-3 -39 -3 -72q0 -95 27 -154.5t81 -59.5q120 0 122 286zM41 384h281q-5 139 -37.5 206t-98.5 67q-49 0 -101 -40l-20 51q65 44 130 44q96 0 141 -85.5t45 -276.5q0 -362 -182 -362q-81 0 -123 71.5t-42 199.5q0 62 7 125zM155 752l75 118h79v-19l-105 -99
h-49z" />
    <glyph glyph-name="afii10846.var.accented" unicode="&#x4d9;`" horiz-adv-x="330" 
d="M62 431l-21 44q42 37 114 37q145 0 145 -262t-141 -262q-59 0 -94 52.5t-35 157.5q0 16 4 74h209q-2 97 -25.5 142t-77.5 45q-50 0 -78 -28zM160 41q39 0 60.5 45.5t21.5 132.5h-157v-10q0 -81 21 -124.5t54 -43.5zM128 572l38 148h62v-19l-66 -129h-34z" />
    <glyph glyph-name="uni04DA.var.accented" unicode="&#x4da;`" horiz-adv-x="416" 
d="M323 329h-227q-3 -39 -3 -72q0 -95 27 -154.5t81 -59.5q120 0 122 286zM41 384h281q-5 139 -37.5 206t-98.5 67q-49 0 -101 -40l-20 51q65 44 130 44q96 0 141 -85.5t45 -276.5q0 -362 -182 -362q-81 0 -123 71.5t-42 199.5q0 62 7 125zM254 813q0 20 9.5 30.5t25.5 10.5
q37 0 37 -41q0 -40 -37 -40q-16 0 -25.5 10.5t-9.5 29.5zM76 813q0 41 37 41q16 0 25.5 -10.5t9.5 -30.5q0 -19 -9.5 -29.5t-25.5 -10.5q-37 0 -37 40zM143 752l43 118h67v-19l-69 -99h-41z" />
    <glyph glyph-name="uni04DB.var.accented" unicode="&#x4db;`" horiz-adv-x="330" 
d="M62 431l-21 44q42 37 114 37q145 0 145 -262t-141 -262q-59 0 -94 52.5t-35 157.5q0 16 4 74h209q-2 97 -25.5 142t-77.5 45q-50 0 -78 -28zM160 41q39 0 60.5 45.5t21.5 132.5h-157v-10q0 -81 21 -124.5t54 -43.5zM48 634q0 20 9.5 31t24.5 11q31 0 31 -42
q0 -41 -31 -41q-15 0 -24.5 11t-9.5 30zM200 634q0 20 8.5 31t22.5 11q15 0 24.5 -11t9.5 -31q0 -19 -9.5 -30t-24.5 -11q-14 0 -22.5 11t-8.5 30zM111 562l37 138h51v-19l-63 -119h-25z" />
    <glyph glyph-name="uni04E2.var.accented" unicode="&#x4e2;`" horiz-adv-x="441" 
d="M329 0v466l6 99h-3l-28 -101l-210 -464h-41v700h59v-475l-6 -98h3l28 101l212 472h39v-700h-59zM126 734v56h208v-56h-208zM186 822l75 118h79v-19l-105 -99h-49z" />
    <glyph glyph-name="uni04E3.var.accented" unicode="&#x4e3;`" horiz-adv-x="353" 
d="M249 0v297l8 88h-4l-30 -101l-135 -284h-40v500h57v-306l-9 -85h5l29 98l136 293h40v-500h-57zM84 588v52h195v-52h-195zM152 682l38 148h62v-19l-66 -129h-34z" />
    <glyph glyph-name="uni04E4.var.accented" unicode="&#x4e4;`" horiz-adv-x="441" 
d="M329 0v466l6 99h-3l-28 -101l-210 -464h-41v700h59v-475l-6 -98h3l28 101l212 472h39v-700h-59zM275 813q0 20 9.5 30.5t25.5 10.5q37 0 37 -41q0 -40 -37 -40q-16 0 -25.5 10.5t-9.5 29.5zM97 813q0 41 37 41q16 0 25.5 -10.5t9.5 -30.5q0 -19 -9.5 -29.5t-25.5 -10.5
q-37 0 -37 40zM164 752l43 118h67v-19l-69 -99h-41z" />
    <glyph glyph-name="uni04E5.var.accented" unicode="&#x4e5;`" horiz-adv-x="353" 
d="M249 0v297l8 88h-4l-30 -101l-135 -284h-40v500h57v-306l-9 -85h5l29 98l136 293h40v-500h-57zM72 634q0 20 9.5 31t24.5 11q31 0 31 -42q0 -41 -31 -41q-15 0 -24.5 11t-9.5 30zM224 634q0 20 8.5 31t22.5 11q15 0 24.5 -11t9.5 -31q0 -19 -9.5 -30t-24.5 -11
q-14 0 -22.5 11t-8.5 30zM135 562l37 138h51v-19l-63 -119h-25z" />
    <glyph glyph-name="uni04E6.var.accented" unicode="&#x4e6;`" horiz-adv-x="443" 
d="M35 350q0 182 44.5 272t141.5 90q102 0 144.5 -91.5t42.5 -270.5q0 -183 -44.5 -272.5t-142.5 -89.5q-101 0 -143.5 92t-42.5 270zM95 350q0 -85 11.5 -151.5t41 -111t73.5 -44.5q127 0 127 307q0 134 -30.5 220.5t-96.5 86.5q-126 0 -126 -307zM274 813q0 20 9.5 30.5
t25.5 10.5q37 0 37 -41q0 -40 -37 -40q-16 0 -25.5 10.5t-9.5 29.5zM96 813q0 41 37 41q16 0 25.5 -10.5t9.5 -30.5q0 -19 -9.5 -29.5t-25.5 -10.5q-37 0 -37 40zM163 752l43 118h67v-19l-69 -99h-41z" />
    <glyph glyph-name="uni04E7.var.accented" unicode="&#x4e7;`" horiz-adv-x="348" 
d="M30 250q0 137 36.5 199.5t107.5 62.5q75 0 109.5 -61t34.5 -201q0 -139 -36 -200.5t-108 -61.5q-75 0 -109.5 61t-34.5 201zM89 250q0 -209 85 -209q44 0 64.5 49t20.5 160q0 209 -85 209t-85 -209zM66 634q0 20 9.5 31t24.5 11q31 0 31 -42q0 -41 -31 -41
q-15 0 -24.5 11t-9.5 30zM218 634q0 20 8.5 31t22.5 11q15 0 24.5 -11t9.5 -31q0 -19 -9.5 -30t-24.5 -11q-14 0 -22.5 11t-8.5 30zM129 562l37 138h51v-19l-63 -119h-25z" />
    <glyph glyph-name="uni04E8.var.accented" unicode="&#x4e8;`" horiz-adv-x="443" 
d="M35 350q0 182 44.5 272t141.5 90q102 0 145 -92t43 -270q0 -182 -44.5 -272t-143.5 -90q-101 0 -143.5 92t-42.5 270zM221 43q124 0 128 286h-254q2 -126 33 -206t93 -80zM221 657q-119 0 -126 -273h253q-3 120 -34 196.5t-93 76.5zM194 752l75 118h79v-19l-105 -99h-49z
" />
    <glyph glyph-name="uni04E9.var.accented" unicode="&#x4e9;`" horiz-adv-x="348" 
d="M30 250q0 262 144 262t144 -262t-144 -262t-144 262zM89 275h170q-5 184 -85 184q-79 0 -85 -184zM259 222h-170q1 -89 25 -135t60 -46q81 0 85 181zM156 572l38 148h62v-19l-66 -129h-34z" />
    <glyph glyph-name="uni04EA.var.accented" unicode="&#x4ea;`" horiz-adv-x="443" 
d="M35 350q0 182 44.5 272t141.5 90q102 0 145 -92t43 -270q0 -182 -44.5 -272t-143.5 -90q-101 0 -143.5 92t-42.5 270zM221 43q124 0 128 286h-254q2 -126 33 -206t93 -80zM221 657q-119 0 -126 -273h253q-3 120 -34 196.5t-93 76.5zM276 813q0 20 9.5 30.5t25.5 10.5
q37 0 37 -41q0 -40 -37 -40q-16 0 -25.5 10.5t-9.5 29.5zM98 813q0 41 37 41q16 0 25.5 -10.5t9.5 -30.5q0 -19 -9.5 -29.5t-25.5 -10.5q-37 0 -37 40zM165 752l43 118h67v-19l-69 -99h-41z" />
    <glyph glyph-name="uni04EB.var.accented" unicode="&#x4eb;`" horiz-adv-x="348" 
d="M30 250q0 262 144 262t144 -262t-144 -262t-144 262zM89 275h170q-5 184 -85 184q-79 0 -85 -184zM259 222h-170q1 -89 25 -135t60 -46q81 0 85 181zM66 634q0 20 9.5 31t24.5 11q31 0 31 -42q0 -41 -31 -41q-15 0 -24.5 11t-9.5 30zM218 634q0 20 8.5 31t22.5 11
q15 0 24.5 -11t9.5 -31q0 -19 -9.5 -30t-24.5 -11q-14 0 -22.5 11t-8.5 30zM129 562l37 138h51v-19l-63 -119h-25z" />
    <glyph glyph-name="uni04EC.var.accented" unicode="&#x4ec;`" horiz-adv-x="375" 
d="M95 329v55h185q-2 135 -39 204t-103 69q-49 0 -95 -31l-22 49q53 37 122 37q97 0 147 -84t50 -275q0 -365 -207 -365q-63 0 -107 24l16 55q41 -24 95 -24q63 0 102.5 70t41.5 216h-186zM210 813q0 20 9.5 30.5t25.5 10.5q37 0 37 -41q0 -40 -37 -40q-16 0 -25.5 10.5
t-9.5 29.5zM32 813q0 41 37 41q16 0 25.5 -10.5t9.5 -30.5q0 -19 -9.5 -29.5t-25.5 -10.5q-37 0 -37 40zM99 752l43 118h67v-19l-69 -99h-41z" />
    <glyph glyph-name="uni04ED.var.accented" unicode="&#x4ed;`" horiz-adv-x="299" 
d="M75 225v53h134q-2 181 -90 181q-43 0 -76 -25l-22 46q40 32 105 32q73 0 107.5 -63t34.5 -199q0 -262 -153 -262q-55 0 -93 19l16 53q30 -19 74 -19q95 0 98 184h-135zM24 634q0 20 9.5 31t24.5 11q31 0 31 -42q0 -41 -31 -41q-15 0 -24.5 11t-9.5 30zM176 634
q0 20 8.5 31t22.5 11q15 0 24.5 -11t9.5 -31q0 -19 -9.5 -30t-24.5 -11q-14 0 -22.5 11t-8.5 30zM87 562l37 138h51v-19l-63 -119h-25z" />
    <glyph glyph-name="uni04EE.var.accented" unicode="&#x4ee;`" horiz-adv-x="361" 
d="M71 700l112 -362l15 -89h4l13 92l86 359h61l-115 -449q-41 -161 -63 -208.5t-65 -47.5q-36 0 -60 21l18 53q21 -17 42 -17q31 0 52 128l-168 520h68zM80 734v56h208v-56h-208zM144 822l75 118h79v-19l-105 -99h-49z" />
    <glyph glyph-name="uni04EF.var.accented" unicode="&#x4ef;`" horiz-adv-x="302" 
d="M68 500l79 -333l18 -100h3l13 101l63 332h56l-96 -449q-14 -68 -23.5 -105.5t-24 -77t-31.5 -56.5t-39 -17t-37 8l9 57q8 -2 13 -2q23 0 38.5 32t26.5 110l-131 500h63zM60 588v52h195v-52h-195zM129 682l38 148h62v-19l-66 -129h-34z" />
    <glyph glyph-name="uni04F0.var.accented" unicode="&#x4f0;`" horiz-adv-x="361" 
d="M71 700l112 -362l15 -89h4l13 92l86 359h61l-115 -449q-41 -161 -63 -208.5t-65 -47.5q-36 0 -60 21l18 53q21 -17 42 -17q31 0 52 128l-168 520h68zM238 813q0 20 9.5 30.5t25.5 10.5q37 0 37 -41q0 -40 -37 -40q-16 0 -25.5 10.5t-9.5 29.5zM60 813q0 41 37 41
q16 0 25.5 -10.5t9.5 -30.5q0 -19 -9.5 -29.5t-25.5 -10.5q-37 0 -37 40zM127 752l43 118h67v-19l-69 -99h-41z" />
    <glyph glyph-name="uni04F1.var.accented" unicode="&#x4f1;`" horiz-adv-x="302" 
d="M68 500l79 -333l18 -100h3l13 101l63 332h56l-96 -449q-14 -68 -23.5 -105.5t-24 -77t-31.5 -56.5t-39 -17t-37 8l9 57q8 -2 13 -2q23 0 38.5 32t26.5 110l-131 500h63zM47 634q0 20 9.5 31t24.5 11q31 0 31 -42q0 -41 -31 -41q-15 0 -24.5 11t-9.5 30zM199 634
q0 20 8.5 31t22.5 11q15 0 24.5 -11t9.5 -31q0 -19 -9.5 -30t-24.5 -11q-14 0 -22.5 11t-8.5 30zM110 562l37 138h51v-19l-63 -119h-25z" />
    <glyph glyph-name="uni04F2.var.accented" unicode="&#x4f2;`" horiz-adv-x="361" 
d="M71 700l112 -362l15 -89h4l13 92l86 359h61l-115 -449q-41 -161 -63 -208.5t-65 -47.5q-36 0 -60 21l18 53q21 -17 42 -17q31 0 52 128l-168 520h68zM79 731l17 89h57v-16l-39 -73h-35zM202 731l86 89h69v-16l-113 -73h-42zM144 752l65 118h73v-19l-90 -99h-48z" />
    <glyph glyph-name="uni04F3.var.accented" unicode="&#x4f3;`" horiz-adv-x="302" 
d="M68 500l79 -333l18 -100h3l13 101l63 332h56l-96 -449q-14 -68 -23.5 -105.5t-24 -77t-31.5 -56.5t-39 -17t-37 8l9 57q8 -2 13 -2q23 0 38.5 32t26.5 110l-131 500h63zM81 571l9 129h55v-16l-34 -113h-30zM179 571l67 129h59v-16l-94 -113h-32zM149 622l37 148h58v-19
l-64 -129h-31z" />
    <glyph glyph-name="uni04F8.var.accented" unicode="&#x4f8;`" horiz-adv-x="503" 
d="M391 0v700h59v-700h-59zM53 5v695h59v-277q27 9 58 9q73 0 115.5 -45t42.5 -162q0 -121 -42.5 -177t-130.5 -56q-58 0 -102 13zM160 47q108 0 108 171q0 90 -27.5 124.5t-80.5 34.5q-28 0 -48 -9v-314q17 -7 48 -7zM301 813q0 20 9.5 30.5t25.5 10.5q37 0 37 -41
q0 -40 -37 -40q-16 0 -25.5 10.5t-9.5 29.5zM123 813q0 41 37 41q16 0 25.5 -10.5t9.5 -30.5q0 -19 -9.5 -29.5t-25.5 -10.5q-37 0 -37 40zM190 752l43 118h67v-19l-69 -99h-41z" />
    <glyph glyph-name="uni04F9.var.accented" unicode="&#x4f9;`" horiz-adv-x="433" 
d="M105 253v-200q26 -6 45 -6q38 0 54 26.5t16 81.5q0 105 -69 105q-27 0 -46 -7zM105 500v-194q29 7 58 7q116 0 116 -147q0 -91 -33 -131.5t-108 -40.5q-45 0 -90 6v500h57zM328 0v500h57v-500h-57zM108 634q0 20 9.5 31t24.5 11q31 0 31 -42q0 -41 -31 -41
q-15 0 -24.5 11t-9.5 30zM260 634q0 20 8.5 31t22.5 11q15 0 24.5 -11t9.5 -31q0 -19 -9.5 -30t-24.5 -11q-14 0 -22.5 11t-8.5 30zM171 562l37 138h51v-19l-63 -119h-25z" />
    <glyph glyph-name="uniF37E.var.accented" unicode="&#xf37e;`" horiz-adv-x="297" 
d="M69 525l82 -267l13 -68h3l9 70l61 265h60l-93 -346q-30 -111 -48 -147t-55 -36q-32 0 -52 17l17 52q16 -12 33 -12q25 0 38 85l-134 387h66zM45 703l48 23q9 -91 59 -91q51 0 61 90l41 -17q-7 -55 -35 -86.5t-68 -31.5t-70 29t-36 84zM131 694l36 148h61v-19l-67 -129
h-30z" />
    <glyph glyph-name="uniF3A2.var.accented" unicode="&#xf3a2;`" horiz-adv-x="306" 
d="M124 0v205l-120 320h67l76 -226l9 -48h1l10 49l72 225h62l-118 -319v-206h-59zM131 597l38 148h62v-19l-66 -129h-34z" />
    <glyph glyph-name="uniF3A3.var.accented" unicode="&#xf3a3;`" horiz-adv-x="306" 
d="M48 156v50h75l-119 319h67l76 -226l9 -48h1l10 49l72 225h62l-118 -319h75v-50h-75v-156h-59v156h-76zM131 597l38 148h62v-19l-66 -129h-34z" />
    <glyph glyph-name="uniF3B2.var.accented" unicode="&#xf3b2;`" horiz-adv-x="315" 
d="M250 0l-34 142h-122l-32 -142h-58l135 532h37l134 -532h-60zM143 347l-34 -150h94l-35 151l-12 81h-1zM52 703l48 23q9 -91 59 -91q51 0 61 90l41 -17q-7 -55 -35 -86.5t-68 -31.5t-70 29t-36 84zM138 694l36 148h61v-19l-67 -129h-30z" />
    <glyph glyph-name="uniF3B3.var.accented" unicode="&#xf3b3;`" horiz-adv-x="315" 
d="M250 0l-34 142h-122l-32 -142h-58l135 532h37l134 -532h-60zM143 347l-34 -150h94l-35 151l-12 81h-1zM48 684q0 20 9.5 31t24.5 11q31 0 31 -42q0 -41 -31 -41q-15 0 -24.5 11t-9.5 30zM200 684q0 20 8.5 31t22.5 11q15 0 24.5 -11t9.5 -31q0 -19 -9.5 -30t-24.5 -11
q-14 0 -22.5 11t-8.5 30zM111 612l37 138h51v-19l-63 -119h-25z" />
    <glyph glyph-name="uniF3B4.var.accented" unicode="&#xf3b4;`" horiz-adv-x="457" 
d="M205 433h-2l-16 -76l-62 -157h80v233zM205 0v145h-103l-56 -145h-60l218 525h211v-55h-151v-175h138v-55h-138v-185h153v-55h-212zM214 597l38 148h62v-19l-66 -129h-34z" />
    <glyph glyph-name="uniF3B5.var.accented" unicode="&#xf3b5;`" horiz-adv-x="306" 
d="M53 0v525h210v-55h-151v-175h138v-55h-138v-185h154v-55h-213zM56 703l48 23q9 -91 59 -91q51 0 61 90l41 -17q-7 -55 -35 -86.5t-68 -31.5t-70 29t-36 84zM142 694l36 148h61v-19l-67 -129h-30z" />
    <glyph glyph-name="uniF3B6.var.accented" unicode="&#xf3b6;`" horiz-adv-x="351" 
d="M257 239h-163q-2 -32 -2 -49q0 -61 19.5 -102.5t58.5 -41.5q85 0 87 193zM39 294h218q-5 92 -28.5 138.5t-73.5 46.5q-40 0 -78 -29l-18 49q53 35 106 35q76 0 113.5 -64.5t37.5 -206.5q0 -272 -148 -272q-66 0 -99.5 56t-33.5 156q0 48 4 91zM140 597l38 148h62v-19
l-66 -129h-34z" />
    <glyph glyph-name="uniF3B7.var.accented" unicode="&#xf3b7;`" horiz-adv-x="351" 
d="M257 239h-163q-2 -32 -2 -49q0 -61 19.5 -102.5t58.5 -41.5q85 0 87 193zM39 294h218q-5 92 -28.5 138.5t-73.5 46.5q-40 0 -78 -29l-18 49q53 35 106 35q76 0 113.5 -64.5t37.5 -206.5q0 -272 -148 -272q-66 0 -99.5 56t-33.5 156q0 48 4 91zM54 684q0 20 9.5 31
t24.5 11q31 0 31 -42q0 -41 -31 -41q-15 0 -24.5 11t-9.5 30zM206 684q0 20 8.5 31t22.5 11q15 0 24.5 -11t9.5 -31q0 -19 -9.5 -30t-24.5 -11q-14 0 -22.5 11t-8.5 30zM117 612l37 138h51v-19l-63 -119h-25z" />
    <glyph glyph-name="uniF3BB.var.accented" unicode="&#xf3bb;`" 
d="M267 0v320l6 83h-3l-24 -85l-152 -318h-41v525h59v-321l-6 -83h4l24 85l152 319h40v-525h-59zM95 613v52h195v-52h-195zM162 707l38 148h62v-19l-66 -129h-34z" />
    <glyph glyph-name="uniF3BC.var.accented" unicode="&#xf3bc;`" 
d="M267 0v320l6 83h-3l-24 -85l-152 -318h-41v525h59v-321l-6 -83h4l24 85l152 319h40v-525h-59zM82 684q0 20 9.5 31t24.5 11q31 0 31 -42q0 -41 -31 -41q-15 0 -24.5 11t-9.5 30zM234 684q0 20 8.5 31t22.5 11q15 0 24.5 -11t9.5 -31q0 -19 -9.5 -30t-24.5 -11
q-14 0 -22.5 11t-8.5 30zM145 612l37 138h51v-19l-63 -119h-25z" />
    <glyph glyph-name="uniF3BD.var.accented" unicode="&#xf3bd;`" horiz-adv-x="374" 
d="M35 263q0 271 152 271q81 0 116.5 -69.5t35.5 -201.5q0 -272 -152 -272q-81 0 -116.5 69.5t-35.5 202.5zM95 263q0 -217 91 -217q48 0 70.5 52.5t22.5 164.5q0 216 -93 216q-47 0 -69 -52.5t-22 -163.5zM80 684q0 20 9.5 31t24.5 11q31 0 31 -42q0 -41 -31 -41
q-15 0 -24.5 11t-9.5 30zM232 684q0 20 8.5 31t22.5 11q15 0 24.5 -11t9.5 -31q0 -19 -9.5 -30t-24.5 -11q-14 0 -22.5 11t-8.5 30zM143 612l37 138h51v-19l-63 -119h-25z" />
    <glyph glyph-name="uniF3BE.var.accented" unicode="&#xf3be;`" horiz-adv-x="374" 
d="M35 263q0 271 152 271q81 0 116.5 -69.5t35.5 -201.5q0 -272 -152 -272q-81 0 -116.5 69.5t-35.5 202.5zM186 46q89 0 93 192h-184q5 -192 91 -192zM186 479q-85 0 -91 -186h183q-5 186 -92 186zM162 597l38 148h62v-19l-66 -129h-34z" />
    <glyph glyph-name="uniF3BF.var.accented" unicode="&#xf3bf;`" horiz-adv-x="374" 
d="M35 263q0 271 152 271q81 0 116.5 -69.5t35.5 -201.5q0 -272 -152 -272q-81 0 -116.5 69.5t-35.5 202.5zM186 46q89 0 93 192h-184q5 -192 91 -192zM186 479q-85 0 -91 -186h183q-5 186 -92 186zM78 684q0 20 9.5 31t24.5 11q31 0 31 -42q0 -41 -31 -41q-15 0 -24.5 11
t-9.5 30zM230 684q0 20 8.5 31t22.5 11q15 0 24.5 -11t9.5 -31q0 -19 -9.5 -30t-24.5 -11q-14 0 -22.5 11t-8.5 30zM141 612l37 138h51v-19l-63 -119h-25z" />
    <glyph glyph-name="uniF3C0.var.accented" unicode="&#xf3c0;`" horiz-adv-x="318" 
d="M80 242v55h144q-1 88 -30 135t-79 47q-43 0 -78 -24l-17 50q47 29 101 29q163 0 163 -271q0 -142 -46.5 -207t-124.5 -65q-53 0 -90 22l18 53q35 -20 75 -20q48 0 78 49.5t31 146.5h-145zM18 684q0 20 9.5 31t24.5 11q31 0 31 -42q0 -41 -31 -41q-15 0 -24.5 11t-9.5 30z
M170 684q0 20 8.5 31t22.5 11q15 0 24.5 -11t9.5 -31q0 -19 -9.5 -30t-24.5 -11q-14 0 -22.5 11t-8.5 30zM81 612l37 138h51v-19l-63 -119h-25z" />
    <glyph glyph-name="uniF3C1.var.accented" unicode="&#xf3c1;`" horiz-adv-x="297" 
d="M69 525l82 -267l13 -68h3l9 70l61 265h60l-93 -346q-30 -111 -48 -147t-55 -36q-32 0 -52 17l17 52q16 -12 33 -12q25 0 38 85l-134 387h66zM54 613v52h195v-52h-195zM122 707l38 148h62v-19l-66 -129h-34z" />
    <glyph glyph-name="uniF3C2.var.accented" unicode="&#xf3c2;`" horiz-adv-x="297" 
d="M69 525l82 -267l13 -68h3l9 70l61 265h60l-93 -346q-30 -111 -48 -147t-55 -36q-32 0 -52 17l17 52q16 -12 33 -12q25 0 38 85l-134 387h66zM46 684q0 20 9.5 31t24.5 11q31 0 31 -42q0 -41 -31 -41q-15 0 -24.5 11t-9.5 30zM198 684q0 20 8.5 31t22.5 11q15 0 24.5 -11
t9.5 -31q0 -19 -9.5 -30t-24.5 -11q-14 0 -22.5 11t-8.5 30zM109 612l37 138h51v-19l-63 -119h-25z" />
    <glyph glyph-name="uniF3C3.var.accented" unicode="&#xf3c3;`" horiz-adv-x="297" 
d="M69 525l82 -267l13 -68h3l9 70l61 265h60l-93 -346q-30 -111 -48 -147t-55 -36q-32 0 -52 17l17 52q16 -12 33 -12q25 0 38 85l-134 387h66zM75 596l9 129h55v-16l-34 -113h-30zM173 596l67 129h59v-16l-94 -113h-32zM143 647l37 148h58v-19l-64 -129h-31z" />
    <glyph glyph-name="uniF3C6.var.accented" unicode="&#xf3c6;`" horiz-adv-x="443" 
d="M331 0v525h59v-525h-59zM53 3v522h59v-200q24 6 46 6q127 0 127 -160q0 -178 -143 -178q-58 0 -89 10zM149 48q76 0 76 119q0 109 -77 109q-18 0 -36 -7v-216q13 -5 37 -5zM111 684q0 20 9.5 31t24.5 11q31 0 31 -42q0 -41 -31 -41q-15 0 -24.5 11t-9.5 30zM263 684
q0 20 8.5 31t22.5 11q15 0 24.5 -11t9.5 -31q0 -19 -9.5 -30t-24.5 -11q-14 0 -22.5 11t-8.5 30zM174 612l37 138h51v-19l-63 -119h-25z" />
    <glyph glyph-name="uniF684" unicode="&#xf769;&#xf76a;" horiz-adv-x="350" 
d="M64 0v525h59v-525h-59zM232 131v394h59v-404q0 -129 -82 -129q-37 0 -56 11l13 53q14 -7 32 -7q20 0 27 20t7 62z" />
    <glyph glyph-name="f_f" unicode="ff" horiz-adv-x="393" 
d="M248 447h-129v-447h-57v447h-49v53h49v28q0 94 22 136t73 42q39 0 68 -14l-13 -50q-19 11 -48 11q-31 0 -38 -34t-7 -119h129v28q0 94 21.5 136t72.5 42q42 0 73 -16l-13 -49q-22 12 -53 12q-29 0 -37 -35.5t-8 -117.5h85v-53h-84v-447h-57v447z" />
    <glyph glyph-name="fi" unicode="fi" horiz-adv-x="352" 
d="M119 500h183v-500h-57v447h-126v-447h-57v447h-49v53h49v28q0 178 120 178q62 0 112 -24l-18 -49q-36 20 -91 20q-41 0 -53.5 -36.5t-12.5 -116.5z" />
    <glyph glyph-name="fl" unicode="fl" horiz-adv-x="376" 
d="M242 87v563q-27 9 -60 9q-39 0 -51 -37t-12 -122h64v-53h-64v-447h-57v447h-49v53h49v28q0 95 27.5 139.5t90.5 44.5q74 0 119 -18v-599q0 -54 29 -54q22 0 42 11l2 -47q-22 -17 -63 -17q-67 0 -67 99z" />
    <glyph glyph-name="f_f_i" unicode="ffi" horiz-adv-x="537" 
d="M247 447h-128v-447h-57v447h-49v53h49v28q0 94 22 136t73 42q41 0 68 -14l-13 -50q-19 11 -48 11q-31 0 -38 -34t-7 -119h128v28q0 97 30 137.5t90 40.5q76 0 119 -31l-18 -49q-38 27 -93 27q-44 0 -57.5 -33t-13.5 -120h185v-500h-57v447h-128v-447h-57v447z" />
    <glyph glyph-name="f_f_l" unicode="ffl" horiz-adv-x="560" 
d="M248 447h-129v-447h-57v447h-49v53h49v28q0 94 22 136t73 42q39 0 68 -14l-13 -49q-19 10 -48 10q-31 0 -38 -34t-7 -119h129v28q0 95 27 139.5t90 44.5q75 0 120 -18v-588q0 -65 29 -65q19 0 40 11l2 -49q-18 -15 -60 -15q-68 0 -68 112v551q-26 8 -62 8
q-37 0 -49.5 -39.5t-12.5 -119.5h72v-53h-71v-447h-57v447z" />
    <glyph glyph-name=".notdef" horiz-adv-x="750" 
d="M50 0v700h650v-700h-650zM620 570l-50 50l-195 -217l-195 217l-50 -50l197 -220l-197 -220l50 -50l195 217l195 -217l50 50l-198 220zM129 63v-36h8v12h4q16 0 16 12t-17 12h-11zM137 57h4q8 0 8 -5q0 -6 -9 -6h-3v11zM189 57v6h-31v-6h12v-30h7v30h12zM222 37
q0 -4 -7 -4q-5 0 -9 2l-3 -7q8 -2 13 -2q14 0 14 12q0 7 -9 10t-9 6t6 3q3 0 9 -2l2 7q-8 2 -11 2q-14 0 -14 -11q0 -7 9 -10.5t9 -5.5zM235 52l2 -5q6 2 9 2q5 0 5 -4v-2l-1 1h-4q-12 0 -12 -10q0 -8 8 -8q6 0 9 5l2 -4h6q-1 1 -1 7v11q0 10 -10 10q-4 0 -13 -3zM245 32
q-4 0 -4 4t5 4h4l1 -1v-3q-1 -4 -6 -4zM284 27h8v16q0 12 -9 12q-7 0 -10 -5l-2 4h-5v-27h7v17q1 4 6 4t5 -6v-15zM299 34l-2 -6q6 -2 10 -2q11 0 11 9q0 5 -8 9q-5 2 -5 3q0 2 3 2q2 0 8 -2l2 6q-6 2 -10 2q-10 0 -10 -9q0 -5 8 -9q5 -2 5 -3q0 -2 -3 -2t-9 2zM338 42
q0 -21 20 -21t20 21q0 20 -20 20q-8 0 -14 -5.5t-6 -14.5zM344 42q0 15 14 15t14 -15t-14 -15t-14 15zM365 33l-1 5q-2 -1 -4 -1q-4 0 -4 5q0 4 4 4h3l2 4q-3 2 -7 2q-9 0 -9 -10q0 -11 9 -11q5 0 7 2zM399 63v-36h8v12h4q16 0 16 12t-17 12h-11zM407 57h4q8 0 8 -5
q0 -6 -9 -6h-3v11zM430 52l2 -5q6 2 9 2q5 0 5 -4v-2l-2 1h-3q-13 0 -13 -10q0 -8 9 -8q6 0 9 5l2 -4h6q-1 1 -1 7v11q0 10 -10 10q-4 0 -13 -3zM440 32q-4 0 -4 4t5 4h3l2 -1v-3q-1 -4 -6 -4zM477 47l1 7q-1 1 -4 1q-4 0 -6 -5h-1l-1 4h-6v-27h8v17q0 4 6 4zM482 52l1 -5
q8 2 9 2q5 0 5 -4v-2l-1 1h-4q-13 0 -13 -10q0 -8 9 -8q7 0 9 5h1l1 -4h6q-1 1 -1 7v11q0 10 -10 10q-3 0 -12 -3zM491 32q-4 0 -4 4t5 4h4l1 -1v-3q-1 -4 -6 -4zM533 57v6h-31v-6h12v-30h7v30h12zM547 39l-6 15h-8l12 -27q-2 -5 -5 -5l-1 1l-2 -6q1 -1 5 -1q6 0 10 13
l10 25h-8l-5 -15v-5h-1zM565 54v-38h8v12q2 -2 5 -2q14 0 14 15q0 14 -11 14q-5 0 -9 -4h-1l-1 3h-5zM579 49q5 0 5 -8q0 -9 -7 -9q-2 0 -4 2v10q0 5 6 5zM621 29l-3 5q-2 -2 -7 -2q-7 0 -7 6h18v6q0 11 -12 11q-14 0 -14 -15q0 -14 14 -14q5 0 11 3zM610 49q6 0 5 -6h-11
q0 6 6 6z" />
    <glyph glyph-name=".null" horiz-adv-x="0" 
 />
    <glyph glyph-name="nonmarkingreturn" horiz-adv-x="333" 
 />
    <glyph glyph-name="space" unicode=" " horiz-adv-x="172" 
 />
    <glyph glyph-name="exclam" unicode="!" horiz-adv-x="199" 
d="M83 349v351h59v-351l-12 -179h-35zM72 38q0 51 39 51q41 0 41 -51q0 -50 -41 -50q-39 0 -39 50z" />
    <glyph glyph-name="quotedbl" unicode="&#x22;" horiz-adv-x="235" 
d="M147 512v188h55l-21 -188h-34zM58 512v188h55l-21 -188h-34z" />
    <glyph glyph-name="numbersign" unicode="#" 
d="M169 60l26 170h-67l-26 -170h-48l26 170h-51l9 49h50l23 152h-50l10 49h48l25 160h48l-25 -160h67l25 160h49l-26 -160h51l-11 -49h-47l-24 -152h50l-12 -49h-46l-26 -170h-48zM159 431l-23 -152h67l23 152h-67z" />
    <glyph glyph-name="dollar" unicode="$" 
d="M165 -100v88q-68 1 -108 28l19 55q33 -25 89 -28v303q-25 22 -39.5 37.5t-32.5 41t-26 57.5t-8 71q0 60 27.5 102.5t78.5 53.5v91h48v-88q49 -2 92 -22l-19 -52q-34 18 -73 19v-275q28 -26 41.5 -40t33.5 -41.5t28.5 -59t8.5 -69.5q0 -69 -29.5 -117.5t-82.5 -61.5v-93
h-48zM268 168q0 79 -65 144v-266q29 10 47 42t18 80zM116 554q0 -73 59 -136v237q-30 -8 -44.5 -38t-14.5 -63z" />
    <glyph glyph-name="percent" unicode="%" horiz-adv-x="514" 
d="M44 542q0 170 102 170q49 0 76 -38t27 -132q0 -170 -103 -170q-102 0 -102 170zM94 542q0 -123 52 -123q26 0 39 25.5t13 97.5q0 70 -13 96.5t-39 26.5t-39 -26t-13 -97zM278 170q0 170 102 170q49 0 76 -38t27 -132q0 -170 -103 -170q-102 0 -102 170zM328 170
q0 -123 52 -123q26 0 39 25.5t13 97.5q0 70 -13 96.5t-39 26.5t-39 -26t-13 -97zM70 6l344 707l39 -19l-344 -706z" />
    <glyph glyph-name="ampersand" unicode="&#x26;" horiz-adv-x="531" 
d="M75 186q0 131 114 241q-44 103 -44 160q0 52 25 88.5t74 36.5q51 0 75 -31t24 -78q0 -89 -89 -181q53 -141 115 -244q25 44 47 148l47 -15q-8 -35 -27 -90.5t-34 -85.5q43 -70 84 -105l-39 -42q-37 29 -78 96q-62 -96 -143 -96q-66 0 -108.5 50t-42.5 148zM336 124
q-80 131 -123 259q-40 -48 -60.5 -91.5t-20.5 -105.5q0 -70 29 -107.5t73 -37.5q29 0 57 25t45 58zM202 588q0 -54 29 -124q57 62 57 125q0 70 -41 70q-45 0 -45 -71z" />
    <glyph glyph-name="quotesingle" unicode="'" horiz-adv-x="146" 
d="M58 512v188h55l-21 -188h-34z" />
    <glyph glyph-name="parenleft" unicode="(" horiz-adv-x="190" 
d="M185 -198l-37 -22q-56 90 -82.5 214.5t-26.5 248.5q0 122 26.5 247.5t83.5 221.5l37 -18q-90 -181 -90 -451q0 -110 22.5 -234.5t66.5 -206.5z" />
    <glyph glyph-name="parenright" unicode=")" horiz-adv-x="190" 
d="M4 694l38 18q57 -89 83 -213.5t26 -249.5q0 -123 -26.5 -248t-83.5 -221l-35 19q88 172 88 450q0 109 -23 236t-67 209z" />
    <glyph glyph-name="asterisk" unicode="*" horiz-adv-x="237" 
d="M51 666l36 21l16 -33l14 -47l13 47l18 32l36 -20l-19 -34l-32 -40l45 9h36v-43h-32l-45 10l32 -40l16 -31l-35 -21l-17 33l-16 49l-13 -48l-17 -31l-37 20l19 34l30 35l-40 -10h-36v43h36l42 -9l-31 37z" />
    <glyph glyph-name="plus" unicode="+" horiz-adv-x="339" 
d="M31 316v53h112v141h53v-141h112v-53h-112v-141h-53v141h-112z" />
    <glyph glyph-name="comma" unicode="," horiz-adv-x="150" 
d="M28 39q0 23 11.5 36.5t30.5 13.5q48 0 48 -83q0 -53 -23 -95t-50 -56l-21 26q20 14 34.5 46.5t14.5 62.5q-6 -2 -10 -2q-14 0 -24.5 14t-10.5 37z" />
    <glyph glyph-name="hyphen" unicode="-" horiz-adv-x="237" 
d="M39 257v53h159v-53h-159z" />
    <glyph glyph-name="period" unicode="." horiz-adv-x="144" 
d="M32 38q0 51 39 51q41 0 41 -51q0 -50 -41 -50q-39 0 -39 50z" />
    <glyph glyph-name="slash" unicode="/" horiz-adv-x="238" 
d="M-23 -126l239 838l44 -16l-237 -836z" />
    <glyph glyph-name="zero" unicode="0" 
d="M39 350q0 196 37 279t113 83q80 0 115.5 -82t35.5 -280q0 -197 -37 -279.5t-111 -82.5q-82 0 -117.5 81t-35.5 281zM96 350q0 -309 96 -309q48 0 69.5 73t21.5 236q0 158 -21.5 233.5t-72.5 75.5q-48 0 -70.5 -72.5t-22.5 -236.5z" />
    <glyph glyph-name="one" unicode="1" 
d="M89 0v53h91v510l7 57l-27 -45l-67 -64l-35 36l150 165h29v-659h88v-53h-236z" />
    <glyph glyph-name="two" unicode="2" 
d="M305 555q0 -105 -46 -238t-101 -224l-33 -44v-3l43 7h146v-53h-261v27q65 96 130 247.5t65 269.5q0 54 -21.5 84.5t-60.5 30.5q-42 0 -81 -28l-20 42q44 39 114 39q62 0 94 -43t32 -114z" />
    <glyph glyph-name="three" unicode="3" 
d="M164 41q43 0 71 46t28 115q0 151 -99 151h-49v20l98 238l31 42l-44 -6h-131v53h234v-20l-108 -250l-24 -29v-2l23 7q54 0 90 -50t36 -144q0 -104 -44.5 -164t-112.5 -60q-57 0 -95 20l15 54q30 -21 81 -21z" />
    <glyph glyph-name="four" unicode="4" 
d="M356 273v-53h-76v-220h-55v220h-200v24l214 468h41v-439h76zM225 273v242l11 88h-3l-26 -81l-92 -204l-32 -52l45 7h97z" />
    <glyph glyph-name="five" unicode="5" 
d="M145 41q49 0 78 46t29 125q0 160 -108 160l-54 -5v333h206v-57h-154v-220l28 2q65 0 102 -54t37 -153q0 -108 -45 -169t-114 -61q-55 0 -90 16l12 53q27 -16 73 -16z" />
    <glyph glyph-name="six" unicode="6" 
d="M335 210q0 -106 -37 -164t-104 -58q-144 0 -144 244q0 211 62 329.5t158 150.5l21 -46q-73 -30 -120.5 -113t-61.5 -206q11 29 37 47t64 18q58 0 91.5 -50t33.5 -152zM278 202q0 157 -87 157q-29 0 -52 -23.5t-32 -57.5q-2 -18 -2 -54q0 -76 23.5 -129.5t66.5 -53.5
q37 0 60 42.5t23 118.5z" />
    <glyph glyph-name="seven" unicode="7" 
d="M146 0h-57l167 604l29 49l-39 -10h-189v57h275v-24z" />
    <glyph glyph-name="eight" unicode="8" 
d="M55 156q0 126 90 207q-38 34 -59 73.5t-21 102.5q0 82 34 127.5t94 45.5q56 0 88.5 -41.5t32.5 -115.5q0 -105 -77 -191q42 -35 64.5 -77.5t22.5 -115.5q0 -84 -36.5 -133.5t-101.5 -49.5q-61 0 -96 46t-35 122zM267 167q0 62 -21.5 98.5t-63.5 72.5q-73 -69 -73 -172
q0 -56 21 -90.5t59 -34.5q35 0 56.5 30.5t21.5 95.5zM122 542q0 -52 20 -87t58 -68q60 80 60 153q0 58 -19.5 88.5t-48.5 30.5q-33 0 -51.5 -32.5t-18.5 -84.5z" />
    <glyph glyph-name="nine" unicode="9" 
d="M45 490q0 109 36 165.5t106 56.5q143 0 143 -250q0 -213 -59.5 -328.5t-161.5 -145.5l-19 47q157 62 180 305q-31 -52 -93 -52q-56 0 -94 52t-38 150zM102 498q0 -72 24 -114.5t63 -42.5q30 0 52.5 17.5t32.5 45.5q1 18 1 52q0 89 -23 146t-68 57q-37 0 -59.5 -44.5
t-22.5 -116.5z" />
    <glyph glyph-name="colon" unicode=":" horiz-adv-x="160" 
d="M65 450q0 51 39 51q41 0 41 -51q0 -50 -41 -50q-39 0 -39 50zM65 50q0 51 39 51q41 0 41 -51q0 -50 -41 -50q-39 0 -39 50z" />
    <glyph glyph-name="semicolon" unicode=";" horiz-adv-x="177" 
d="M67 39q0 23 11.5 36.5t30.5 13.5q48 0 48 -83q0 -53 -23 -95t-50 -56l-21 26q20 14 34.5 46.5t14.5 62.5q-6 -2 -10 -2q-14 0 -24.5 14t-10.5 37zM79 450q0 51 39 51q41 0 41 -51q0 -50 -41 -50q-39 0 -39 50z" />
    <glyph glyph-name="less" unicode="&#x3c;" horiz-adv-x="339" 
d="M274 98l-243 211v20l238 218l36 -42l-157 -147l-60 -38l59 -32l161 -146z" />
    <glyph glyph-name="equal" unicode="=" horiz-adv-x="339" 
d="M31 396v53h277v-53h-277zM31 236v53h277v-53h-277z" />
    <glyph glyph-name="greater" unicode="&#x3e;" horiz-adv-x="339" 
d="M68 547l239 -208v-20l-235 -217l-38 41l158 147l59 38l-58 32l-162 146z" />
    <glyph glyph-name="question" unicode="?" horiz-adv-x="291" 
d="M149 170h-46q0 4 -0.5 10.5t-0.5 9.5q0 51 17 99.5t38 81t38 82t17 101.5q0 105 -74 105q-44 0 -84 -32l-25 44q57 41 122 41q118 0 118 -151q0 -55 -18.5 -109t-41 -90.5t-41.5 -88t-19 -103.5zM90 38q0 51 39 51q41 0 41 -51q0 -50 -41 -50q-39 0 -39 50z" />
    <glyph glyph-name="at" unicode="@" horiz-adv-x="691" 
d="M437 466l20 27h25l-33 -297q-6 -60 -6 -83q0 -60 26 -60q46 0 81 74t35 199q0 131 -60 200t-167 69q-108 0 -180 -96.5t-72 -255.5q0 -166 68 -246t180 -80q53 0 92 21l14 -44q-49 -24 -114 -24q-125 0 -208 88.5t-83 277.5t88 297.5t217 108.5q127 0 201.5 -79.5
t74.5 -236.5q0 -144 -52.5 -235t-127.5 -91q-58 0 -58 72v13h-3q-20 -38 -48.5 -61.5t-59.5 -23.5q-39 0 -63 37t-24 106q0 163 49 260t122 97q37 0 66 -34zM395 160l25 252q-19 35 -50 35q-48 0 -81.5 -85t-33.5 -201q0 -108 50 -108q23 0 48 32.5t42 74.5z" />
    <glyph glyph-name="A" unicode="A" horiz-adv-x="382" 
d="M316 0l-47 206h-160l-46 -206h-59l171 712h31l172 -712h-62zM173 488l-49 -227h131l-50 229l-15 104h-2z" />
    <glyph glyph-name="B" unicode="B" horiz-adv-x="381" 
d="M332 541q0 -57 -21 -105.5t-65 -65.5v-4q100 -25 100 -166q0 -105 -46 -156.5t-125 -51.5q-83 0 -122 13v689q64 14 127 14q69 0 110.5 -35t41.5 -132zM180 47q47 0 76.5 39t29.5 106q0 79 -32 108t-86 29h-56v-274q19 -8 68 -8zM112 382h35q32 0 52 5q32 16 52.5 53
t20.5 86q0 127 -93 127q-49 0 -67 -6v-265z" />
    <glyph glyph-name="C" unicode="C" horiz-adv-x="370" 
d="M333 75l14 -50q-37 -37 -115 -37q-197 0 -197 362q0 189 54.5 275.5t143.5 86.5q63 0 109 -24l-16 -54q-37 23 -88 23q-64 0 -103.5 -73t-39.5 -234q0 -153 39 -230t112 -77q45 0 87 32z" />
    <glyph glyph-name="D" unicode="D" horiz-adv-x="425" 
d="M53 -1v701q51 8 120 8q120 0 168.5 -89.5t48.5 -262.5q0 -79 -10 -140.5t-34 -114.5t-69 -81.5t-110 -28.5q-76 0 -114 8zM175 653q-48 0 -63 -5v-598q18 -4 60 -4q45 0 77 23.5t49 67.5t24.5 97t7.5 122q0 64 -6 112.5t-22 93t-48 68t-79 23.5z" />
    <glyph glyph-name="E" unicode="E" horiz-adv-x="347" 
d="M53 0v700h251v-55h-192v-257h176v-55h-176v-278h195v-55h-254z" />
    <glyph glyph-name="F" unicode="F" horiz-adv-x="334" 
d="M53 0v700h251v-55h-192v-267h179v-55h-179v-323h-59z" />
    <glyph glyph-name="G" unicode="G" horiz-adv-x="397" 
d="M207 312v34h156v-308q-45 -50 -130 -50q-198 0 -198 362q0 185 56.5 273.5t145.5 88.5q69 0 110 -24l-14 -54q-35 23 -90 23q-65 0 -106.5 -73.5t-41.5 -233.5q0 -307 147 -307q42 0 70 25v224z" />
    <glyph glyph-name="H" unicode="H" horiz-adv-x="435" 
d="M323 0v332h-211v-332h-59v700h59v-313h211v313h59v-700h-59z" />
    <glyph glyph-name="I" unicode="I" horiz-adv-x="187" 
d="M64 0v700h59v-700h-59z" />
    <glyph glyph-name="J" unicode="J" horiz-adv-x="194" 
d="M75 159v541h59v-549q0 -85 -20 -122.5t-76 -37.5q-39 0 -61 14l14 52q17 -11 39 -11q29 0 37 26t8 87z" />
    <glyph glyph-name="K" unicode="K" horiz-adv-x="398" 
d="M304 0l-162 329h-30v-329h-59v700h59v-329l28 14l149 315h68l-149 -303l-28 -32l33 -40l165 -325h-74z" />
    <glyph glyph-name="L" unicode="L" horiz-adv-x="336" 
d="M325 55v-55h-272v700h59v-645h213z" />
    <glyph glyph-name="M" unicode="M" horiz-adv-x="515" 
d="M403 0v473l9 102h-4l-27 -97l-113 -307h-21l-120 307l-26 97h-4l13 -102v-473h-57v700h53l134 -343l20 -83h1l19 84l128 342h54v-700h-59z" />
    <glyph glyph-name="N" unicode="N" horiz-adv-x="436" 
d="M347 -12l-212 468l-33 115h-2l10 -115v-456h-57v712h36l212 -467l32 -109h3l-10 109v455h57v-712h-36z" />
    <glyph glyph-name="O" unicode="O" horiz-adv-x="443" 
d="M35 350q0 182 44.5 272t141.5 90q102 0 144.5 -91.5t42.5 -270.5q0 -183 -44.5 -272.5t-142.5 -89.5q-101 0 -143.5 92t-42.5 270zM95 350q0 -85 11.5 -151.5t41 -111t73.5 -44.5q127 0 127 307q0 134 -30.5 220.5t-96.5 86.5q-126 0 -126 -307z" />
    <glyph glyph-name="P" unicode="P" horiz-adv-x="365" 
d="M53 0v692q48 16 112 16q77 0 126.5 -48t49.5 -164q0 -117 -50 -172.5t-127 -55.5q-40 0 -52 4v-272h-59zM167 653q-39 0 -55 -5v-320q11 -5 49 -5q120 0 120 174q0 156 -114 156z" />
    <glyph glyph-name="Q" unicode="Q" horiz-adv-x="443" 
d="M458 -101v-55q-26 -11 -62 -11q-46 0 -123 32.5t-106 32.5q-17 0 -30 -6v55q19 6 38 6q33 0 106.5 -32.5t118.5 -32.5q25 0 58 11zM35 350q0 182 44.5 272t141.5 90q102 0 144.5 -91.5t42.5 -270.5q0 -183 -44.5 -272.5t-142.5 -89.5q-101 0 -143.5 92t-42.5 270zM95 350
q0 -85 11.5 -151.5t41 -111t73.5 -44.5q127 0 127 307q0 134 -30.5 220.5t-96.5 86.5q-126 0 -126 -307z" />
    <glyph glyph-name="R" unicode="R" horiz-adv-x="387" 
d="M53 0v693q57 15 115 15q156 0 156 -191q0 -162 -103 -194l31 -41l112 -282h-67l-124 314l-61 16v-330h-59zM172 653q-42 0 -60 -6v-278h49q103 0 103 147q0 61 -23.5 99t-68.5 38z" />
    <glyph glyph-name="S" unicode="S" horiz-adv-x="345" 
d="M257 163q0 43 -22.5 83t-54.5 73t-63.5 67t-54 79.5t-22.5 95.5q0 77 41 114t108 37q73 0 119 -31l-19 -54q-38 30 -101 30q-45 0 -67 -25.5t-22 -68.5q0 -37 22.5 -73.5t54.5 -69.5t63.5 -68.5t54 -83.5t22.5 -102q0 -84 -43 -131t-123 -47t-124 35l21 57
q41 -37 105 -37q50 0 77.5 30.5t27.5 89.5z" />
    <glyph glyph-name="T" unicode="T" horiz-adv-x="363" 
d="M351 700v-55h-140v-645h-59v645h-140v55h339z" />
    <glyph glyph-name="U" unicode="U" horiz-adv-x="418" 
d="M311 252v448h57v-474q0 -123 -37.5 -178.5t-116.5 -55.5q-88 0 -126 52t-38 166v490h59v-448q0 -114 22.5 -159.5t83.5 -45.5q56 0 76 46.5t20 158.5z" />
    <glyph glyph-name="V" unicode="V" horiz-adv-x="374" 
d="M64 700l111 -492l15 -104h1l17 106l107 490h60l-172 -712h-30l-174 712h65z" />
    <glyph glyph-name="W" unicode="W" horiz-adv-x="542" 
d="M69 700l76 -476l11 -116h1l10 118l90 474h37l90 -475l9 -117h1l12 118l72 474h59l-126 -712h-38l-89 471l-10 107h-3l-11 -108l-90 -470h-37l-129 712h65z" />
    <glyph glyph-name="X" unicode="X" horiz-adv-x="404" 
d="M16 0l149 356l-136 344h70l89 -245l17 -56l16 56l95 245h64l-141 -337l148 -363h-68l-99 259l-19 59l-18 -59l-102 -259h-65z" />
    <glyph glyph-name="Y" unicode="Y" horiz-adv-x="367" 
d="M155 0v282l-150 418h68l103 -312l10 -58h2l11 60l100 310h63l-148 -417v-283h-59z" />
    <glyph glyph-name="Z" unicode="Z" horiz-adv-x="357" 
d="M25 0v55l228 550l25 40h-253v55h307v-55l-229 -553l-25 -37h254v-55h-307z" />
    <glyph glyph-name="bracketleft" unicode="[" horiz-adv-x="201" 
d="M53 -230v930h124v-53h-67v-824h67v-53h-124z" />
    <glyph glyph-name="backslash" unicode="\" horiz-adv-x="257" 
d="M26 712l241 -836l-48 -16l-242 836z" />
    <glyph glyph-name="bracketright" unicode="]" horiz-adv-x="201" 
d="M148 700v-930h-124v53h67v824h-67v53h124z" />
    <glyph glyph-name="asciicircum" unicode="^" horiz-adv-x="339" 
d="M38 440l122 272h23l111 -272h-58l-50 138l-15 68l-20 -69l-59 -137h-54z" />
    <glyph glyph-name="underscore" unicode="_" horiz-adv-x="269" 
d="M0 -201v53h269v-53h-269z" />
    <glyph glyph-name="grave" unicode="`" horiz-adv-x="228" 
d="M126 720l42 -148h-32l-76 129v19h66z" />
    <glyph glyph-name="a" unicode="a" horiz-adv-x="322" 
d="M66 429l-21 45q52 34 126 34q62 0 83.5 -39t21.5 -111q0 -42 -2 -118t-2 -108q0 -88 10 -134h-43l-14 49h-3q-28 -53 -97 -53q-46 0 -73.5 37.5t-27.5 101.5q0 150 162 150q22 0 33 -1q2 44 2 58q0 63 -14 89t-50 26q-50 0 -91 -26zM140 47q56 0 79 56v129q-22 2 -33 2
q-103 0 -103 -96q0 -44 15.5 -67.5t41.5 -23.5z" />
    <glyph glyph-name="b" unicode="b" horiz-adv-x="351" 
d="M48 25v675h55v-230h4q36 42 89 42q125 0 125 -255q0 -132 -41.5 -198.5t-118.5 -66.5q-76 0 -113 33zM180 459q-56 0 -77 -64v-337q22 -13 66 -13t68.5 54.5t24.5 159.5q0 200 -82 200z" />
    <glyph glyph-name="c" unicode="c" horiz-adv-x="284" 
d="M254 65l17 -46q-40 -31 -98 -31q-143 0 -143 262q0 126 37 194t105 68q59 0 93 -22l-16 -49q-32 18 -71 18q-89 0 -89 -209t98 -209q39 0 67 24z" />
    <glyph glyph-name="d" unicode="d" horiz-adv-x="349" 
d="M302 700v-529q0 -123 6 -173h-39l-13 51h-2q-11 -26 -36 -43.5t-57 -17.5q-131 0 -131 262q0 124 39 191t108 67q39 0 68 -14v206h57zM170 41q56 0 75 74v319q-20 21 -64 21q-43 0 -67.5 -52.5t-24.5 -152.5q0 -209 81 -209z" />
    <glyph glyph-name="e" unicode="e" horiz-adv-x="330" 
d="M268 72l21 -44q-40 -40 -110 -40q-75 0 -112 69.5t-37 192.5q0 126 38 194t107 68q124 0 125 -182q0 -41 -4 -82h-207q2 -207 105 -207q45 0 74 31zM175 459q-77 0 -84 -158h154v15q0 70 -19 106.5t-51 36.5z" />
    <glyph glyph-name="f" unicode="f" horiz-adv-x="208" 
d="M13 447v53h50v28q0 94 21.5 136t72.5 42q44 0 73 -15l-16 -49q-22 11 -50 11q-29 0 -36.5 -30t-7.5 -123h84v-53h-84v-447h-57v447h-50z" />
    <glyph glyph-name="g" unicode="g" horiz-adv-x="349" 
d="M301 478v-506q0 -184 -135 -184q-71 0 -111 28l20 50q44 -25 86 -25q46 0 65 35.5t19 123.5v31h-2q-28 -43 -86 -43q-127 0 -127 262q0 126 40 192t118 66q64 0 113 -30zM171 41q56 0 73 67v332q-22 15 -60 15q-44 0 -69.5 -51t-25.5 -154q0 -94 20 -151.5t62 -57.5z" />
    <glyph glyph-name="h" unicode="h" horiz-adv-x="355" 
d="M313 0h-57v319q0 72 -14.5 106t-53.5 34q-28 0 -50.5 -22t-32.5 -56v-381h-57v700h57v-240h2q39 52 100 52q55 0 80.5 -39.5t25.5 -134.5v-338z" />
    <glyph glyph-name="i" unicode="i" horiz-adv-x="175" 
d="M58 0v500h57v-500h-57zM48 655q0 23 10.5 35.5t28.5 12.5t29 -12t11 -36q0 -46 -40 -46q-39 0 -39 46z" />
    <glyph glyph-name="j" unicode="j" horiz-adv-x="174" 
d="M59 0v500h57v-528q0 -95 -23 -140t-73 -45q-10 0 -16 1v52q34 0 44.5 37t10.5 123zM48 655q0 23 10.5 35.5t28.5 12.5t29 -12t11 -36q0 -46 -40 -46q-39 0 -39 46z" />
    <glyph glyph-name="k" unicode="k" horiz-adv-x="312" 
d="M239 0l-104 229h-30v-229h-57v700h57v-429l27 14l96 215h65l-96 -203l-28 -32l33 -40l105 -225h-68z" />
    <glyph glyph-name="l" unicode="l" horiz-adv-x="188" 
d="M110 700v-594q0 -62 29 -62q21 0 39 9l6 -46q-21 -16 -63 -16q-68 0 -68 100v609h57z" />
    <glyph glyph-name="m" unicode="m" horiz-adv-x="527" 
d="M295 0h-57v309q0 86 -11.5 118t-47.5 32q-26 0 -46 -25t-28 -60v-374h-57v500h40l11 -46h2q34 58 100 58q32 0 50.5 -15t30.5 -53q14 31 42.5 49.5t59.5 18.5q55 0 78 -36t23 -128v-348h-57v334q0 67 -12 96t-46 29q-58 0 -75 -77v-382z" />
    <glyph glyph-name="n" unicode="n" horiz-adv-x="355" 
d="M313 0h-57v320q0 77 -14.5 108t-51.5 31q-58 0 -85 -75v-384h-57v500h41l10 -46h2q41 58 104 58q56 0 82 -38.5t26 -135.5v-338z" />
    <glyph glyph-name="o" unicode="o" horiz-adv-x="348" 
d="M30 250q0 137 36.5 199.5t107.5 62.5q75 0 109.5 -61t34.5 -201q0 -139 -36 -200.5t-108 -61.5q-75 0 -109.5 61t-34.5 201zM89 250q0 -209 85 -209q44 0 64.5 49t20.5 160q0 209 -85 209t-85 -209z" />
    <glyph glyph-name="p" unicode="p" horiz-adv-x="352" 
d="M48 -200v700h40l9 -48h3q30 60 94 60q65 0 96.5 -60t31.5 -192q0 -125 -40.5 -198.5t-109.5 -73.5q-39 0 -67 16v-204h-57zM182 459q-56 0 -77 -81v-311q26 -26 64 -26q43 0 68.5 59t25.5 160q0 199 -81 199z" />
    <glyph glyph-name="q" unicode="q" horiz-adv-x="349" 
d="M301 477v-677h-57v236h-2q-28 -48 -85 -48q-127 0 -127 262q0 127 41 192.5t119 65.5q67 0 111 -31zM169 41q57 0 75 77v320q-21 17 -64 17t-67 -52.5t-24 -152.5q0 -93 19.5 -151t60.5 -58z" />
    <glyph glyph-name="r" unicode="r" horiz-adv-x="220" 
d="M216 500l-11 -60q-21 9 -38 9q-49 0 -62 -58v-391h-57v500h40l11 -46h2q24 54 74 54q17 0 41 -8z" />
    <glyph glyph-name="s" unicode="s" horiz-adv-x="272" 
d="M189 110q0 37 -16 66.5t-38.5 50t-45.5 42t-39 53.5t-16 74q0 55 29.5 85.5t80.5 30.5q61 0 95 -24l-16 -50q-34 21 -72 21q-60 0 -60 -62q0 -29 16 -54t38.5 -45.5t45.5 -44t39 -60t16 -82.5q0 -51 -32.5 -87t-90.5 -36q-60 0 -99 25l17 53q39 -25 80 -25q29 0 48.5 18
t19.5 51z" />
    <glyph glyph-name="t" unicode="t" horiz-adv-x="221" 
d="M8 447v53h50v100l57 20v-120h87v-53h-87v-329q0 -74 36 -74q26 0 53 11l12 -45q-35 -19 -84 -19q-39 0 -56.5 30t-17.5 95v331h-50z" />
    <glyph glyph-name="u" unicode="u" horiz-adv-x="350" 
d="M43 500h57v-326q0 -74 12.5 -103.5t41.5 -29.5q32 0 55.5 29t35.5 69v361h57v-360q0 -89 8 -140h-41l-14 64h-2q-15 -32 -42 -54t-63 -22q-55 0 -80 35.5t-25 135.5v341z" />
    <glyph glyph-name="v" unicode="v" horiz-adv-x="311" 
d="M66 500l78 -300l16 -106h2l16 108l73 298h58l-139 -512h-26l-141 512h63z" />
    <glyph glyph-name="w" unicode="w" horiz-adv-x="476" 
d="M221 500h42l72 -300l15 -99h2l12 101l57 298h52l-108 -512h-31l-84 337l-10 90h-2l-10 -91l-81 -336h-32l-111 512h58l65 -300l11 -99h1l15 101z" />
    <glyph glyph-name="x" unicode="x" horiz-adv-x="327" 
d="M15 0l116 256l-108 244h66l62 -152l15 -54l16 54l63 152h60l-108 -240l115 -260h-61l-72 166l-16 57l-17 -57l-71 -166h-60z" />
    <glyph glyph-name="y" unicode="y" horiz-adv-x="302" 
d="M68 500l79 -333l18 -100h3l13 101l63 332h56l-96 -449q-14 -68 -23.5 -105.5t-24 -77t-31.5 -56.5t-39 -17t-37 8l9 57q8 -2 13 -2q23 0 38.5 32t26.5 110l-131 500h63z" />
    <glyph glyph-name="z" unicode="z" horiz-adv-x="289" 
d="M26 0v53l155 351l28 43h-183v53h235v-53l-157 -354l-27 -40h184v-53h-235z" />
    <glyph glyph-name="braceleft" unicode="{" horiz-adv-x="227" 
d="M86 -136v255q0 49 -12.5 69t-39.5 20v53q52 0 52 85v260q0 95 63 95h60v-53h-32q-20 0 -27 -11t-7 -43v-259q0 -85 -46 -95v-6q21 -4 33.5 -31t12.5 -68v-258q0 -31 7 -42.5t28 -11.5h31v-53h-60q-63 0 -63 94z" />
    <glyph glyph-name="bar" unicode="|" horiz-adv-x="154" 
d="M53 -130v830h48v-830h-48z" />
    <glyph glyph-name="braceright" unicode="}" horiz-adv-x="227" 
d="M150 607v-256q0 -49 13 -69t39 -20v-53q-52 0 -52 -85v-259q0 -95 -63 -95h-60v53h33q20 0 26.5 11t6.5 43v259q0 85 46 95v6q-20 4 -33 31t-13 68v258q0 31 -6.5 42.5t-27.5 11.5h-32v53h61q32 0 47 -22.5t15 -71.5z" />
    <glyph glyph-name="asciitilde" unicode="~" horiz-adv-x="339" 
d="M48 308l-31 49q53 58 99 58q28 0 68 -27t57 -27q24 0 49 33l32 -49q-48 -48 -87 -48q-26 1 -64 27.5t-58 26.5q-31 0 -65 -43z" />
    <glyph glyph-name="uni00A0" unicode="&#xa0;" horiz-adv-x="172" 
 />
    <glyph glyph-name="exclamdown" unicode="&#xa1;" horiz-adv-x="199" 
d="M116 151v-351h-59v351l12 179h35zM45 454q0 51 39 51q41 0 41 -51q0 -50 -41 -50q-39 0 -39 50z" />
    <glyph glyph-name="cent" unicode="&#xa2;" 
d="M302 68l16 -46q-30 -27 -76 -34v-88h-51v90q-119 23 -119 260q0 114 30.5 180.5t88.5 78.5v91h51v-89q46 -5 70 -21l-16 -51q-24 14 -58 19v-417q37 4 64 27zM131 250q0 -176 68 -204v409q-68 -22 -68 -205z" />
    <glyph glyph-name="sterling" unicode="&#xa3;" 
d="M46 326v53h44q-19 76 -19 148q0 185 136 185q70 0 116 -24l-20 -48q-36 19 -95 19q-78 0 -78 -137q0 -66 22 -143h103v-53h-89q18 -67 18 -125q0 -74 -28 -121l-37 -35v-4l55 12h164v-53h-292v53q37 0 58 44t21 99q0 61 -20 130h-59z" />
    <glyph glyph-name="currency" unicode="&#xa4;" 
d="M-4 528l33 33l61 -61l18 -27q34 26 81 26q45 0 81 -26l18 27l62 61l33 -33l-61 -62l-27 -18q26 -34 26 -81q0 -49 -26 -81l27 -18l61 -61l-33 -34l-62 61l-17 26q-38 -25 -82 -25q-47 0 -81 25l-18 -26l-61 -61l-33 34l60 61l26 18q-25 34 -25 81q0 44 25 82l-26 17z
M105 367q0 -37 24 -62t60 -25t60 25t24 62t-24 62t-60 25t-60 -25t-24 -62z" />
    <glyph glyph-name="yen" unicode="&#xa5;" 
d="M80 270v53h66l-135 377h68l103 -312l10 -57h2l11 59l100 310h63l-134 -377h65v-53h-79v-67h79v-53h-79v-150h-59v150h-81v53h81v67h-81z" />
    <glyph glyph-name="brokenbar" unicode="&#xa6;" horiz-adv-x="154" 
d="M53 0v275h48v-275h-48zM101 700v-275h-48v275h48z" />
    <glyph glyph-name="section" unicode="&#xa7;" horiz-adv-x="326" 
d="M37 353q0 70 43 116l30 16q-24 22 -36.5 45.5t-12.5 63.5q0 52 29 85t82 33q58 0 96 -24l-14 -50q-44 21 -79 21q-28 0 -42.5 -18t-14.5 -45q0 -30 17.5 -52t43 -37.5t50.5 -33.5t42.5 -49.5t17.5 -76.5q0 -76 -41 -123l-29 -14q47 -43 47 -104q0 -56 -31.5 -87
t-85.5 -31q-60 0 -92 24l16 51q31 -22 72 -22q64 0 64 67q0 27 -17.5 47.5t-43 36t-51 33.5t-43 50.5t-17.5 77.5zM232 345q0 30 -14.5 52.5t-28 32t-46.5 28.5q-49 -32 -49 -103q0 -41 24 -66.5t68 -51.5q20 15 33 44.5t13 63.5z" />
    <glyph glyph-name="dieresis" unicode="&#xa8;" horiz-adv-x="315" 
d="M60 654q0 20 9.5 31.5t24.5 11.5t24.5 -11.5t9.5 -31.5q0 -19 -9.5 -30.5t-24.5 -11.5t-24.5 11.5t-9.5 30.5zM187 654q0 20 9.5 31.5t25.5 11.5q33 0 33 -43q0 -19 -9 -30.5t-24 -11.5q-16 0 -25.5 11.5t-9.5 30.5z" />
    <glyph glyph-name="copyright" unicode="&#xa9;" horiz-adv-x="601" 
d="M49 293q0 116 72.5 184t179.5 68t179.5 -68.5t72.5 -183.5q0 -116 -72.5 -184t-179.5 -68q-116 0 -184 66.5t-68 185.5zM97 293q0 -99 57.5 -154t146.5 -55q88 0 146 55t58 154q0 98 -58 153.5t-146 55.5q-89 0 -146.5 -55.5t-57.5 -153.5zM371 221l13 -46
q-33 -19 -83 -19q-57 0 -88 36.5t-31 100.5q0 65 32 101t87 36q29 0 79 -19l-17 -47q-31 15 -58 15q-66 0 -66 -86t72 -86q35 0 60 14z" />
    <glyph glyph-name="ordfeminine" unicode="&#xaa;" horiz-adv-x="255" 
d="M58 644l-16 41q42 23 104 23q42 0 58 -24.5t16 -74.5q0 -27 -1 -73t-1 -65q0 -60 6 -91h-39l-9 39h-3q-20 -43 -64 -43q-37 0 -58.5 25t-21.5 69q0 111 124 111q3 0 9 -0.5t9 -0.5q0 4 0.5 12t0.5 11q0 31 -8.5 44.5t-30.5 13.5q-39 0 -75 -17zM117 423q38 0 54 39v72
q-7 1 -22 1q-71 0 -71 -61q0 -22 10.5 -36.5t28.5 -14.5z" />
    <glyph glyph-name="guillemotleft" unicode="&#xab;" horiz-adv-x="313" 
d="M251 38l-107 221l103 230l41 -23l-70 -165l-30 -41l30 -36l75 -161zM132 38l-107 221l104 230l42 -23l-71 -165l-32 -41l32 -36l76 -161z" />
    <glyph glyph-name="logicalnot" unicode="&#xac;" horiz-adv-x="339" 
d="M31 330v53h277v-180h-53v127h-224z" />
    <glyph glyph-name="uni00AD" unicode="&#xad;" horiz-adv-x="234" 
d="M37 256v64h160v-64h-160z" />
    <glyph glyph-name="registered" unicode="&#xae;" horiz-adv-x="505" 
d="M65 521q0 88 53.5 137.5t134.5 49.5q82 0 134.5 -49.5t52.5 -137.5t-53.5 -138t-133.5 -50q-82 0 -135 49.5t-53 138.5zM106 521q0 -73 41.5 -111.5t105.5 -38.5q66 0 106 38t40 112q0 73 -41 111t-105 38q-67 0 -107 -37.5t-40 -111.5zM178 428v187q35 7 73 7
q73 0 73 -57q0 -22 -14.5 -34.5t-36.5 -14.5l20 -9l55 -79h-44l-53 75l-35 11v-86h-38zM242 589q-20 0 -26 -3v-51h24q43 0 43 29q0 25 -41 25z" />
    <glyph glyph-name="macron" unicode="&#xaf;" horiz-adv-x="315" 
d="M60 588v52h195v-52h-195z" />
    <glyph glyph-name="macron" unicode="&#x2c9;" horiz-adv-x="315" 
d="M60 588v52h195v-52h-195z" />
    <glyph glyph-name="degree" unicode="&#xb0;" horiz-adv-x="274" 
d="M47 576q0 62 25 99t69 37q45 0 69.5 -35.5t24.5 -100.5t-24.5 -100.5t-69.5 -35.5q-46 0 -70 35.5t-24 100.5zM91 576q0 -42 13 -68t37 -26q23 0 36.5 26t13.5 68t-13.5 68t-36.5 26q-24 0 -37 -26t-13 -68z" />
    <glyph glyph-name="plusminus" unicode="&#xb1;" horiz-adv-x="339" 
d="M31 388v53h112v141h53v-141h112v-53h-112v-97h-53v97h-112zM31 190v53h277v-53h-277z" />
    <glyph glyph-name="twosuperior" unicode="&#xb2;" horiz-adv-x="275" 
d="M219 701q0 -108 -89 -253l-30 -34v-1l37 15h95v-48h-192v24q47 57 88 140t41 150q0 30 -12 47.5t-31 17.5q-39 0 -63 -21l-16 42q30 27 87 27q85 0 85 -106z" />
    <glyph glyph-name="threesuperior" unicode="&#xb3;" horiz-adv-x="275" 
d="M118 421q63 0 63 85q0 77 -62 77h-35v19l65 130l23 27l-33 -7h-87v48h169v-26l-68 -134l-17 -17v-2l18 3q36 0 56.5 -31.5t20.5 -85.5q0 -59 -30 -96.5t-78 -37.5q-41 0 -72 17l11 46q23 -15 56 -15z" />
    <glyph glyph-name="acute" unicode="&#xb4;" horiz-adv-x="220" 
d="M60 572l38 148h62v-19l-66 -129h-34z" />
    <glyph glyph-name="mu" unicode="&#xb5;" horiz-adv-x="365" 
d="M45 500h57v-320q0 -139 72 -139q65 0 89 77v382h57v-337q0 -105 9 -163h-39l-19 53h-2q-12 -30 -38.5 -47.5t-61.5 -17.5q-49 0 -78 43h-4l14 -98v-133h-56v700z" />
    <glyph glyph-name="mu" unicode="&#x3bc;" horiz-adv-x="365" 
d="M45 500h57v-320q0 -139 72 -139q65 0 89 77v382h57v-337q0 -105 9 -163h-39l-19 53h-2q-12 -30 -38.5 -47.5t-61.5 -17.5q-49 0 -78 43h-4l14 -98v-133h-56v700z" />
    <glyph glyph-name="paragraph" unicode="&#xb6;" horiz-adv-x="326" 
d="M224 -130v830h49v-830h-49zM119 -130v444q-44 0 -70 55.5t-26 138.5t30 137.5t82 54.5h33v-830h-49z" />
    <glyph glyph-name="periodcentered" unicode="&#xb7;" horiz-adv-x="171" 
d="M46 288q0 51 39 51q41 0 41 -51q0 -50 -41 -50q-39 0 -39 50z" />
    <glyph glyph-name="cedilla" unicode="&#xb8;" horiz-adv-x="233" 
d="M137 0l-16 -43q52 -16 52 -75q0 -39 -23.5 -64t-61.5 -25q-13 0 -28 3l6 37q5 -1 13 -1q42 0 42 41q0 29 -56 38l32 89h40z" />
    <glyph glyph-name="onesuperior" unicode="&#xb9;" horiz-adv-x="275" 
d="M56 380v48h68v276l5 34l-18 -27l-48 -37l-22 30l101 103h32v-379h61v-48h-179z" />
    <glyph glyph-name="ordmasculine" unicode="&#xba;" horiz-adv-x="260" 
d="M28 542q0 170 102 170q49 0 76 -38t27 -132q0 -170 -103 -170q-102 0 -102 170zM78 542q0 -123 52 -123q26 0 39 25.5t13 97.5q0 70 -13 96.5t-39 26.5t-39 -26t-13 -97z" />
    <glyph glyph-name="guillemotright" unicode="&#xbb;" horiz-adv-x="313" 
d="M62 489l107 -221l-103 -230l-42 21l71 167l30 41l-30 36l-75 163zM180 489l108 -221l-104 -230l-43 21l72 167l31 41l-31 36l-76 163z" />
    <glyph glyph-name="onequarter" unicode="&#xbc;" horiz-adv-x="548" 
d="M93 8l316 705l40 -19l-315 -706zM509 147v-47h-52v-100h-50v100h-133v25l146 302h37v-280h52zM407 147v132l6 55h-4l-14 -53l-48 -107l-22 -31l33 4h49zM114 280v326l5 34l-18 -30l-47 -37l-22 34l101 100h31v-427h-50z" />
    <glyph glyph-name="onehalf" unicode="&#xbd;" horiz-adv-x="572" 
d="M93 8l316 705l40 -19l-315 -706zM520 321q0 -108 -89 -253l-30 -34v-1l37 15h95v-48h-192v24q47 57 88 140t41 150q0 30 -12 47.5t-31 17.5q-39 0 -63 -21l-16 42q30 27 87 27q85 0 85 -106zM114 280v326l5 34l-18 -30l-47 -37l-22 34l101 100h31v-427h-50z" />
    <glyph glyph-name="threequarters" unicode="&#xbe;" horiz-adv-x="569" 
d="M116 8l316 705l40 -19l-315 -706zM530 147v-47h-52v-100h-50v100h-133v25l146 302h37v-280h52zM428 147v132l6 55h-4l-14 -53l-48 -107l-22 -31l33 4h49zM106 321q63 0 63 85q0 77 -62 77h-35v19l65 130l23 27l-33 -7h-87v48h169v-26l-68 -134l-17 -17v-2l18 3
q36 0 56.5 -31.5t20.5 -85.5q0 -59 -30 -96.5t-78 -37.5q-41 0 -72 17l11 46q23 -15 56 -15z" />
    <glyph glyph-name="questiondown" unicode="&#xbf;" horiz-adv-x="292" 
d="M142 330h47q0 -4 0.5 -11.5t0.5 -10.5q0 -56 -17 -105.5t-37 -81t-37 -76t-17 -91.5q0 -49 18.5 -81t57.5 -32q52 0 88 31l17 -47q-43 -37 -115 -37q-61 0 -93.5 44.5t-32.5 111.5q0 57 19 108.5t41 85.5t41 85t19 107zM124 454q0 51 39 51q41 0 41 -51q0 -50 -41 -50
q-39 0 -39 50z" />
    <glyph glyph-name="Agrave" unicode="&#xc0;" horiz-adv-x="382" 
d="M316 0l-47 206h-160l-46 -206h-59l171 712h31l172 -712h-62zM173 488l-49 -227h131l-50 229l-15 104h-2zM131 870l76 -118h-51l-103 99v19h78z" />
    <glyph glyph-name="Aacute" unicode="&#xc1;" horiz-adv-x="382" 
d="M316 0l-47 206h-160l-46 -206h-59l171 712h31l172 -712h-62zM173 488l-49 -227h131l-50 229l-15 104h-2zM174 752l75 118h79v-19l-105 -99h-49z" />
    <glyph glyph-name="Acircumflex" unicode="&#xc2;" horiz-adv-x="382" 
d="M316 0l-47 206h-160l-46 -206h-59l171 712h31l172 -712h-62zM173 488l-49 -227h131l-50 229l-15 104h-2zM88 767l86 103h36l82 -104v-17h-51l-38 51l-12 35l-12 -34l-42 -52h-49v18z" />
    <glyph glyph-name="Atilde" unicode="&#xc3;" horiz-adv-x="382" 
d="M316 0l-47 206h-160l-46 -206h-59l171 712h31l172 -712h-62zM173 488l-49 -227h131l-50 229l-15 104h-2zM102 748l-24 24q45 60 85 60q17 0 44 -15t39 -15q19 0 36 21l25 -27q-37 -51 -71 -51q-16 0 -44 15.5t-42 15.5q-21 0 -48 -28z" />
    <glyph glyph-name="Adieresis" unicode="&#xc4;" horiz-adv-x="382" 
d="M316 0l-47 206h-160l-46 -206h-59l171 712h31l172 -712h-62zM173 488l-49 -227h131l-50 229l-15 104h-2zM91 793q0 20 10.5 32.5t27.5 12.5q16 0 26 -12.5t10 -32.5t-10 -32t-26 -12q-17 0 -27.5 12t-10.5 32zM218 793q0 20 10 32.5t27 12.5t27 -12.5t10 -32.5t-10.5 -32
t-26.5 -12t-26.5 12t-10.5 32z" />
    <glyph glyph-name="Aring" unicode="&#xc5;" horiz-adv-x="382" 
d="M118 767q0 38 18.5 61t54.5 23q35 0 54.5 -21.5t19.5 -62.5q0 -66 -53 -80l166 -687h-62l-47 206h-160l-46 -206h-59l165 687q-51 14 -51 80zM173 488l-49 -227h131l-50 229l-15 104h-2zM163 767q0 -45 28 -45q29 0 29 45q0 47 -29 47q-28 0 -28 -47z" />
    <glyph glyph-name="AE" unicode="&#xc6;" horiz-adv-x="551" 
d="M257 595h-2l-21 -95l-88 -239h111v334zM257 0v206h-133l-76 -206h-62l270 700h252v-55h-192v-257h175v-55h-175v-278h195v-55h-254z" />
    <glyph glyph-name="Ccedilla" unicode="&#xc7;" horiz-adv-x="370" 
d="M333 75l14 -50q-32 -32 -93 -37l-12 -31q52 -16 52 -75q0 -39 -23.5 -64t-61.5 -25q-13 0 -28 3l6 37q5 -1 13 -1q42 0 42 41q0 29 -56 38l28 77q-179 16 -179 362q0 189 54.5 275.5t143.5 86.5q63 0 109 -24l-16 -54q-37 23 -88 23q-64 0 -103.5 -73t-39.5 -234
q0 -153 39 -230t112 -77q45 0 87 32z" />
    <glyph glyph-name="Egrave" unicode="&#xc8;" horiz-adv-x="347" 
d="M53 0v700h251v-55h-192v-257h176v-55h-176v-278h195v-55h-254zM140 870l76 -118h-51l-103 99v19h78z" />
    <glyph glyph-name="Eacute" unicode="&#xc9;" horiz-adv-x="347" 
d="M53 0v700h251v-55h-192v-257h176v-55h-176v-278h195v-55h-254zM132 752l75 118h79v-19l-105 -99h-49z" />
    <glyph glyph-name="Ecircumflex" unicode="&#xca;" horiz-adv-x="347" 
d="M53 0v700h251v-55h-192v-257h176v-55h-176v-278h195v-55h-254zM73 767l86 103h36l82 -104v-17h-51l-38 51l-12 35l-12 -34l-42 -52h-49v18z" />
    <glyph glyph-name="Edieresis" unicode="&#xcb;" horiz-adv-x="347" 
d="M53 0v700h251v-55h-192v-257h176v-55h-176v-278h195v-55h-254zM76 793q0 20 10.5 32.5t27.5 12.5q16 0 26 -12.5t10 -32.5t-10 -32t-26 -12q-17 0 -27.5 12t-10.5 32zM203 793q0 20 10 32.5t27 12.5t27 -12.5t10 -32.5t-10.5 -32t-26.5 -12t-26.5 12t-10.5 32z" />
    <glyph glyph-name="Igrave" unicode="&#xcc;" horiz-adv-x="187" 
d="M64 0v700h59v-700h-59zM53 870l76 -118h-51l-103 99v19h78z" />
    <glyph glyph-name="Iacute" unicode="&#xcd;" horiz-adv-x="187" 
d="M64 0v700h59v-700h-59zM63 752l75 118h79v-19l-105 -99h-49z" />
    <glyph glyph-name="Icircumflex" unicode="&#xce;" horiz-adv-x="187" 
d="M64 0v700h59v-700h-59zM-8 767l86 103h36l82 -104v-17h-51l-38 51l-12 35l-12 -34l-42 -52h-49v18z" />
    <glyph glyph-name="Idieresis" unicode="&#xcf;" horiz-adv-x="187" 
d="M64 0v700h59v-700h-59zM-6 793q0 20 10.5 32.5t27.5 12.5q16 0 26 -12.5t10 -32.5t-10 -32t-26 -12q-17 0 -27.5 12t-10.5 32zM121 793q0 20 10 32.5t27 12.5t27 -12.5t10 -32.5t-10.5 -32t-26.5 -12t-26.5 12t-10.5 32z" />
    <glyph glyph-name="Eth" unicode="&#xd0;" horiz-adv-x="427" 
d="M-1 338v53h56v309q51 8 120 8q120 0 168.5 -89.5t48.5 -262.5q0 -79 -10 -140.5t-34 -114.5t-69 -81.5t-110 -28.5q-76 0 -114 8v339h-56zM177 653q-48 0 -63 -5v-257h97v-53h-97v-288q18 -4 60 -4q45 0 77 23.5t49 67.5t24.5 97t7.5 122q0 64 -6 112.5t-22 93t-48 68
t-79 23.5z" />
    <glyph glyph-name="Ntilde" unicode="&#xd1;" horiz-adv-x="436" 
d="M347 -12l-212 468l-33 115h-2l10 -115v-456h-57v712h36l212 -467l32 -109h3l-10 109v455h57v-712h-36zM133 748l-24 24q45 60 85 60q17 0 44 -15t39 -15q19 0 36 21l25 -27q-37 -51 -71 -51q-16 0 -44 15.5t-42 15.5q-21 0 -48 -28z" />
    <glyph glyph-name="Ograve" unicode="&#xd2;" horiz-adv-x="443" 
d="M35 350q0 182 44.5 272t141.5 90q102 0 144.5 -91.5t42.5 -270.5q0 -183 -44.5 -272.5t-142.5 -89.5q-101 0 -143.5 92t-42.5 270zM95 350q0 -85 11.5 -151.5t41 -111t73.5 -44.5q127 0 127 307q0 134 -30.5 220.5t-96.5 86.5q-126 0 -126 -307zM194 870l76 -118h-51
l-103 99v19h78z" />
    <glyph glyph-name="Oacute" unicode="&#xd3;" horiz-adv-x="443" 
d="M35 350q0 182 44.5 272t141.5 90q102 0 144.5 -91.5t42.5 -270.5q0 -183 -44.5 -272.5t-142.5 -89.5q-101 0 -143.5 92t-42.5 270zM95 350q0 -85 11.5 -151.5t41 -111t73.5 -44.5q127 0 127 307q0 134 -30.5 220.5t-96.5 86.5q-126 0 -126 -307zM203 752l75 118h79v-19
l-105 -99h-49z" />
    <glyph glyph-name="Ocircumflex" unicode="&#xd4;" horiz-adv-x="443" 
d="M35 350q0 182 44.5 272t141.5 90q102 0 144.5 -91.5t42.5 -270.5q0 -183 -44.5 -272.5t-142.5 -89.5q-101 0 -143.5 92t-42.5 270zM95 350q0 -85 11.5 -151.5t41 -111t73.5 -44.5q127 0 127 307q0 134 -30.5 220.5t-96.5 86.5q-126 0 -126 -307zM119 767l86 103h36
l82 -104v-17h-51l-38 51l-12 35l-12 -34l-42 -52h-49v18z" />
    <glyph glyph-name="Otilde" unicode="&#xd5;" horiz-adv-x="443" 
d="M35 350q0 182 44.5 272t141.5 90q102 0 144.5 -91.5t42.5 -270.5q0 -183 -44.5 -272.5t-142.5 -89.5q-101 0 -143.5 92t-42.5 270zM95 350q0 -85 11.5 -151.5t41 -111t73.5 -44.5q127 0 127 307q0 134 -30.5 220.5t-96.5 86.5q-126 0 -126 -307zM131 748l-24 24
q45 60 85 60q17 0 44 -15t39 -15q19 0 36 21l25 -27q-37 -51 -71 -51q-16 0 -44 15.5t-42 15.5q-21 0 -48 -28z" />
    <glyph glyph-name="Odieresis" unicode="&#xd6;" horiz-adv-x="443" 
d="M35 350q0 182 44.5 272t141.5 90q102 0 144.5 -91.5t42.5 -270.5q0 -183 -44.5 -272.5t-142.5 -89.5q-101 0 -143.5 92t-42.5 270zM95 350q0 -85 11.5 -151.5t41 -111t73.5 -44.5q127 0 127 307q0 134 -30.5 220.5t-96.5 86.5q-126 0 -126 -307zM121 793q0 20 10.5 32.5
t27.5 12.5q16 0 26 -12.5t10 -32.5t-10 -32t-26 -12q-17 0 -27.5 12t-10.5 32zM248 793q0 20 10 32.5t27 12.5t27 -12.5t10 -32.5t-10.5 -32t-26.5 -12t-26.5 12t-10.5 32z" />
    <glyph glyph-name="multiply" unicode="&#xd7;" horiz-adv-x="339" 
d="M42 470l42 34l86 -118l86 118l42 -34l-94 -132l94 -131l-42 -34l-86 118l-86 -119l-43 33l96 134z" />
    <glyph glyph-name="Oslash" unicode="&#xd8;" horiz-adv-x="443" 
d="M35 350q0 182 44.5 272t141.5 90q73 0 116 -49l23 50l40 -19l-34 -76q42 -87 42 -268q0 -183 -44.5 -272.5t-142.5 -89.5q-72 0 -114 47l-21 -47l-41 20l32 72q-42 88 -42 270zM95 350q0 -110 20 -186l192 430q-32 63 -86 63q-126 0 -126 -307zM348 350q0 108 -19 184
l-192 -431q32 -60 84 -60q127 0 127 307z" />
    <glyph glyph-name="Ugrave" unicode="&#xd9;" horiz-adv-x="418" 
d="M311 252v448h57v-474q0 -123 -37.5 -178.5t-116.5 -55.5q-88 0 -126 52t-38 166v490h59v-448q0 -114 22.5 -159.5t83.5 -45.5q56 0 76 46.5t20 158.5zM185 870l76 -118h-51l-103 99v19h78z" />
    <glyph glyph-name="Uacute" unicode="&#xda;" horiz-adv-x="418" 
d="M311 252v448h57v-474q0 -123 -37.5 -178.5t-116.5 -55.5q-88 0 -126 52t-38 166v490h59v-448q0 -114 22.5 -159.5t83.5 -45.5q56 0 76 46.5t20 158.5zM175 752l75 118h79v-19l-105 -99h-49z" />
    <glyph glyph-name="Ucircumflex" unicode="&#xdb;" horiz-adv-x="418" 
d="M311 252v448h57v-474q0 -123 -37.5 -178.5t-116.5 -55.5q-88 0 -126 52t-38 166v490h59v-448q0 -114 22.5 -159.5t83.5 -45.5q56 0 76 46.5t20 158.5zM107 767l86 103h36l82 -104v-17h-51l-38 51l-12 35l-12 -34l-42 -52h-49v18z" />
    <glyph glyph-name="Udieresis" unicode="&#xdc;" horiz-adv-x="418" 
d="M311 252v448h57v-474q0 -123 -37.5 -178.5t-116.5 -55.5q-88 0 -126 52t-38 166v490h59v-448q0 -114 22.5 -159.5t83.5 -45.5q56 0 76 46.5t20 158.5zM110 793q0 20 10.5 32.5t27.5 12.5q16 0 26 -12.5t10 -32.5t-10 -32t-26 -12q-17 0 -27.5 12t-10.5 32zM237 793
q0 20 10 32.5t27 12.5t27 -12.5t10 -32.5t-10.5 -32t-26.5 -12t-26.5 12t-10.5 32z" />
    <glyph glyph-name="Yacute" unicode="&#xdd;" horiz-adv-x="367" 
d="M155 0v282l-150 418h68l103 -312l10 -58h2l11 60l100 310h63l-148 -417v-283h-59zM153 752l75 118h79v-19l-105 -99h-49z" />
    <glyph glyph-name="Thorn" unicode="&#xde;" horiz-adv-x="365" 
d="M53 0v800h59v-95q25 3 53 3q77 0 126.5 -48t49.5 -164q0 -117 -50 -172.5t-127 -55.5q-40 0 -52 4v-272h-59zM167 653q-39 0 -55 -5v-320q11 -5 49 -5q120 0 120 174q0 156 -114 156z" />
    <glyph glyph-name="germandbls" unicode="&#xdf;" horiz-adv-x="398" 
d="M62 500v28q0 95 33 136.5t97 41.5q52 0 88.5 -33t36.5 -94q0 -34 -22 -65.5t-44 -60t-22 -55.5q0 -28 15 -52t36 -44t42 -43t36 -59.5t15 -82.5q0 -51 -34 -90t-92 -39q-51 0 -87 22l16 53q36 -22 68 -22q29 0 50.5 21t21.5 54q0 37 -15 66.5t-36 50l-42 41t-36 51.5
t-15 71q0 32 22 64t44 61.5t22 54.5q0 34 -20.5 55.5t-48.5 21.5q-40 0 -56 -31t-16 -122v-500h-57v447h-49v53h49z" />
    <glyph glyph-name="agrave" unicode="&#xe0;" horiz-adv-x="322" 
d="M66 429l-21 45q52 34 126 34q62 0 83.5 -39t21.5 -111q0 -42 -2 -118t-2 -108q0 -88 10 -134h-43l-14 49h-3q-28 -53 -97 -53q-46 0 -73.5 37.5t-27.5 101.5q0 150 162 150q22 0 33 -1q2 44 2 58q0 63 -14 89t-50 26q-50 0 -91 -26zM140 47q56 0 79 56v129q-22 2 -33 2
q-103 0 -103 -96q0 -44 15.5 -67.5t41.5 -23.5zM150 720l42 -148h-32l-76 129v19h66z" />
    <glyph glyph-name="aacute" unicode="&#xe1;" horiz-adv-x="322" 
d="M66 429l-21 45q52 34 126 34q62 0 83.5 -39t21.5 -111q0 -42 -2 -118t-2 -108q0 -88 10 -134h-43l-14 49h-3q-28 -53 -97 -53q-46 0 -73.5 37.5t-27.5 101.5q0 150 162 150q22 0 33 -1q2 44 2 58q0 63 -14 89t-50 26q-50 0 -91 -26zM140 47q56 0 79 56v129q-22 2 -33 2
q-103 0 -103 -96q0 -44 15.5 -67.5t41.5 -23.5zM122 572l38 148h62v-19l-66 -129h-34z" />
    <glyph glyph-name="acircumflex" unicode="&#xe2;" horiz-adv-x="322" 
d="M66 429l-21 45q52 34 126 34q62 0 83.5 -39t21.5 -111q0 -42 -2 -118t-2 -108q0 -88 10 -134h-43l-14 49h-3q-28 -53 -97 -53q-46 0 -73.5 37.5t-27.5 101.5q0 150 162 150q22 0 33 -1q2 44 2 58q0 63 -14 89t-50 26q-50 0 -91 -26zM140 47q56 0 79 56v129q-22 2 -33 2
q-103 0 -103 -96q0 -44 15.5 -67.5t41.5 -23.5zM76 550l80 182h27l71 -182h-49l-26 66l-13 60l-14 -60l-29 -66h-47z" />
    <glyph glyph-name="atilde" unicode="&#xe3;" horiz-adv-x="322" 
d="M66 429l-21 45q52 34 126 34q62 0 83.5 -39t21.5 -111q0 -42 -2 -118t-2 -108q0 -88 10 -134h-43l-14 49h-3q-28 -53 -97 -53q-46 0 -73.5 37.5t-27.5 101.5q0 150 162 150q22 0 33 -1q2 44 2 58q0 63 -14 89t-50 26q-50 0 -91 -26zM140 47q56 0 79 56v129q-22 2 -33 2
q-103 0 -103 -96q0 -44 15.5 -67.5t41.5 -23.5zM83 625l-23 26q42 58 74 58q16 0 40 -19t36 -19q14 0 30 19l22 -26q-37 -51 -67 -51q-15 0 -38.5 18t-34.5 18q-19 0 -39 -24z" />
    <glyph glyph-name="adieresis" unicode="&#xe4;" horiz-adv-x="322" 
d="M66 429l-21 45q52 34 126 34q62 0 83.5 -39t21.5 -111q0 -42 -2 -118t-2 -108q0 -88 10 -134h-43l-14 49h-3q-28 -53 -97 -53q-46 0 -73.5 37.5t-27.5 101.5q0 150 162 150q22 0 33 -1q2 44 2 58q0 63 -14 89t-50 26q-50 0 -91 -26zM140 47q56 0 79 56v129q-22 2 -33 2
q-103 0 -103 -96q0 -44 15.5 -67.5t41.5 -23.5zM64 654q0 20 9.5 31.5t24.5 11.5t24.5 -11.5t9.5 -31.5q0 -19 -9.5 -30.5t-24.5 -11.5t-24.5 11.5t-9.5 30.5zM191 654q0 20 9.5 31.5t25.5 11.5q33 0 33 -43q0 -19 -9 -30.5t-24 -11.5q-16 0 -25.5 11.5t-9.5 30.5z" />
    <glyph glyph-name="aring" unicode="&#xe5;" horiz-adv-x="322" 
d="M66 429l-21 45q52 34 126 34q62 0 83.5 -39t21.5 -111q0 -42 -2 -118t-2 -108q0 -88 10 -134h-43l-14 49h-3q-28 -53 -97 -53q-46 0 -73.5 37.5t-27.5 101.5q0 150 162 150q22 0 33 -1q2 44 2 58q0 63 -14 89t-50 26q-50 0 -91 -26zM140 47q56 0 79 56v129q-22 2 -33 2
q-103 0 -103 -96q0 -44 15.5 -67.5t41.5 -23.5zM94 642q0 41 17.5 63.5t49.5 22.5q68 0 68 -86q0 -39 -18 -62.5t-50 -23.5q-67 0 -67 86zM134 642q0 -51 27 -51q28 0 28 51q0 52 -28 52q-27 0 -27 -52z" />
    <glyph glyph-name="ae" unicode="&#xe6;" horiz-adv-x="517" 
d="M141 45q31 0 51 20.5t27 51.5v121q-18 2 -27 2q-109 0 -109 -98q0 -38 16.5 -67.5t41.5 -29.5zM244 65h-5q-34 -73 -109 -73q-48 0 -77 39.5t-29 105.5q0 83 40.5 117t115.5 34q13 0 39 -2q2 44 2 58q0 62 -14 86.5t-50 24.5q-23 0 -50.5 -10t-45.5 -26l-18 45
q48 44 128 44q69 0 88 -66q30 70 102 70q124 0 124 -186q0 -51 -4 -82h-207q1 -105 24.5 -154t77.5 -49q22 0 44.5 8.5t33.5 19.5l21 -44q-43 -37 -114 -37q-40 0 -71.5 20t-45.5 57zM362 459q-78 0 -86 -164h155v16q0 70 -19 109t-50 39z" />
    <glyph glyph-name="ccedilla" unicode="&#xe7;" horiz-adv-x="284" 
d="M254 65l17 -46q-31 -25 -75 -30l-12 -32q52 -16 52 -75q0 -39 -23.5 -64t-61.5 -25q-13 0 -28 3l6 37q5 -1 13 -1q42 0 42 41q0 29 -56 38l28 77q-126 15 -126 262q0 126 37 194t105 68q59 0 93 -22l-16 -49q-32 18 -71 18q-89 0 -89 -209t98 -209q39 0 67 24z" />
    <glyph glyph-name="egrave" unicode="&#xe8;" horiz-adv-x="330" 
d="M268 72l21 -44q-40 -40 -110 -40q-75 0 -112 69.5t-37 192.5q0 126 38 194t107 68q124 0 125 -182q0 -41 -4 -82h-207q2 -207 105 -207q45 0 74 31zM175 459q-77 0 -84 -158h154v15q0 70 -19 106.5t-51 36.5zM162 720l42 -148h-32l-76 129v19h66z" />
    <glyph glyph-name="eacute" unicode="&#xe9;" horiz-adv-x="330" 
d="M268 72l21 -44q-40 -40 -110 -40q-75 0 -112 69.5t-37 192.5q0 126 38 194t107 68q124 0 125 -182q0 -41 -4 -82h-207q2 -207 105 -207q45 0 74 31zM175 459q-77 0 -84 -158h154v15q0 70 -19 106.5t-51 36.5zM150 572l38 148h62v-19l-66 -129h-34z" />
    <glyph glyph-name="ecircumflex" unicode="&#xea;" horiz-adv-x="330" 
d="M268 72l21 -44q-40 -40 -110 -40q-75 0 -112 69.5t-37 192.5q0 126 38 194t107 68q124 0 125 -182q0 -41 -4 -82h-207q2 -207 105 -207q45 0 74 31zM175 459q-77 0 -84 -158h154v15q0 70 -19 106.5t-51 36.5zM83 550l80 182h27l71 -182h-49l-26 66l-13 60l-14 -60
l-29 -66h-47z" />
    <glyph glyph-name="edieresis" unicode="&#xeb;" horiz-adv-x="330" 
d="M268 72l21 -44q-40 -40 -110 -40q-75 0 -112 69.5t-37 192.5q0 126 38 194t107 68q124 0 125 -182q0 -41 -4 -82h-207q2 -207 105 -207q45 0 74 31zM175 459q-77 0 -84 -158h154v15q0 70 -19 106.5t-51 36.5zM80 654q0 20 9.5 31.5t24.5 11.5t24.5 -11.5t9.5 -31.5
q0 -19 -9.5 -30.5t-24.5 -11.5t-24.5 11.5t-9.5 30.5zM207 654q0 20 9.5 31.5t25.5 11.5q33 0 33 -43q0 -19 -9 -30.5t-24 -11.5q-16 0 -25.5 11.5t-9.5 30.5z" />
    <glyph glyph-name="igrave" unicode="&#xec;" horiz-adv-x="175" 
d="M59 0v500h57v-500h-57zM69 720l42 -148h-32l-76 129v19h66z" />
    <glyph glyph-name="iacute" unicode="&#xed;" horiz-adv-x="175" 
d="M58 0v500h57v-500h-57zM65 572l38 148h62v-19l-66 -129h-34z" />
    <glyph glyph-name="icircumflex" unicode="&#xee;" horiz-adv-x="175" 
d="M58 0v500h57v-500h-57zM-3 550l80 182h27l71 -182h-49l-26 66l-13 60l-14 -60l-29 -66h-47z" />
    <glyph glyph-name="idieresis" unicode="&#xef;" horiz-adv-x="175" 
d="M58 0v500h57v-500h-57zM-11 654q0 20 9.5 31.5t24.5 11.5t24.5 -11.5t9.5 -31.5q0 -19 -9.5 -30.5t-24.5 -11.5t-24.5 11.5t-9.5 30.5zM116 654q0 20 9.5 31.5t25.5 11.5q33 0 33 -43q0 -19 -9 -30.5t-24 -11.5q-16 0 -25.5 11.5t-9.5 30.5z" />
    <glyph glyph-name="eth" unicode="&#xf0;" horiz-adv-x="364" 
d="M166 559l-35 14l28 77q-33 13 -69 13v49q49 0 87 -14l18 50l35 -15l-19 -52q120 -77 120 -388q0 -305 -150 -305q-148 0 -148 264q0 120 38.5 190t107.5 70q61 0 87 -39q-18 112 -74 157zM92 252q0 -211 93 -211q40 0 64.5 61t24.5 190q0 77 -7 117q-26 50 -82 50
q-93 0 -93 -207z" />
    <glyph glyph-name="ntilde" unicode="&#xf1;" horiz-adv-x="355" 
d="M313 0h-57v320q0 77 -14.5 108t-51.5 31q-58 0 -85 -75v-384h-57v500h41l10 -46h2q41 58 104 58q56 0 82 -38.5t26 -135.5v-338zM103 625l-23 26q42 58 74 58q16 0 40 -19t36 -19q14 0 30 19l22 -26q-37 -51 -67 -51q-15 0 -38.5 18t-34.5 18q-19 0 -39 -24z" />
    <glyph glyph-name="ograve" unicode="&#xf2;" horiz-adv-x="348" 
d="M30 250q0 137 36.5 199.5t107.5 62.5q75 0 109.5 -61t34.5 -201q0 -139 -36 -200.5t-108 -61.5q-75 0 -109.5 61t-34.5 201zM89 250q0 -209 85 -209q44 0 64.5 49t20.5 160q0 209 -85 209t-85 -209zM160 720l42 -148h-32l-76 129v19h66z" />
    <glyph glyph-name="oacute" unicode="&#xf3;" horiz-adv-x="348" 
d="M30 250q0 137 36.5 199.5t107.5 62.5q75 0 109.5 -61t34.5 -201q0 -139 -36 -200.5t-108 -61.5q-75 0 -109.5 61t-34.5 201zM89 250q0 -209 85 -209q44 0 64.5 49t20.5 160q0 209 -85 209t-85 -209zM144 572l38 148h62v-19l-66 -129h-34z" />
    <glyph glyph-name="ocircumflex" unicode="&#xf4;" horiz-adv-x="348" 
d="M30 250q0 137 36.5 199.5t107.5 62.5q75 0 109.5 -61t34.5 -201q0 -139 -36 -200.5t-108 -61.5q-75 0 -109.5 61t-34.5 201zM89 250q0 -209 85 -209q44 0 64.5 49t20.5 160q0 209 -85 209t-85 -209zM85 550l80 182h27l71 -182h-49l-26 66l-13 60l-14 -60l-29 -66h-47z
" />
    <glyph glyph-name="otilde" unicode="&#xf5;" horiz-adv-x="348" 
d="M30 250q0 137 36.5 199.5t107.5 62.5q75 0 109.5 -61t34.5 -201q0 -139 -36 -200.5t-108 -61.5q-75 0 -109.5 61t-34.5 201zM89 250q0 -209 85 -209q44 0 64.5 49t20.5 160q0 209 -85 209t-85 -209zM96 625l-23 26q42 58 74 58q16 0 39.5 -19t36.5 -19q14 0 30 19l22 -26
q-37 -51 -67 -51q-15 0 -38.5 18t-34.5 18q-19 0 -39 -24z" />
    <glyph glyph-name="odieresis" unicode="&#xf6;" horiz-adv-x="348" 
d="M30 250q0 137 36.5 199.5t107.5 62.5q75 0 109.5 -61t34.5 -201q0 -139 -36 -200.5t-108 -61.5q-75 0 -109.5 61t-34.5 201zM89 250q0 -209 85 -209q44 0 64.5 49t20.5 160q0 209 -85 209t-85 -209zM77 654q0 20 9.5 31.5t24.5 11.5t24.5 -11.5t9.5 -31.5
q0 -19 -9.5 -30.5t-24.5 -11.5t-24.5 11.5t-9.5 30.5zM204 654q0 20 9.5 31.5t25.5 11.5q33 0 33 -43q0 -19 -9 -30.5t-24 -11.5q-16 0 -25.5 11.5t-9.5 30.5z" />
    <glyph glyph-name="divide" unicode="&#xf7;" horiz-adv-x="339" 
d="M31 316v53h277v-53h-277zM131 497q0 51 39 51q41 0 41 -51q0 -50 -41 -50q-39 0 -39 50zM131 180q0 51 39 51q41 0 41 -51q0 -50 -41 -50q-39 0 -39 50z" />
    <glyph glyph-name="oslash" unicode="&#xf8;" horiz-adv-x="356" 
d="M36 250q0 262 144 262q48 0 81 -30l15 30l41 -21l-25 -52q32 -67 32 -189q0 -262 -144 -262q-53 0 -86 33l-18 -33l-40 24l28 54q-28 63 -28 184zM180 41q85 0 85 209q0 71 -10 117l-134 -286q22 -40 59 -40zM95 250q0 -70 8 -111l131 286q-20 34 -54 34q-85 0 -85 -209z
" />
    <glyph glyph-name="ugrave" unicode="&#xf9;" horiz-adv-x="350" 
d="M43 500h57v-326q0 -74 12.5 -103.5t41.5 -29.5q32 0 55.5 29t35.5 69v361h57v-360q0 -89 8 -140h-41l-14 64h-2q-15 -32 -42 -54t-63 -22q-55 0 -80 35.5t-25 135.5v341zM158 720l42 -148h-32l-76 129v19h66z" />
    <glyph glyph-name="uacute" unicode="&#xfa;" horiz-adv-x="350" 
d="M43 500h57v-326q0 -74 12.5 -103.5t41.5 -29.5q32 0 55.5 29t35.5 69v361h57v-360q0 -89 8 -140h-41l-14 64h-2q-15 -32 -42 -54t-63 -22q-55 0 -80 35.5t-25 135.5v341zM145 572l38 148h62v-19l-66 -129h-34z" />
    <glyph glyph-name="ucircumflex" unicode="&#xfb;" horiz-adv-x="350" 
d="M43 500h57v-326q0 -74 12.5 -103.5t41.5 -29.5q32 0 55.5 29t35.5 69v361h57v-360q0 -89 8 -140h-41l-14 64h-2q-15 -32 -42 -54t-63 -22q-55 0 -80 35.5t-25 135.5v341zM84 550l80 182h27l71 -182h-49l-26 66l-13 60l-14 -60l-29 -66h-47z" />
    <glyph glyph-name="udieresis" unicode="&#xfc;" horiz-adv-x="350" 
d="M43 500h57v-326q0 -74 12.5 -103.5t41.5 -29.5q32 0 55.5 29t35.5 69v361h57v-360q0 -89 8 -140h-41l-14 64h-2q-15 -32 -42 -54t-63 -22q-55 0 -80 35.5t-25 135.5v341zM72 654q0 20 9.5 31.5t24.5 11.5t24.5 -11.5t9.5 -31.5q0 -19 -9.5 -30.5t-24.5 -11.5t-24.5 11.5
t-9.5 30.5zM199 654q0 20 9.5 31.5t25.5 11.5q33 0 33 -43q0 -19 -9 -30.5t-24 -11.5q-16 0 -25.5 11.5t-9.5 30.5z" />
    <glyph glyph-name="yacute" unicode="&#xfd;" horiz-adv-x="302" 
d="M68 500l79 -333l18 -100h3l13 101l63 332h56l-96 -449q-14 -68 -23.5 -105.5t-24 -77t-31.5 -56.5t-39 -17t-37 8l9 57q8 -2 13 -2q23 0 38.5 32t26.5 110l-131 500h63zM137 572l38 148h62v-19l-66 -129h-34z" />
    <glyph glyph-name="thorn" unicode="&#xfe;" horiz-adv-x="351" 
d="M48 -200v900h57v-234h2q29 46 87 46q65 0 95.5 -60t30.5 -192q0 -126 -40 -199t-108 -73q-42 0 -67 15v-203h-57zM180 459q-26 0 -46 -20.5t-29 -53.5v-321q25 -23 64 -23q43 0 67.5 58.5t24.5 160.5q0 199 -81 199z" />
    <glyph glyph-name="ydieresis" unicode="&#xff;" horiz-adv-x="302" 
d="M68 500l79 -333l18 -100h3l13 101l63 332h56l-96 -449q-14 -68 -23.5 -105.5t-24 -77t-31.5 -56.5t-39 -17t-37 8l9 57q8 -2 13 -2q23 0 38.5 32t26.5 110l-131 500h63zM54 654q0 20 9.5 31.5t24.5 11.5t24.5 -11.5t9.5 -31.5q0 -19 -9.5 -30.5t-24.5 -11.5t-24.5 11.5
t-9.5 30.5zM181 654q0 20 9.5 31.5t25.5 11.5q33 0 33 -43q0 -19 -9 -30.5t-24 -11.5q-16 0 -25.5 11.5t-9.5 30.5z" />
    <glyph glyph-name="Amacron" unicode="&#x100;" horiz-adv-x="382" 
d="M316 0l-47 206h-160l-46 -206h-59l171 712h31l172 -712h-62zM173 488l-49 -227h131l-50 229l-15 104h-2zM87 764v56h208v-56h-208z" />
    <glyph glyph-name="amacron" unicode="&#x101;" horiz-adv-x="322" 
d="M66 429l-21 45q52 34 126 34q62 0 83.5 -39t21.5 -111q0 -42 -2 -118t-2 -108q0 -88 10 -134h-43l-14 49h-3q-28 -53 -97 -53q-46 0 -73.5 37.5t-27.5 101.5q0 150 162 150q22 0 33 -1q2 44 2 58q0 63 -14 89t-50 26q-50 0 -91 -26zM140 47q56 0 79 56v129q-22 2 -33 2
q-103 0 -103 -96q0 -44 15.5 -67.5t41.5 -23.5zM58 588v52h195v-52h-195z" />
    <glyph glyph-name="Abreve" unicode="&#x102;" horiz-adv-x="382" 
d="M316 0l-47 206h-160l-46 -206h-59l171 712h31l172 -712h-62zM173 488l-49 -227h131l-50 229l-15 104h-2zM76 856l32 14q12 -37 34.5 -60t51.5 -23q54 0 82 83l31 -10q-12 -64 -43 -97t-71 -33q-37 0 -70.5 32.5t-46.5 93.5z" />
    <glyph glyph-name="abreve" unicode="&#x103;" horiz-adv-x="322" 
d="M66 429l-21 45q52 34 126 34q62 0 83.5 -39t21.5 -111q0 -42 -2 -118t-2 -108q0 -88 10 -134h-43l-14 49h-3q-28 -53 -97 -53q-46 0 -73.5 37.5t-27.5 101.5q0 150 162 150q22 0 33 -1q2 44 2 58q0 63 -14 89t-50 26q-50 0 -91 -26zM140 47q56 0 79 56v129q-22 2 -33 2
q-103 0 -103 -96q0 -44 15.5 -67.5t41.5 -23.5zM61 702l31 12q25 -82 74 -82q44 0 67 82l30 -10q-4 -57 -31 -93t-67 -36q-39 0 -67.5 33.5t-36.5 93.5z" />
    <glyph glyph-name="Aogonek" unicode="&#x104;" horiz-adv-x="382" 
d="M316 0l-47 206h-160l-46 -206h-59l171 712h31l172 -712h-23q-36 -34 -36 -91q0 -55 38 -55q9 0 23 4l8 -32q-17 -20 -53 -20q-34 0 -54.5 23t-20.5 59q0 73 57 112h-1zM173 488l-49 -227h131l-50 229l-15 104h-2z" />
    <glyph glyph-name="aogonek" unicode="&#x105;" horiz-adv-x="322" 
d="M66 429l-21 45q52 34 126 34q62 0 83.5 -39t21.5 -111q0 -42 -2 -118t-2 -108q0 -88 10 -134h-17q-34 -34 -34 -89t38 -55q9 0 23 4l8 -32q-17 -20 -53 -20q-34 0 -54.5 23t-20.5 59q0 78 65 117l-12 42h-3q-28 -53 -97 -53q-46 0 -73.5 37.5t-27.5 101.5q0 150 162 150
q22 0 33 -1q2 44 2 58q0 63 -14 89t-50 26q-50 0 -91 -26zM140 47q56 0 79 56v129q-22 2 -33 2q-103 0 -103 -96q0 -44 15.5 -67.5t41.5 -23.5z" />
    <glyph glyph-name="Cacute" unicode="&#x106;" horiz-adv-x="370" 
d="M333 75l14 -50q-37 -37 -115 -37q-197 0 -197 362q0 189 54.5 275.5t143.5 86.5q63 0 109 -24l-16 -54q-37 23 -88 23q-64 0 -103.5 -73t-39.5 -234q0 -153 39 -230t112 -77q45 0 87 32zM193 752l75 118h79v-19l-105 -99h-49z" />
    <glyph glyph-name="cacute" unicode="&#x107;" horiz-adv-x="284" 
d="M254 65l17 -46q-40 -31 -98 -31q-143 0 -143 262q0 126 37 194t105 68q59 0 93 -22l-16 -49q-32 18 -71 18q-89 0 -89 -209t98 -209q39 0 67 24zM154 572l38 148h62v-19l-66 -129h-34z" />
    <glyph glyph-name="Ccircumflex" unicode="&#x108;" horiz-adv-x="370" 
d="M333 75l14 -50q-37 -37 -115 -37q-197 0 -197 362q0 189 54.5 275.5t143.5 86.5q63 0 109 -24l-16 -54q-37 23 -88 23q-64 0 -103.5 -73t-39.5 -234q0 -153 39 -230t112 -77q45 0 87 32zM123 767l86 103h36l82 -104v-17h-51l-38 51l-12 35l-12 -34l-42 -52h-49v18z" />
    <glyph glyph-name="ccircumflex" unicode="&#x109;" horiz-adv-x="284" 
d="M254 65l17 -46q-40 -31 -98 -31q-143 0 -143 262q0 126 37 194t105 68q59 0 93 -22l-16 -49q-32 18 -71 18q-89 0 -89 -209t98 -209q39 0 67 24zM74 550l80 182h27l71 -182h-49l-26 66l-13 60l-14 -60l-29 -66h-47z" />
    <glyph glyph-name="Cdotaccent" unicode="&#x10a;" horiz-adv-x="370" 
d="M333 75l14 -50q-37 -37 -115 -37q-197 0 -197 362q0 189 54.5 275.5t143.5 86.5q63 0 109 -24l-16 -54q-37 23 -88 23q-64 0 -103.5 -73t-39.5 -234q0 -153 39 -230t112 -77q45 0 87 32zM187 797q0 21 11.5 35.5t31.5 14.5t32 -14.5t12 -35.5q0 -22 -12 -36.5t-32 -14.5
t-31.5 14.5t-11.5 36.5z" />
    <glyph glyph-name="cdotaccent" unicode="&#x10b;" horiz-adv-x="284" 
d="M254 65l17 -46q-40 -31 -98 -31q-143 0 -143 262q0 126 37 194t105 68q59 0 93 -22l-16 -49q-32 18 -71 18q-89 0 -89 -209t98 -209q39 0 67 24zM131 655q0 23 10.5 35.5t28.5 12.5t29 -12t11 -36q0 -46 -40 -46q-39 0 -39 46z" />
    <glyph glyph-name="Ccaron" unicode="&#x10c;" horiz-adv-x="370" 
d="M333 75l14 -50q-37 -37 -115 -37q-197 0 -197 362q0 189 54.5 275.5t143.5 86.5q63 0 109 -24l-16 -54q-37 23 -88 23q-64 0 -103.5 -73t-39.5 -234q0 -153 39 -230t112 -77q45 0 87 32zM333 852l-86 -104h-42l-82 105v17h55l38 -51l11 -35l13 34l40 52h53v-18z" />
    <glyph glyph-name="ccaron" unicode="&#x10d;" horiz-adv-x="284" 
d="M254 65l17 -46q-40 -31 -98 -31q-143 0 -143 262q0 126 37 194t105 68q59 0 93 -22l-16 -49q-32 18 -71 18q-89 0 -89 -209t98 -209q39 0 67 24zM262 732l-81 -182h-29l-75 182h54l25 -66l14 -60l14 60l29 66h49z" />
    <glyph glyph-name="Dcaron" unicode="&#x10e;" horiz-adv-x="425" 
d="M53 -1v701q51 8 120 8q120 0 168.5 -89.5t48.5 -262.5q0 -79 -10 -140.5t-34 -114.5t-69 -81.5t-110 -28.5q-76 0 -114 8zM175 653q-48 0 -63 -5v-598q18 -4 60 -4q45 0 77 23.5t49 67.5t24.5 97t7.5 122q0 64 -6 112.5t-22 93t-48 68t-79 23.5zM278 852l-86 -104h-42
l-82 105v17h55l38 -51l11 -35l13 34l40 52h53v-18z" />
    <glyph glyph-name="dcaron" unicode="&#x10f;" horiz-adv-x="349" 
d="M302 700v-529q0 -123 6 -173h-39l-13 51h-2q-11 -26 -36 -43.5t-57 -17.5q-131 0 -131 262q0 124 39 191t108 67q39 0 68 -14v206h57zM170 41q56 0 75 74v319q-20 21 -64 21q-43 0 -67.5 -52.5t-24.5 -152.5q0 -209 81 -209zM351 700h59q-3 -52 -22.5 -106t-36.5 -78
l-23 11q23 74 23 173z" />
    <glyph glyph-name="Dcroat" unicode="&#x110;" horiz-adv-x="427" 
d="M-1 338v53h56v309q51 8 120 8q120 0 168.5 -89.5t48.5 -262.5q0 -79 -10 -140.5t-34 -114.5t-69 -81.5t-110 -28.5q-76 0 -114 8v339h-56zM177 653q-48 0 -63 -5v-257h97v-53h-97v-288q18 -4 60 -4q45 0 77 23.5t49 67.5t24.5 97t7.5 122q0 64 -6 112.5t-22 93t-48 68
t-79 23.5z" />
    <glyph glyph-name="dcroat" unicode="&#x111;" horiz-adv-x="349" 
d="M302 700v-69h52v-53h-52v-407q0 -123 6 -173h-39l-13 51h-2q-11 -26 -36 -43.5t-57 -17.5q-131 0 -131 262q0 124 39 191t108 67q39 0 68 -14v84h-102v53h102v69h57zM170 41q56 0 75 74v319q-20 21 -64 21q-43 0 -67.5 -52.5t-24.5 -152.5q0 -209 81 -209z" />
    <glyph glyph-name="Emacron" unicode="&#x112;" horiz-adv-x="347" 
d="M53 0v700h251v-55h-192v-257h176v-55h-176v-278h195v-55h-254zM70 764v56h208v-56h-208z" />
    <glyph glyph-name="emacron" unicode="&#x113;" horiz-adv-x="330" 
d="M268 72l21 -44q-40 -40 -110 -40q-75 0 -112 69.5t-37 192.5q0 126 38 194t107 68q124 0 125 -182q0 -41 -4 -82h-207q2 -207 105 -207q45 0 74 31zM175 459q-77 0 -84 -158h154v15q0 70 -19 106.5t-51 36.5zM70 588v52h195v-52h-195z" />
    <glyph glyph-name="Ebreve" unicode="&#x114;" horiz-adv-x="347" 
d="M53 0v700h251v-55h-192v-257h176v-55h-176v-278h195v-55h-254zM62 856l32 14q12 -37 34.5 -60t51.5 -23q54 0 82 83l31 -10q-12 -64 -43 -97t-71 -33q-37 0 -70.5 32.5t-46.5 93.5z" />
    <glyph glyph-name="ebreve" unicode="&#x115;" horiz-adv-x="330" 
d="M268 72l21 -44q-40 -40 -110 -40q-75 0 -112 69.5t-37 192.5q0 126 38 194t107 68q124 0 125 -182q0 -41 -4 -82h-207q2 -207 105 -207q45 0 74 31zM175 459q-77 0 -84 -158h154v15q0 70 -19 106.5t-51 36.5zM67 702l31 12q25 -82 74 -82q44 0 67 82l30 -10
q-4 -57 -31 -93t-67 -36q-39 0 -67.5 33.5t-36.5 93.5z" />
    <glyph glyph-name="Edotaccent" unicode="&#x116;" horiz-adv-x="347" 
d="M53 0v700h251v-55h-192v-257h176v-55h-176v-278h195v-55h-254zM137 797q0 21 11.5 35.5t31.5 14.5t32 -14.5t12 -35.5q0 -22 -12 -36.5t-32 -14.5t-31.5 14.5t-11.5 36.5z" />
    <glyph glyph-name="edotaccent" unicode="&#x117;" horiz-adv-x="330" 
d="M268 72l21 -44q-40 -40 -110 -40q-75 0 -112 69.5t-37 192.5q0 126 38 194t107 68q124 0 125 -182q0 -41 -4 -82h-207q2 -207 105 -207q45 0 74 31zM175 459q-77 0 -84 -158h154v15q0 70 -19 106.5t-51 36.5zM134 655q0 23 10.5 35.5t28.5 12.5t29 -12t11 -36
q0 -46 -40 -46q-39 0 -39 46z" />
    <glyph glyph-name="Eogonek" unicode="&#x118;" horiz-adv-x="347" 
d="M53 0v700h251v-55h-192v-257h176v-55h-176v-278h195v-55h-29q-36 -34 -36 -91q0 -55 38 -55q9 0 23 4l8 -32q-17 -20 -53 -20q-34 0 -54.5 23t-20.5 59q0 73 57 112h-187z" />
    <glyph glyph-name="eogonek" unicode="&#x119;" horiz-adv-x="330" 
d="M268 72l21 -44q-16 -16 -41 -27q-43 -36 -43 -92q0 -23 9.5 -39t26.5 -16q11 0 27 8l9 -35q-20 -21 -59 -21q-31 0 -49 24t-18 64q0 57 43 95q-5 -1 -15 -1q-75 0 -112 69.5t-37 192.5q0 126 38 194t107 68q124 0 125 -182q0 -41 -4 -82h-207q2 -207 105 -207q45 0 74 31
zM175 459q-77 0 -84 -158h154v15q0 70 -19 106.5t-51 36.5z" />
    <glyph glyph-name="Ecaron" unicode="&#x11a;" horiz-adv-x="347" 
d="M53 0v700h251v-55h-192v-257h176v-55h-176v-278h195v-55h-254zM285 852l-86 -104h-42l-82 105v17h55l38 -51l11 -35l13 34l40 52h53v-18z" />
    <glyph glyph-name="ecaron" unicode="&#x11b;" horiz-adv-x="330" 
d="M268 72l21 -44q-40 -40 -110 -40q-75 0 -112 69.5t-37 192.5q0 126 38 194t107 68q124 0 125 -182q0 -41 -4 -82h-207q2 -207 105 -207q45 0 74 31zM175 459q-77 0 -84 -158h154v15q0 70 -19 106.5t-51 36.5zM265 732l-81 -182h-29l-75 182h54l25 -66l14 -60l14 60l29 66
h49z" />
    <glyph glyph-name="Gcircumflex" unicode="&#x11c;" horiz-adv-x="397" 
d="M207 312v34h156v-308q-45 -50 -130 -50q-198 0 -198 362q0 185 56.5 273.5t145.5 88.5q69 0 110 -24l-14 -54q-35 23 -90 23q-65 0 -106.5 -73.5t-41.5 -233.5q0 -307 147 -307q42 0 70 25v224zM135 767l86 103h36l82 -104v-17h-51l-38 51l-12 35l-12 -34l-42 -52h-49v18
z" />
    <glyph glyph-name="gcircumflex" unicode="&#x11d;" horiz-adv-x="349" 
d="M301 478v-506q0 -184 -135 -184q-71 0 -111 28l20 50q44 -25 86 -25q46 0 65 35.5t19 123.5v31h-2q-28 -43 -86 -43q-127 0 -127 262q0 126 40 192t118 66q64 0 113 -30zM171 41q56 0 73 67v332q-22 15 -60 15q-44 0 -69.5 -51t-25.5 -154q0 -94 20 -151.5t62 -57.5z
M92 550l80 182h27l71 -182h-49l-26 66l-13 60l-14 -60l-29 -66h-47z" />
    <glyph glyph-name="Gbreve" unicode="&#x11e;" horiz-adv-x="397" 
d="M207 312v34h156v-308q-45 -50 -130 -50q-198 0 -198 362q0 185 56.5 273.5t145.5 88.5q69 0 110 -24l-14 -54q-35 23 -90 23q-65 0 -106.5 -73.5t-41.5 -233.5q0 -307 147 -307q42 0 70 25v224zM114 856l32 14q12 -37 34.5 -60t51.5 -23q54 0 82 83l31 -10
q-12 -64 -43 -97t-71 -33q-37 0 -70.5 32.5t-46.5 93.5z" />
    <glyph glyph-name="gbreve" unicode="&#x11f;" horiz-adv-x="349" 
d="M301 478v-506q0 -184 -135 -184q-71 0 -111 28l20 50q44 -25 86 -25q46 0 65 35.5t19 123.5v31h-2q-28 -43 -86 -43q-127 0 -127 262q0 126 40 192t118 66q64 0 113 -30zM171 41q56 0 73 67v332q-22 15 -60 15q-44 0 -69.5 -51t-25.5 -154q0 -94 20 -151.5t62 -57.5z
M80 702l31 12q25 -82 74 -82q44 0 67 82l30 -10q-4 -57 -31 -93t-67 -36q-39 0 -67.5 33.5t-36.5 93.5z" />
    <glyph glyph-name="Gdotaccent" unicode="&#x120;" horiz-adv-x="397" 
d="M207 312v34h156v-308q-45 -50 -130 -50q-198 0 -198 362q0 185 56.5 273.5t145.5 88.5q69 0 110 -24l-14 -54q-35 23 -90 23q-65 0 -106.5 -73.5t-41.5 -233.5q0 -307 147 -307q42 0 70 25v224zM200 797q0 21 11.5 35.5t31.5 14.5t32 -14.5t12 -35.5q0 -22 -12 -36.5
t-32 -14.5t-31.5 14.5t-11.5 36.5z" />
    <glyph glyph-name="gdotaccent" unicode="&#x121;" horiz-adv-x="349" 
d="M301 478v-506q0 -184 -135 -184q-71 0 -111 28l20 50q44 -25 86 -25q46 0 65 35.5t19 123.5v31h-2q-28 -43 -86 -43q-127 0 -127 262q0 126 40 192t118 66q64 0 113 -30zM171 41q56 0 73 67v332q-22 15 -60 15q-44 0 -69.5 -51t-25.5 -154q0 -94 20 -151.5t62 -57.5z
M139 655q0 23 10.5 35.5t28.5 12.5t29 -12t11 -36q0 -46 -40 -46q-39 0 -39 46z" />
    <glyph glyph-name="Gcommaaccent" unicode="&#x122;" horiz-adv-x="397" 
d="M207 312v34h156v-308q-45 -50 -130 -50q-198 0 -198 362q0 185 56.5 273.5t145.5 88.5q69 0 110 -24l-14 -54q-35 23 -90 23q-65 0 -106.5 -73.5t-41.5 -233.5q0 -307 147 -307q42 0 70 25v224zM194 -101q0 19 10 31t24 12q43 0 43 -72q0 -42 -17.5 -70.5t-36.5 -38.5
l-24 20q34 32 34 76v4h-3q-30 0 -30 38z" />
    <glyph glyph-name="gcommaaccent" unicode="&#x123;" horiz-adv-x="349" 
d="M301 478v-506q0 -184 -135 -184q-71 0 -111 28l20 50q44 -25 86 -25q46 0 65 35.5t19 123.5v31h-2q-28 -43 -86 -43q-127 0 -127 262q0 126 40 192t118 66q64 0 113 -30zM171 41q56 0 73 67v332q-22 15 -60 15q-44 0 -69.5 -51t-25.5 -154q0 -94 20 -151.5t62 -57.5z
M225 607q0 -19 -10 -31t-24 -12q-43 0 -43 72q0 42 17.5 70.5t36.5 38.5l24 -20q-34 -32 -34 -76v-4h3q30 0 30 -38z" />
    <glyph glyph-name="Hcircumflex" unicode="&#x124;" horiz-adv-x="435" 
d="M323 0v332h-211v-332h-59v700h59v-313h211v313h59v-700h-59zM114 767l86 103h36l82 -104v-17h-51l-38 51l-12 35l-12 -34l-42 -52h-49v18z" />
    <glyph glyph-name="hcircumflex" unicode="&#x125;" horiz-adv-x="355" 
d="M313 0h-57v319q0 72 -14.5 106t-53.5 34q-28 0 -50.5 -22t-32.5 -56v-381h-57v700h57v-240h2q39 52 100 52q55 0 80.5 -39.5t25.5 -134.5v-338zM-22 767l86 103h36l82 -104v-17h-51l-38 51l-12 35l-12 -34l-42 -52h-49v18z" />
    <glyph glyph-name="Hbar" unicode="&#x126;" horiz-adv-x="448" 
d="M9 527v53h51v120h59v-120h211v120h59v-120h50v-53h-50v-527h-59v332h-211v-332h-59v527h-51zM119 387h211v140h-211v-140z" />
    <glyph glyph-name="hbar" unicode="&#x127;" horiz-adv-x="355" 
d="M-4 578v53h52v69h57v-69h104v-53h-104v-118h2q39 52 100 52q55 0 80.5 -39.5t25.5 -134.5v-338h-57v319q0 72 -14.5 106t-53.5 34q-28 0 -50.5 -22t-32.5 -56v-381h-57v578h-52z" />
    <glyph glyph-name="Itilde" unicode="&#x128;" horiz-adv-x="187" 
d="M64 0v700h59v-700h-59zM4 748l-24 24q45 60 85 60q17 0 44 -15t39 -15q19 0 36 21l25 -27q-37 -51 -71 -51q-16 0 -44 15.5t-42 15.5q-21 0 -48 -28z" />
    <glyph glyph-name="itilde" unicode="&#x129;" horiz-adv-x="175" 
d="M59 0v500h57v-500h-57zM10 625l-23 26q42 58 74 58q15 0 39 -19t37 -19q14 0 30 19l22 -26q-37 -51 -67 -51q-15 0 -38.5 18t-34.5 18q-19 0 -39 -24z" />
    <glyph glyph-name="Imacron" unicode="&#x12a;" horiz-adv-x="187" 
d="M64 0v700h59v-700h-59zM-10 764v56h208v-56h-208z" />
    <glyph glyph-name="imacron" unicode="&#x12b;" horiz-adv-x="175" 
d="M59 0v500h57v-500h-57zM-9 588v52h195v-52h-195z" />
    <glyph glyph-name="Ibreve" unicode="&#x12c;" horiz-adv-x="187" 
d="M64 0v700h59v-700h-59zM-21 856l32 14q12 -37 34.5 -60t51.5 -23q54 0 82 83l31 -10q-12 -64 -43 -97t-71 -33q-37 0 -70.5 32.5t-46.5 93.5z" />
    <glyph glyph-name="ibreve" unicode="&#x12d;" horiz-adv-x="175" 
d="M59 0v500h57v-500h-57zM-12 702l31 12q25 -82 74 -82q44 0 67 82l30 -10q-4 -57 -31 -93t-67 -36q-39 0 -67.5 33.5t-36.5 93.5z" />
    <glyph glyph-name="Iogonek" unicode="&#x12e;" horiz-adv-x="188" 
d="M64 0v700h59v-700h-12q-37 -35 -37 -91q0 -55 39 -55q11 0 23 4l8 -32q-17 -20 -55 -20q-32 0 -52.5 23t-20.5 62q0 70 57 109h-9z" />
    <glyph glyph-name="iogonek" unicode="&#x12f;" horiz-adv-x="175" 
d="M58 0v500h57v-500h-12q-38 -38 -38 -91q0 -22 10.5 -38.5t27.5 -16.5q13 0 26 9l7 -36q-17 -21 -59 -21q-30 0 -47.5 23.5t-17.5 64.5q0 69 51 106h-5zM47 655q0 23 10.5 35.5t28.5 12.5t29 -12t11 -36q0 -46 -40 -46q-39 0 -39 46z" />
    <glyph glyph-name="Idotaccent" unicode="&#x130;" horiz-adv-x="187" 
d="M64 0v700h59v-700h-59zM51 797q0 21 11.5 35.5t31.5 14.5t32 -14.5t12 -35.5q0 -22 -12 -36.5t-32 -14.5t-31.5 14.5t-11.5 36.5z" />
    <glyph glyph-name="dotlessi" unicode="&#x131;" horiz-adv-x="175" 
d="M59 0v500h57v-500h-57z" />
    <glyph glyph-name="Jcircumflex" unicode="&#x134;" horiz-adv-x="194" 
d="M75 159v541h59v-549q0 -85 -20 -122.5t-76 -37.5q-39 0 -61 14l14 52q17 -11 39 -11q29 0 37 26t8 87zM1 767l86 103h36l82 -104v-17h-51l-38 51l-12 35l-12 -34l-42 -52h-49v18z" />
    <glyph glyph-name="jcircumflex" unicode="&#x135;" horiz-adv-x="174" 
d="M59 0v500h57v-528q0 -95 -23 -140t-73 -45q-10 0 -16 1v52q34 0 44.5 37t10.5 123zM-1 550l80 182h27l71 -182h-49l-26 66l-13 60l-14 -60l-29 -66h-47z" />
    <glyph glyph-name="Kcommaaccent" unicode="&#x136;" horiz-adv-x="398" 
d="M304 0l-162 329h-30v-329h-59v700h59v-329l28 14l149 315h68l-149 -303l-28 -32l33 -40l165 -325h-74zM156 -101q0 19 10 31t24 12q43 0 43 -72q0 -42 -17.5 -70.5t-36.5 -38.5l-24 20q34 32 34 76v4h-3q-30 0 -30 38z" />
    <glyph glyph-name="kcommaaccent" unicode="&#x137;" horiz-adv-x="312" 
d="M239 0l-104 229h-30v-229h-57v700h57v-429l27 14l96 215h65l-96 -203l-28 -32l33 -40l105 -225h-68zM119 -101q0 19 10 31t24 12q43 0 43 -72q0 -42 -17.5 -70.5t-36.5 -38.5l-24 20q34 32 34 76v4h-3q-30 0 -30 38z" />
    <glyph glyph-name="kgreenlandic" unicode="&#x138;" horiz-adv-x="311" 
d="M240 0l-104 229h-31v-229h-57v500h57v-229l29 14l100 215h59l-98 -203l-27 -32l34 -40l105 -225h-67z" />
    <glyph glyph-name="Lacute" unicode="&#x139;" horiz-adv-x="336" 
d="M325 55v-55h-272v700h59v-645h213zM59 752l75 118h79v-19l-105 -99h-49z" />
    <glyph glyph-name="lacute" unicode="&#x13a;" horiz-adv-x="188" 
d="M110 700v-594q0 -62 29 -62q21 0 39 9l6 -46q-21 -16 -63 -16q-68 0 -68 100v609h57zM59 752l75 118h79v-19l-105 -99h-49z" />
    <glyph glyph-name="Lcommaaccent" unicode="&#x13b;" horiz-adv-x="336" 
d="M325 55v-55h-272v700h59v-645h213zM130 -101q0 19 10 31t24 12q43 0 43 -72q0 -42 -17.5 -70.5t-36.5 -38.5l-24 20q34 32 34 76v4h-3q-30 0 -30 38z" />
    <glyph glyph-name="lcommaaccent" unicode="&#x13c;" horiz-adv-x="188" 
d="M110 700v-594q0 -62 29 -62q21 0 39 9l6 -46q-21 -16 -63 -16q-68 0 -68 100v609h57zM78 -101q0 19 10 31t24 12q43 0 43 -72q0 -42 -17.5 -70.5t-36.5 -38.5l-24 20q34 32 34 76v4h-3q-30 0 -30 38z" />
    <glyph glyph-name="Lcaron" unicode="&#x13d;" horiz-adv-x="336" 
d="M325 55v-55h-272v700h59v-645h213zM232 700h59q-3 -52 -22.5 -106t-36.5 -78l-23 11q23 74 23 173z" />
    <glyph glyph-name="lcaron" unicode="&#x13e;" horiz-adv-x="188" 
d="M110 700v-594q0 -62 29 -62q21 0 39 9l6 -46q-21 -16 -63 -16q-68 0 -68 100v609h57zM155 700h59q-3 -52 -22.5 -106t-36.5 -78l-23 11q23 74 23 173z" />
    <glyph glyph-name="Ldot" unicode="&#x13f;" horiz-adv-x="336" 
d="M205 395q0 22 10.5 35t28.5 13q19 0 29.5 -13t10.5 -35q0 -21 -11 -33.5t-29 -12.5q-39 0 -39 46zM325 55v-55h-272v700h59v-645h213z" />
    <glyph glyph-name="ldot" unicode="&#x140;" horiz-adv-x="200" 
d="M145 364q0 21 10 34.5t26 13.5q17 0 27.5 -13.5t10.5 -34.5t-10.5 -33.5t-27.5 -12.5q-16 0 -26 12.5t-10 33.5zM110 700v-594q0 -62 29 -62q21 0 39 9l6 -46q-21 -16 -63 -16q-68 0 -68 100v609h57z" />
    <glyph glyph-name="Lslash" unicode="&#x141;" horiz-adv-x="336" 
d="M15 214v72l38 43v371h59v-304l77 88v-76l-77 -86v-267h213v-55h-272v256z" />
    <glyph glyph-name="lslash" unicode="&#x142;" horiz-adv-x="185" 
d="M5 214v72l48 54v360h57v-295l69 79v-76l-69 -77v-225q0 -62 29 -62q21 0 39 9l6 -46q-21 -16 -63 -16q-68 0 -68 100v176z" />
    <glyph glyph-name="Nacute" unicode="&#x143;" horiz-adv-x="436" 
d="M347 -12l-212 468l-33 115h-2l10 -115v-456h-57v712h36l212 -467l32 -109h3l-10 109v455h57v-712h-36zM196 752l75 118h79v-19l-105 -99h-49z" />
    <glyph glyph-name="nacute" unicode="&#x144;" horiz-adv-x="355" 
d="M313 0h-57v320q0 77 -14.5 108t-51.5 31q-58 0 -85 -75v-384h-57v500h41l10 -46h2q41 58 104 58q56 0 82 -38.5t26 -135.5v-338zM160 572l38 148h62v-19l-66 -129h-34z" />
    <glyph glyph-name="Ncommaaccent" unicode="&#x145;" horiz-adv-x="436" 
d="M347 -12l-212 468l-33 115h-2l10 -115v-456h-57v712h36l212 -467l32 -109h3l-10 109v455h57v-712h-36zM184 -101q0 19 10 31t24 12q43 0 43 -72q0 -42 -17.5 -70.5t-36.5 -38.5l-24 20q34 32 34 76v4h-3q-30 0 -30 38z" />
    <glyph glyph-name="ncommaaccent" unicode="&#x146;" horiz-adv-x="355" 
d="M313 0h-57v320q0 77 -14.5 108t-51.5 31q-58 0 -85 -75v-384h-57v500h41l10 -46h2q41 58 104 58q56 0 82 -38.5t26 -135.5v-338zM140 -101q0 19 10 31t24 12q43 0 43 -72q0 -42 -17.5 -70.5t-36.5 -38.5l-24 20q34 32 34 76v4h-3q-30 0 -30 38z" />
    <glyph glyph-name="Ncaron" unicode="&#x147;" horiz-adv-x="436" 
d="M347 -12l-212 468l-33 115h-2l10 -115v-456h-57v712h36l212 -467l32 -109h3l-10 109v455h57v-712h-36zM325 852l-86 -104h-42l-82 105v17h55l38 -51l11 -35l13 34l40 52h53v-18z" />
    <glyph glyph-name="ncaron" unicode="&#x148;" horiz-adv-x="355" 
d="M313 0h-57v320q0 77 -14.5 108t-51.5 31q-58 0 -85 -75v-384h-57v500h41l10 -46h2q41 58 104 58q56 0 82 -38.5t26 -135.5v-338zM272 732l-81 -182h-29l-75 182h54l25 -66l14 -60l14 60l29 66h49z" />
    <glyph glyph-name="napostrophe" unicode="&#x149;" horiz-adv-x="355" 
d="M313 0h-57v320q0 77 -14.5 108t-51.5 31q-58 0 -85 -75v-384h-57v500h41l10 -46h2q41 58 104 58q56 0 82 -38.5t26 -135.5v-338zM-25 662q0 20 11.5 33t27.5 13q43 0 43 -61q0 -94 -59 -136l-21 21q35 31 35 82v4h-5q-13 1 -22.5 13t-9.5 31z" />
    <glyph glyph-name="Eng" unicode="&#x14a;" horiz-adv-x="436" 
d="M327 0v31l-192 425l-33 114h-2l10 -114v-456h-57v712h36l212 -467l32 -109h3l-10 109v455h57v-728q0 -96 -21.5 -140.5t-72.5 -44.5q-11 0 -17 1v54q35 0 45 35t10 123z" />
    <glyph glyph-name="eng" unicode="&#x14b;" horiz-adv-x="355" 
d="M256 0v320q0 77 -14.5 108t-51.5 31q-58 0 -85 -75v-384h-57v500h41l10 -46h2q41 58 104 58q56 0 82 -38.5t26 -135.5v-366q0 -93 -22.5 -135.5t-71.5 -42.5q-12 0 -18 1v52q35 0 45 34t10 119z" />
    <glyph glyph-name="Omacron" unicode="&#x14c;" horiz-adv-x="443" 
d="M35 350q0 182 44.5 272t141.5 90q102 0 144.5 -91.5t42.5 -270.5q0 -183 -44.5 -272.5t-142.5 -89.5q-101 0 -143.5 92t-42.5 270zM95 350q0 -85 11.5 -151.5t41 -111t73.5 -44.5q127 0 127 307q0 134 -30.5 220.5t-96.5 86.5q-126 0 -126 -307zM117 764v56h208v-56h-208
z" />
    <glyph glyph-name="omacron" unicode="&#x14d;" horiz-adv-x="348" 
d="M30 250q0 137 36.5 199.5t107.5 62.5q75 0 109.5 -61t34.5 -201q0 -139 -36 -200.5t-108 -61.5q-75 0 -109.5 61t-34.5 201zM89 250q0 -209 85 -209q44 0 64.5 49t20.5 160q0 209 -85 209t-85 -209zM77 588v52h195v-52h-195z" />
    <glyph glyph-name="Obreve" unicode="&#x14e;" horiz-adv-x="443" 
d="M35 350q0 182 44.5 272t141.5 90q102 0 144.5 -91.5t42.5 -270.5q0 -183 -44.5 -272.5t-142.5 -89.5q-101 0 -143.5 92t-42.5 270zM95 350q0 -85 11.5 -151.5t41 -111t73.5 -44.5q127 0 127 307q0 134 -30.5 220.5t-96.5 86.5q-126 0 -126 -307zM106 856l32 14
q12 -37 34.5 -60t51.5 -23q54 0 82 83l31 -10q-12 -64 -43 -97t-71 -33q-37 0 -70.5 32.5t-46.5 93.5z" />
    <glyph glyph-name="obreve" unicode="&#x14f;" horiz-adv-x="348" 
d="M30 250q0 137 36.5 199.5t107.5 62.5q75 0 109.5 -61t34.5 -201q0 -139 -36 -200.5t-108 -61.5q-75 0 -109.5 61t-34.5 201zM89 250q0 -209 85 -209q44 0 64.5 49t20.5 160q0 209 -85 209t-85 -209zM73 702l31 12q25 -82 74 -82q44 0 67 82l30 -10q-4 -57 -31 -93
t-67 -36q-39 0 -67.5 33.5t-36.5 93.5z" />
    <glyph glyph-name="Ohungarumlaut" unicode="&#x150;" horiz-adv-x="443" 
d="M35 350q0 182 44.5 272t141.5 90q102 0 144.5 -91.5t42.5 -270.5q0 -183 -44.5 -272.5t-142.5 -89.5q-101 0 -143.5 92t-42.5 270zM95 350q0 -85 11.5 -151.5t41 -111t73.5 -44.5q127 0 127 307q0 134 -30.5 220.5t-96.5 86.5q-126 0 -126 -307zM153 741l41 109h65v-16
l-65 -93h-41zM237 741l66 109h69v-16l-93 -93h-42z" />
    <glyph glyph-name="ohungarumlaut" unicode="&#x151;" horiz-adv-x="348" 
d="M30 250q0 137 36.5 199.5t107.5 62.5q75 0 109.5 -61t34.5 -201q0 -139 -36 -200.5t-108 -61.5q-75 0 -109.5 61t-34.5 201zM89 250q0 -209 85 -209q44 0 64.5 49t20.5 160q0 209 -85 209t-85 -209zM109 571l22 129h55v-16l-47 -113h-30zM182 571l48 129h59v-16l-74 -113
h-33z" />
    <glyph glyph-name="OE" unicode="&#x152;" horiz-adv-x="604" 
d="M310 59v578q-33 20 -89 20q-126 0 -126 -307q0 -85 12.5 -151.5t43 -111t75.5 -44.5q50 0 84 16zM310 0q-36 -12 -89 -12q-186 0 -186 362q0 177 47 269.5t139 92.5q44 0 89 -12h251v-55h-192v-257h176v-55h-176v-278h195v-55h-254z" />
    <glyph glyph-name="oe" unicode="&#x153;" horiz-adv-x="558" 
d="M89 250q0 -56 8 -101.5t28 -76.5t49 -31q85 0 85 209q0 88 -21 148.5t-64 60.5q-41 0 -63 -54t-22 -155zM288 74q-33 -86 -114 -86q-144 0 -144 262q0 126 37.5 194t106.5 68q82 0 113 -84q38 84 114 84q124 0 124 -182q0 -51 -4 -82h-207q2 -207 108 -207q21 0 43.5 9.5
t34.5 23.5l21 -43q-40 -43 -117 -43q-41 0 -71.5 23.5t-44.5 62.5zM401 459q-77 0 -86 -160h156v11q0 73 -18.5 111t-51.5 38z" />
    <glyph glyph-name="Racute" unicode="&#x154;" horiz-adv-x="387" 
d="M53 0v693q57 15 115 15q156 0 156 -191q0 -162 -103 -194l31 -41l112 -282h-67l-124 314l-61 16v-330h-59zM172 653q-42 0 -60 -6v-278h49q103 0 103 147q0 61 -23.5 99t-68.5 38zM134 752l75 118h79v-19l-105 -99h-49z" />
    <glyph glyph-name="racute" unicode="&#x155;" horiz-adv-x="220" 
d="M216 500l-11 -60q-21 9 -38 9q-49 0 -62 -58v-391h-57v500h40l11 -46h2q24 54 74 54q17 0 41 -8zM90 572l38 148h62v-19l-66 -129h-34z" />
    <glyph glyph-name="Rcommaaccent" unicode="&#x156;" horiz-adv-x="387" 
d="M53 0v693q57 15 115 15q156 0 156 -191q0 -162 -103 -194l31 -41l112 -282h-67l-124 314l-61 16v-330h-59zM172 653q-42 0 -60 -6v-278h49q103 0 103 147q0 61 -23.5 99t-68.5 38zM159 -101q0 19 10 31t24 12q43 0 43 -72q0 -42 -17.5 -70.5t-36.5 -38.5l-24 20
q34 32 34 76v4h-3q-30 0 -30 38z" />
    <glyph glyph-name="rcommaaccent" unicode="&#x157;" horiz-adv-x="220" 
d="M216 500l-11 -60q-21 9 -38 9q-49 0 -62 -58v-391h-57v500h40l11 -46h2q24 54 74 54q17 0 41 -8zM48 -101q0 19 10 31t24 12q43 0 43 -72q0 -42 -17.5 -70.5t-36.5 -38.5l-24 20q34 32 34 76v4h-3q-30 0 -30 38z" />
    <glyph glyph-name="Rcaron" unicode="&#x158;" horiz-adv-x="387" 
d="M53 0v693q57 15 115 15q156 0 156 -191q0 -162 -103 -194l31 -41l112 -282h-67l-124 314l-61 16v-330h-59zM172 653q-42 0 -60 -6v-278h49q103 0 103 147q0 61 -23.5 99t-68.5 38zM271 852l-86 -104h-42l-82 105v17h55l38 -51l11 -35l13 34l40 52h53v-18z" />
    <glyph glyph-name="rcaron" unicode="&#x159;" horiz-adv-x="220" 
d="M216 500l-11 -60q-21 9 -38 9q-49 0 -62 -58v-391h-57v500h40l11 -46h2q24 54 74 54q17 0 41 -8zM215 732l-81 -182h-29l-75 182h54l25 -66l14 -60l14 60l29 66h49z" />
    <glyph glyph-name="Sacute" unicode="&#x15a;" horiz-adv-x="345" 
d="M257 163q0 43 -22.5 83t-54.5 73t-63.5 67t-54 79.5t-22.5 95.5q0 77 41 114t108 37q73 0 119 -31l-19 -54q-38 30 -101 30q-45 0 -67 -25.5t-22 -68.5q0 -37 22.5 -73.5t54.5 -69.5t63.5 -68.5t54 -83.5t22.5 -102q0 -84 -43 -131t-123 -47t-124 35l21 57
q41 -37 105 -37q50 0 77.5 30.5t27.5 89.5zM157 752l75 118h79v-19l-105 -99h-49z" />
    <glyph glyph-name="sacute" unicode="&#x15b;" horiz-adv-x="272" 
d="M189 110q0 37 -16 66.5t-38.5 50t-45.5 42t-39 53.5t-16 74q0 55 29.5 85.5t80.5 30.5q61 0 95 -24l-16 -50q-34 21 -72 21q-60 0 -60 -62q0 -29 16 -54t38.5 -45.5t45.5 -44t39 -60t16 -82.5q0 -51 -32.5 -87t-90.5 -36q-60 0 -99 25l17 53q39 -25 80 -25q29 0 48.5 18
t19.5 51zM118 572l38 148h62v-19l-66 -129h-34z" />
    <glyph glyph-name="Scircumflex" unicode="&#x15c;" horiz-adv-x="345" 
d="M257 163q0 43 -22.5 83t-54.5 73t-63.5 67t-54 79.5t-22.5 95.5q0 77 41 114t108 37q73 0 119 -31l-19 -54q-38 30 -101 30q-45 0 -67 -25.5t-22 -68.5q0 -37 22.5 -73.5t54.5 -69.5t63.5 -68.5t54 -83.5t22.5 -102q0 -84 -43 -131t-123 -47t-124 35l21 57
q41 -37 105 -37q50 0 77.5 30.5t27.5 89.5zM85 767l86 103h36l82 -104v-17h-51l-38 51l-12 35l-12 -34l-42 -52h-49v18z" />
    <glyph glyph-name="scircumflex" unicode="&#x15d;" horiz-adv-x="272" 
d="M189 110q0 37 -16 66.5t-38.5 50t-45.5 42t-39 53.5t-16 74q0 55 29.5 85.5t80.5 30.5q61 0 95 -24l-16 -50q-34 21 -72 21q-60 0 -60 -62q0 -29 16 -54t38.5 -45.5t45.5 -44t39 -60t16 -82.5q0 -51 -32.5 -87t-90.5 -36q-60 0 -99 25l17 53q39 -25 80 -25q29 0 48.5 18
t19.5 51zM53 550l80 182h27l71 -182h-49l-26 66l-13 60l-14 -60l-29 -66h-47z" />
    <glyph glyph-name="Scedilla" unicode="&#x15e;" horiz-adv-x="345" 
d="M257 163q0 43 -22.5 83t-54.5 73t-63.5 67t-54 79.5t-22.5 95.5q0 77 41 114t108 37q73 0 119 -31l-19 -54q-38 30 -101 30q-45 0 -67 -25.5t-22 -68.5q0 -37 22.5 -73.5t54.5 -69.5t63.5 -68.5t54 -83.5t22.5 -102q0 -75 -35 -121t-100 -55l-12 -33q52 -16 52 -75
q0 -39 -23.5 -64t-61.5 -25q-13 0 -28 3l6 37q5 -1 13 -1q42 0 42 41q0 29 -56 38l27 77q-72 2 -114 35l21 57q41 -37 105 -37q50 0 77.5 30.5t27.5 89.5z" />
    <glyph glyph-name="scedilla" unicode="&#x15f;" horiz-adv-x="272" 
d="M189 110q0 37 -16 66.5t-38.5 50t-45.5 42t-39 53.5t-16 74q0 55 29.5 85.5t80.5 30.5q61 0 95 -24l-16 -50q-34 21 -72 21q-60 0 -60 -62q0 -29 16 -54t38.5 -45.5t45.5 -44t39 -60t16 -82.5q0 -44 -25 -78t-71 -43l-12 -33q52 -16 52 -75q0 -39 -23.5 -64t-61.5 -25
q-13 0 -28 3l6 37q5 -1 13 -1q42 0 42 41q0 29 -56 38l28 77q-54 3 -86 25l17 53q39 -25 80 -25q29 0 48.5 18t19.5 51z" />
    <glyph glyph-name="Scaron" unicode="&#x160;" horiz-adv-x="345" 
d="M257 163q0 43 -22.5 83t-54.5 73t-63.5 67t-54 79.5t-22.5 95.5q0 77 41 114t108 37q73 0 119 -31l-19 -54q-38 30 -101 30q-45 0 -67 -25.5t-22 -68.5q0 -37 22.5 -73.5t54.5 -69.5t63.5 -68.5t54 -83.5t22.5 -102q0 -84 -43 -131t-123 -47t-124 35l21 57
q41 -37 105 -37q50 0 77.5 30.5t27.5 89.5zM292 852l-86 -104h-42l-82 105v17h55l38 -51l11 -35l13 34l40 52h53v-18z" />
    <glyph glyph-name="scaron" unicode="&#x161;" horiz-adv-x="272" 
d="M189 110q0 37 -16 66.5t-38.5 50t-45.5 42t-39 53.5t-16 74q0 55 29.5 85.5t80.5 30.5q61 0 95 -24l-16 -50q-34 21 -72 21q-60 0 -60 -62q0 -29 16 -54t38.5 -45.5t45.5 -44t39 -60t16 -82.5q0 -51 -32.5 -87t-90.5 -36q-60 0 -99 25l17 53q39 -25 80 -25q29 0 48.5 18
t19.5 51zM229 732l-81 -182h-29l-75 182h54l25 -66l14 -60l14 60l29 66h49z" />
    <glyph glyph-name="Tcedilla" unicode="&#x162;" horiz-adv-x="362" 
d="M351 700v-55h-140v-645h-8l-16 -43q52 -16 52 -75q0 -39 -23.5 -64t-61.5 -25q-13 0 -28 3l6 37q5 -1 13 -1q42 0 42 41q0 29 -56 38l32 89h-11v645h-141v55h340z" />
    <glyph glyph-name="tcedilla" unicode="&#x163;" horiz-adv-x="221" 
d="M8 447v53h50v100l57 20v-120h87v-53h-87v-329q0 -74 36 -74q26 0 53 11l12 -45q-24 -13 -59 -18l-13 -35q52 -16 52 -75q0 -39 -23.5 -64t-61.5 -25q-13 0 -28 3l6 37q5 -1 13 -1q42 0 42 41q0 29 -56 38l29 81q-59 10 -59 124v331h-50z" />
    <glyph glyph-name="Tcaron" unicode="&#x164;" horiz-adv-x="363" 
d="M351 700v-55h-140v-645h-59v645h-140v55h339zM286 852l-86 -104h-42l-82 105v17h55l38 -51l11 -35l13 34l40 52h53v-18z" />
    <glyph glyph-name="tcaron" unicode="&#x165;" horiz-adv-x="221" 
d="M8 447v53h50v100l57 20v-120h87v-53h-87v-329q0 -74 36 -74q26 0 53 11l12 -45q-35 -19 -84 -19q-39 0 -56.5 30t-17.5 95v331h-50zM163 712h59q-3 -52 -22.5 -106t-36.5 -78l-23 11q23 74 23 173z" />
    <glyph glyph-name="Tbar" unicode="&#x166;" horiz-adv-x="384" 
d="M362 700v-55h-140v-249h139v-55h-139v-341h-59v341h-139v55h139v249h-141v55h340z" />
    <glyph glyph-name="tbar" unicode="&#x167;" horiz-adv-x="244" 
d="M21 447v53h50v100l57 20v-120h87v-53h-87v-162h87v-53h-87v-96q0 -52 8.5 -73.5t28.5 -21.5q26 0 53 17l12 -48q-32 -22 -84 -22q-40 0 -57.5 35t-17.5 115v94h-50v53h50v162h-50z" />
    <glyph glyph-name="Utilde" unicode="&#x168;" horiz-adv-x="418" 
d="M311 252v448h57v-474q0 -123 -37.5 -178.5t-116.5 -55.5q-88 0 -126 52t-38 166v490h59v-448q0 -114 22.5 -159.5t83.5 -45.5q56 0 76 46.5t20 158.5zM121 748l-24 24q45 60 85 60q17 0 44 -15t39 -15q19 0 36 21l25 -27q-37 -51 -71 -51q-16 0 -44 15.5t-42 15.5
q-21 0 -48 -28z" />
    <glyph glyph-name="utilde" unicode="&#x169;" horiz-adv-x="350" 
d="M43 500h57v-326q0 -74 12.5 -103.5t41.5 -29.5q32 0 55.5 29t35.5 69v361h57v-360q0 -89 8 -140h-41l-14 64h-2q-15 -32 -42 -54t-63 -22q-55 0 -80 35.5t-25 135.5v341zM90 625l-23 26q42 58 74 58q16 0 40 -19t36 -19q14 0 30 19l22 -26q-37 -51 -67 -51
q-15 0 -38.5 18t-34.5 18q-19 0 -39 -24z" />
    <glyph glyph-name="Umacron" unicode="&#x16a;" horiz-adv-x="418" 
d="M311 252v448h57v-474q0 -123 -37.5 -178.5t-116.5 -55.5q-88 0 -126 52t-38 166v490h59v-448q0 -114 22.5 -159.5t83.5 -45.5q56 0 76 46.5t20 158.5zM106 764v56h208v-56h-208z" />
    <glyph glyph-name="umacron" unicode="&#x16b;" horiz-adv-x="350" 
d="M43 500h57v-326q0 -74 12.5 -103.5t41.5 -29.5q32 0 55.5 29t35.5 69v361h57v-360q0 -89 8 -140h-41l-14 64h-2q-15 -32 -42 -54t-63 -22q-55 0 -80 35.5t-25 135.5v341zM74 588v52h195v-52h-195z" />
    <glyph glyph-name="Ubreve" unicode="&#x16c;" horiz-adv-x="418" 
d="M311 252v448h57v-474q0 -123 -37.5 -178.5t-116.5 -55.5q-88 0 -126 52t-38 166v490h59v-448q0 -114 22.5 -159.5t83.5 -45.5q56 0 76 46.5t20 158.5zM95 856l32 14q12 -37 34.5 -60t51.5 -23q54 0 82 83l31 -10q-12 -64 -43 -97t-71 -33q-37 0 -70.5 32.5t-46.5 93.5z
" />
    <glyph glyph-name="ubreve" unicode="&#x16d;" horiz-adv-x="350" 
d="M43 500h57v-326q0 -74 12.5 -103.5t41.5 -29.5q32 0 55.5 29t35.5 69v361h57v-360q0 -89 8 -140h-41l-14 64h-2q-15 -32 -42 -54t-63 -22q-55 0 -80 35.5t-25 135.5v341zM68 702l31 12q25 -82 74 -82q44 0 67 82l30 -10q-4 -57 -31 -93t-67 -36q-39 0 -67.5 33.5
t-36.5 93.5z" />
    <glyph glyph-name="Uring" unicode="&#x16e;" horiz-adv-x="418" 
d="M311 252v448h57v-474q0 -123 -37.5 -178.5t-116.5 -55.5q-88 0 -126 52t-38 166v490h59v-448q0 -114 22.5 -159.5t83.5 -45.5q56 0 76 46.5t20 158.5zM137 767q0 38 18.5 61t54.5 23q35 0 54.5 -21.5t19.5 -62.5q0 -37 -19.5 -59.5t-54.5 -22.5q-34 0 -53.5 22t-19.5 60z
M182 767q0 -45 28 -45q29 0 29 45q0 47 -29 47q-28 0 -28 -47z" />
    <glyph glyph-name="uring" unicode="&#x16f;" horiz-adv-x="350" 
d="M43 500h57v-326q0 -74 12.5 -103.5t41.5 -29.5q32 0 55.5 29t35.5 69v361h57v-360q0 -89 8 -140h-41l-14 64h-2q-15 -32 -42 -54t-63 -22q-55 0 -80 35.5t-25 135.5v341zM102 642q0 41 17.5 63.5t49.5 22.5q68 0 68 -86q0 -39 -18 -62.5t-50 -23.5q-67 0 -67 86zM142 642
q0 -51 27 -51q28 0 28 51q0 52 -28 52q-27 0 -27 -52z" />
    <glyph glyph-name="Uhungarumlaut" unicode="&#x170;" horiz-adv-x="418" 
d="M311 252v448h57v-474q0 -123 -37.5 -178.5t-116.5 -55.5q-88 0 -126 52t-38 166v490h59v-448q0 -114 22.5 -159.5t83.5 -45.5q56 0 76 46.5t20 158.5zM134 741l41 109h65v-16l-65 -93h-41zM218 741l66 109h69v-16l-93 -93h-42z" />
    <glyph glyph-name="uhungarumlaut" unicode="&#x171;" horiz-adv-x="350" 
d="M43 500h57v-326q0 -74 12.5 -103.5t41.5 -29.5q32 0 55.5 29t35.5 69v361h57v-360q0 -89 8 -140h-41l-14 64h-2q-15 -32 -42 -54t-63 -22q-55 0 -80 35.5t-25 135.5v341zM110 571l22 129h55v-16l-47 -113h-30zM183 571l48 129h59v-16l-74 -113h-33z" />
    <glyph glyph-name="Uogonek" unicode="&#x172;" horiz-adv-x="418" 
d="M311 252v448h57v-474q0 -188 -94 -224q-39 -36 -39 -93q0 -55 39 -55q11 0 23 4l8 -32q-17 -20 -57 -20q-32 0 -51.5 23.5t-19.5 61.5q0 62 47 101h-10q-88 0 -126 52t-38 166v490h59v-448q0 -114 22.5 -159.5t83.5 -45.5q56 0 76 46.5t20 158.5z" />
    <glyph glyph-name="uogonek" unicode="&#x173;" horiz-adv-x="350" 
d="M43 500h57v-326q0 -74 12.5 -103.5t41.5 -29.5q32 0 55.5 29t35.5 69v361h57v-360q0 -89 8 -140h-11q-44 -39 -44 -95q0 -22 10 -36.5t27 -14.5q14 0 26 9l8 -36q-24 -21 -59 -21q-30 0 -48 22t-18 62q0 81 66 116l-12 58h-2q-15 -32 -42 -54t-63 -22q-55 0 -80 35.5
t-25 135.5v341z" />
    <glyph glyph-name="Wcircumflex" unicode="&#x174;" horiz-adv-x="542" 
d="M69 700l76 -476l11 -116h1l10 118l90 474h37l90 -475l9 -117h1l12 118l72 474h59l-126 -712h-38l-89 471l-10 107h-3l-11 -108l-90 -470h-37l-129 712h65zM174 767l86 103h36l82 -104v-17h-51l-38 51l-12 35l-12 -34l-42 -52h-49v18z" />
    <glyph glyph-name="wcircumflex" unicode="&#x175;" horiz-adv-x="476" 
d="M221 500h42l72 -300l15 -99h2l12 101l57 298h52l-108 -512h-31l-84 337l-10 90h-2l-10 -91l-81 -336h-32l-111 512h58l65 -300l11 -99h1l15 101zM150 550l80 182h27l71 -182h-49l-26 66l-13 60l-14 -60l-29 -66h-47z" />
    <glyph glyph-name="Ycircumflex" unicode="&#x176;" horiz-adv-x="367" 
d="M155 0v282l-150 418h68l103 -312l10 -58h2l11 60l100 310h63l-148 -417v-283h-59zM82 767l86 103h36l82 -104v-17h-51l-38 51l-12 35l-12 -34l-42 -52h-49v18z" />
    <glyph glyph-name="ycircumflex" unicode="&#x177;" horiz-adv-x="302" 
d="M68 500l79 -333l18 -100h3l13 101l63 332h56l-96 -449q-14 -68 -23.5 -105.5t-24 -77t-31.5 -56.5t-39 -17t-37 8l9 57q8 -2 13 -2q23 0 38.5 32t26.5 110l-131 500h63zM69 550l80 182h27l71 -182h-49l-26 66l-13 60l-14 -60l-29 -66h-47z" />
    <glyph glyph-name="Ydieresis" unicode="&#x178;" horiz-adv-x="367" 
d="M155 0v282l-150 418h68l103 -312l10 -58h2l11 60l100 310h63l-148 -417v-283h-59zM86 793q0 20 10.5 32.5t27.5 12.5q16 0 26 -12.5t10 -32.5t-10 -32t-26 -12q-17 0 -27.5 12t-10.5 32zM213 793q0 20 10 32.5t27 12.5t27 -12.5t10 -32.5t-10.5 -32t-26.5 -12t-26.5 12
t-10.5 32z" />
    <glyph glyph-name="Zacute" unicode="&#x179;" horiz-adv-x="357" 
d="M25 0v55l228 550l25 40h-253v55h307v-55l-229 -553l-25 -37h254v-55h-307zM146 752l75 118h79v-19l-105 -99h-49z" />
    <glyph glyph-name="zacute" unicode="&#x17a;" horiz-adv-x="289" 
d="M26 0v53l155 351l28 43h-183v53h235v-53l-157 -354l-27 -40h184v-53h-235zM122 572l38 148h62v-19l-66 -129h-34z" />
    <glyph glyph-name="Zdotaccent" unicode="&#x17b;" horiz-adv-x="357" 
d="M25 0v55l228 550l25 40h-253v55h307v-55l-229 -553l-25 -37h254v-55h-307zM136 797q0 21 11.5 35.5t31.5 14.5t32 -14.5t12 -35.5q0 -22 -12 -36.5t-32 -14.5t-31.5 14.5t-11.5 36.5z" />
    <glyph glyph-name="zdotaccent" unicode="&#x17c;" horiz-adv-x="289" 
d="M26 0v53l155 351l28 43h-183v53h235v-53l-157 -354l-27 -40h184v-53h-235zM107 655q0 23 10.5 35.5t28.5 12.5t29 -12t11 -36q0 -46 -40 -46q-39 0 -39 46z" />
    <glyph glyph-name="Zcaron" unicode="&#x17d;" horiz-adv-x="357" 
d="M25 0v55l228 550l25 40h-253v55h307v-55l-229 -553l-25 -37h254v-55h-307zM280 852l-86 -104h-42l-82 105v17h55l38 -51l11 -35l13 34l40 52h53v-18z" />
    <glyph glyph-name="zcaron" unicode="&#x17e;" horiz-adv-x="289" 
d="M26 0v53l155 351l28 43h-183v53h235v-53l-157 -354l-27 -40h184v-53h-235zM237 732l-81 -182h-29l-75 182h54l25 -66l14 -60l14 60l29 66h49z" />
    <glyph glyph-name="longs" unicode="&#x17f;" horiz-adv-x="168" 
d="M13 447v53h49v28q0 94 22 136t73 42q45 0 74 -15l-14 -48q-23 10 -49 10q-31 0 -40 -31t-9 -122v-500h-57v447h-49z" />
    <glyph glyph-name="uni018F" unicode="&#x18f;" horiz-adv-x="416" 
d="M323 329h-227q-3 -39 -3 -72q0 -95 27 -154.5t81 -59.5q120 0 122 286zM41 384h281q-5 139 -37.5 206t-98.5 67q-49 0 -101 -40l-20 51q65 44 130 44q96 0 141 -85.5t45 -276.5q0 -362 -182 -362q-81 0 -123 71.5t-42 199.5q0 62 7 125z" />
    <glyph glyph-name="florin" unicode="&#x192;" 
d="M311 447h-86l-51 -481q-18 -174 -103 -174q-54 0 -83 18l19 50q28 -15 57 -15q24 0 36.5 38t21.5 125l44 439h-54v53h62l7 67q8 77 29.5 111t67.5 34q48 0 82 -17l-15 -50q-28 14 -56 14q-25 0 -35.5 -26t-16.5 -90l-4 -43h78v-53z" />
    <glyph glyph-name="uni01DD" unicode="&#x1dd;" horiz-adv-x="330" 
d="M62 431l-21 44q42 37 114 37q145 0 145 -262t-141 -262q-59 0 -94 52.5t-35 157.5q0 16 4 74h209q-2 97 -25.5 142t-77.5 45q-50 0 -78 -28zM160 41q39 0 60.5 45.5t21.5 132.5h-157v-10q0 -81 21 -124.5t54 -43.5z" />
    <glyph glyph-name="Gcaron" unicode="&#x1e6;" horiz-adv-x="397" 
d="M207 312v34h156v-308q-45 -50 -130 -50q-198 0 -198 362q0 185 56.5 273.5t145.5 88.5q69 0 110 -24l-14 -54q-35 23 -90 23q-65 0 -106.5 -73.5t-41.5 -233.5q0 -307 147 -307q42 0 70 25v224zM340 852l-86 -104h-42l-82 105v17h55l38 -51l11 -35l13 34l40 52h53v-18z
" />
    <glyph glyph-name="gcaron" unicode="&#x1e7;" horiz-adv-x="349" 
d="M301 478v-506q0 -184 -135 -184q-71 0 -111 28l20 50q44 -25 86 -25q46 0 65 35.5t19 123.5v31h-2q-28 -43 -86 -43q-127 0 -127 262q0 126 40 192t118 66q64 0 113 -30zM171 41q56 0 73 67v332q-22 15 -60 15q-44 0 -69.5 -51t-25.5 -154q0 -94 20 -151.5t62 -57.5z
M268 732l-81 -182h-29l-75 182h54l25 -66l14 -60l14 60l29 66h49z" />
    <glyph glyph-name="uni01F4" unicode="&#x1f4;" horiz-adv-x="397" 
d="M207 312v34h156v-308q-45 -50 -130 -50q-198 0 -198 362q0 185 56.5 273.5t145.5 88.5q69 0 110 -24l-14 -54q-35 23 -90 23q-65 0 -106.5 -73.5t-41.5 -233.5q0 -307 147 -307q42 0 70 25v224zM202 752l75 118h79v-19l-105 -99h-49z" />
    <glyph glyph-name="uni01F5" unicode="&#x1f5;" horiz-adv-x="349" 
d="M301 478v-506q0 -184 -135 -184q-71 0 -111 28l20 50q44 -25 86 -25q46 0 65 35.5t19 123.5v31h-2q-28 -43 -86 -43q-127 0 -127 262q0 126 40 192t118 66q64 0 113 -30zM171 41q56 0 73 67v332q-22 15 -60 15q-44 0 -69.5 -51t-25.5 -154q0 -94 20 -151.5t62 -57.5z
M165 572l38 148h62v-19l-66 -129h-34z" />
    <glyph glyph-name="Aringacute" unicode="&#x1fa;" horiz-adv-x="382" 
d="M118 767q0 38 18.5 61t54.5 23q35 0 54.5 -21.5t19.5 -62.5q0 -66 -53 -80l166 -687h-62l-47 206h-160l-46 -206h-59l165 687q-51 14 -51 80zM173 488l-49 -227h131l-50 229l-15 104h-2zM163 767q0 -45 28 -45q29 0 29 45q0 47 -29 47q-28 0 -28 -47zM155 882l75 118h79
v-19l-105 -99h-49z" />
    <glyph glyph-name="aringacute" unicode="&#x1fb;" horiz-adv-x="322" 
d="M66 429l-21 45q52 34 126 34q62 0 83.5 -39t21.5 -111q0 -42 -2 -118t-2 -108q0 -88 10 -134h-43l-14 49h-3q-28 -53 -97 -53q-46 0 -73.5 37.5t-27.5 101.5q0 150 162 150q22 0 33 -1q2 44 2 58q0 63 -14 89t-50 26q-50 0 -91 -26zM140 47q56 0 79 56v129q-22 2 -33 2
q-103 0 -103 -96q0 -44 15.5 -67.5t41.5 -23.5zM92 642q0 41 17.5 63.5t49.5 22.5q68 0 68 -86q0 -39 -18 -62.5t-50 -23.5q-67 0 -67 86zM132 642q0 -51 27 -51q28 0 28 51q0 52 -28 52q-27 0 -27 -52zM124 752l75 118h79v-19l-105 -99h-49z" />
    <glyph glyph-name="AEacute" unicode="&#x1fc;" horiz-adv-x="551" 
d="M257 595h-2l-21 -95l-88 -239h111v334zM257 0v206h-133l-76 -206h-62l270 700h252v-55h-192v-257h175v-55h-175v-278h195v-55h-254zM272 752l75 118h79v-19l-105 -99h-49z" />
    <glyph glyph-name="aeacute" unicode="&#x1fd;" horiz-adv-x="517" 
d="M141 45q31 0 51 20.5t27 51.5v121q-18 2 -27 2q-109 0 -109 -98q0 -38 16.5 -67.5t41.5 -29.5zM244 65h-5q-34 -73 -109 -73q-48 0 -77 39.5t-29 105.5q0 83 40.5 117t115.5 34q13 0 39 -2q2 44 2 58q0 62 -14 86.5t-50 24.5q-23 0 -50.5 -10t-45.5 -26l-18 45
q48 44 128 44q69 0 88 -66q30 70 102 70q124 0 124 -186q0 -51 -4 -82h-207q1 -105 24.5 -154t77.5 -49q22 0 44.5 8.5t33.5 19.5l21 -44q-43 -37 -114 -37q-40 0 -71.5 20t-45.5 57zM362 459q-78 0 -86 -164h155v16q0 70 -19 109t-50 39zM237 572l38 148h62v-19l-66 -129
h-34z" />
    <glyph glyph-name="Oslashacute" unicode="&#x1fe;" horiz-adv-x="443" 
d="M35 350q0 182 44.5 272t141.5 90q73 0 116 -49l23 50l40 -19l-34 -76q42 -87 42 -268q0 -183 -44.5 -272.5t-142.5 -89.5q-72 0 -114 47l-21 -47l-41 20l32 72q-42 88 -42 270zM95 350q0 -110 20 -186l192 430q-32 63 -86 63q-126 0 -126 -307zM348 350q0 108 -19 184
l-192 -431q32 -60 84 -60q127 0 127 307zM190 752l75 118h79v-19l-105 -99h-49z" />
    <glyph glyph-name="oslashacute" unicode="&#x1ff;" horiz-adv-x="356" 
d="M36 250q0 262 144 262q48 0 81 -30l15 30l41 -21l-25 -52q32 -67 32 -189q0 -262 -144 -262q-53 0 -86 33l-18 -33l-40 24l28 54q-28 63 -28 184zM180 41q85 0 85 209q0 71 -10 117l-134 -286q22 -40 59 -40zM95 250q0 -70 8 -111l131 286q-20 34 -54 34q-85 0 -85 -209z
M152 572l38 148h62v-19l-66 -129h-34z" />
    <glyph glyph-name="Scommaaccent" unicode="&#x218;" horiz-adv-x="345" 
d="M257 163q0 43 -22.5 83t-54.5 73t-63.5 67t-54 79.5t-22.5 95.5q0 77 41 114t108 37q73 0 119 -31l-19 -54q-38 30 -101 30q-45 0 -67 -25.5t-22 -68.5q0 -37 22.5 -73.5t54.5 -69.5t63.5 -68.5t54 -83.5t22.5 -102q0 -84 -43 -131t-123 -47t-124 35l21 57
q41 -37 105 -37q50 0 77.5 30.5t27.5 89.5zM124 -101q0 19 10 31t24 12q43 0 43 -72q0 -42 -17.5 -70.5t-36.5 -38.5l-24 20q34 32 34 76v4h-3q-30 0 -30 38z" />
    <glyph glyph-name="scommaaccent" unicode="&#x219;" horiz-adv-x="272" 
d="M189 110q0 37 -16 66.5t-38.5 50t-45.5 42t-39 53.5t-16 74q0 55 29.5 85.5t80.5 30.5q61 0 95 -24l-16 -50q-34 21 -72 21q-60 0 -60 -62q0 -29 16 -54t38.5 -45.5t45.5 -44t39 -60t16 -82.5q0 -51 -32.5 -87t-90.5 -36q-60 0 -99 25l17 53q39 -25 80 -25q29 0 48.5 18
t19.5 51zM92 -101q0 19 10 31t24 12q43 0 43 -72q0 -42 -17.5 -70.5t-36.5 -38.5l-24 20q34 32 34 76v4h-3q-30 0 -30 38z" />
    <glyph glyph-name="Tcommaaccent" unicode="&#x21a;" horiz-adv-x="363" 
d="M351 700v-55h-140v-645h-59v645h-140v55h339zM144 -101q0 19 10 31t24 12q43 0 43 -72q0 -42 -17.5 -70.5t-36.5 -38.5l-24 20q34 32 34 76v4h-3q-30 0 -30 38z" />
    <glyph glyph-name="tcommaaccent" unicode="&#x21b;" horiz-adv-x="221" 
d="M8 447v53h50v100l57 20v-120h87v-53h-87v-329q0 -74 36 -74q26 0 53 11l12 -45q-35 -19 -84 -19q-39 0 -56.5 30t-17.5 95v331h-50zM87 -101q0 19 10 31t24 12q43 0 43 -72q0 -42 -17.5 -70.5t-36.5 -38.5l-24 20q34 32 34 76v4h-3q-30 0 -30 38z" />
    <glyph glyph-name="uni0237" unicode="&#x237;" horiz-adv-x="174" 
d="M59 0v500h57v-528q0 -95 -23 -140t-73 -45q-10 0 -16 1v52q34 0 44.5 37t10.5 123z" />
    <glyph glyph-name="uni0259" unicode="&#x259;" horiz-adv-x="330" 
d="M62 431l-21 44q42 37 114 37q145 0 145 -262t-141 -262q-59 0 -94 52.5t-35 157.5q0 16 4 74h209q-2 97 -25.5 142t-77.5 45q-50 0 -78 -28zM160 41q39 0 60.5 45.5t21.5 132.5h-157v-10q0 -81 21 -124.5t54 -43.5z" />
    <glyph glyph-name="afii57929" unicode="&#x2bc;" horiz-adv-x="129" 
d="M23 662q0 20 11.5 33t27.5 13q43 0 43 -61q0 -94 -59 -136l-21 21q35 31 35 82v4h-5q-13 1 -22.5 13t-9.5 31z" />
    <glyph glyph-name="circumflex" unicode="&#x2c6;" horiz-adv-x="298" 
d="M60 550l80 182h27l71 -182h-49l-26 66l-13 60l-14 -60l-29 -66h-47z" />
    <glyph glyph-name="caron" unicode="&#x2c7;" horiz-adv-x="305" 
d="M245 732l-81 -182h-29l-75 182h54l25 -66l14 -60l14 60l29 66h49z" />
    <glyph glyph-name="breve" unicode="&#x2d8;" horiz-adv-x="322" 
d="M60 702l31 12q25 -82 74 -82q44 0 67 82l30 -10q-4 -57 -31 -93t-67 -36q-39 0 -67.5 33.5t-36.5 93.5z" />
    <glyph glyph-name="dotaccent" unicode="&#x2d9;" horiz-adv-x="199" 
d="M60 655q0 23 10.5 35.5t28.5 12.5t29 -12t11 -36q0 -46 -40 -46q-39 0 -39 46z" />
    <glyph glyph-name="ring" unicode="&#x2da;" horiz-adv-x="255" 
d="M60 642q0 41 17.5 63.5t49.5 22.5q68 0 68 -86q0 -39 -18 -62.5t-50 -23.5q-67 0 -67 86zM100 642q0 -51 27 -51q28 0 28 51q0 52 -28 52q-27 0 -27 -52z" />
    <glyph glyph-name="ogonek" unicode="&#x2db;" horiz-adv-x="248" 
d="M134 10h33q-48 -35 -48 -101q0 -55 38 -55q9 0 23 4l8 -32q-17 -20 -53 -20q-34 0 -54.5 23t-20.5 59q0 83 74 122z" />
    <glyph glyph-name="tilde" unicode="&#x2dc;" horiz-adv-x="322" 
d="M83 625l-23 26q42 58 74 58q16 0 40 -19t36 -19q14 0 30 19l22 -26q-37 -51 -67 -51q-15 0 -38.5 18t-34.5 18q-19 0 -39 -24z" />
    <glyph glyph-name="hungarumlaut" unicode="&#x2dd;" horiz-adv-x="300" 
d="M60 571l22 129h55v-16l-47 -113h-30zM133 571l48 129h59v-16l-74 -113h-33z" />
    <glyph glyph-name="gravecomb" unicode="&#x300;" horiz-adv-x="2" 
d="M-178 720l42 -148h-32l-76 129v19h66z" />
    <glyph glyph-name="acutecomb" unicode="&#x301;" horiz-adv-x="2" 
d="M-192 572l38 148h62v-19l-66 -129h-34z" />
    <glyph glyph-name="uni0394" unicode="&#x394;" horiz-adv-x="371" 
d="M364 0h-355v30l163 682h26l166 -682v-30zM165 472l-96 -422h231l-101 424l-15 121h-3z" />
    <glyph glyph-name="uni0394" unicode="&#x2206;" horiz-adv-x="371" 
d="M364 0h-355v30l163 682h26l166 -682v-30zM165 472l-96 -422h231l-101 424l-15 121h-3z" />
    <glyph glyph-name="uni03A9" unicode="&#x3a9;" horiz-adv-x="517" 
d="M47 0v55h74l60 -10v26l-34 10q-43 32 -71 111t-28 179q0 158 56.5 249.5t153.5 91.5q99 0 155 -95.5t56 -249.5q0 -100 -29 -175.5t-69 -109.5l-36 -11v-26l61 10h74v-55h-187v94q46 14 86 85.5t40 194.5q0 71 -15 133t-50.5 106t-85.5 44q-71 0 -110.5 -75t-39.5 -211
q0 -122 38.5 -193.5t87.5 -83.5v-94h-187z" />
    <glyph glyph-name="uni03A9" unicode="&#x2126;" horiz-adv-x="517" 
d="M47 0v55h74l60 -10v26l-34 10q-43 32 -71 111t-28 179q0 158 56.5 249.5t153.5 91.5q99 0 155 -95.5t56 -249.5q0 -100 -29 -175.5t-69 -109.5l-36 -11v-26l61 10h74v-55h-187v94q46 14 86 85.5t40 194.5q0 71 -15 133t-50.5 106t-85.5 44q-71 0 -110.5 -75t-39.5 -211
q0 -122 38.5 -193.5t87.5 -83.5v-94h-187z" />
    <glyph glyph-name="pi" unicode="&#x3c0;" horiz-adv-x="427" 
d="M340 447v-347q0 -50 20 -50q13 0 29 6l13 -43q-30 -16 -64 -16q-31 0 -43 26.5t-12 82.5v341h-119v-447h-57v447h-11q-26 0 -46 -41l-32 32q24 62 89 62h287v-53h-54z" />
    <glyph glyph-name="afii10023" unicode="&#x401;" horiz-adv-x="347" 
d="M53 0v700h251v-55h-192v-257h176v-55h-176v-278h195v-55h-254zM76 793q0 20 10.5 32.5t27.5 12.5q16 0 26 -12.5t10 -32.5t-10 -32t-26 -12q-17 0 -27.5 12t-10.5 32zM203 793q0 20 10 32.5t27 12.5t27 -12.5t10 -32.5t-10.5 -32t-26.5 -12t-26.5 12t-10.5 32z" />
    <glyph glyph-name="afii10051" unicode="&#x402;" horiz-adv-x="474" 
d="M210 354v-354h-59v645h-140v55h339v-55h-140v-235q37 22 92 22q137 0 137 -207q0 -120 -36.5 -176.5t-115.5 -56.5q-35 0 -46 3v54q28 -2 46 -2q49 0 70.5 42t21.5 129t-24.5 123t-71.5 36q-32 0 -73 -23z" />
    <glyph glyph-name="afii10052" unicode="&#x403;" horiz-adv-x="289" 
d="M300 700v-55h-188v-645h-59v700h247zM128 752l75 118h79v-19l-105 -99h-49z" />
    <glyph glyph-name="afii10053" unicode="&#x404;" horiz-adv-x="381" 
d="M337 75l15 -51q-37 -36 -120 -36q-197 0 -197 362q0 189 54.5 275.5t143.5 86.5q67 0 113 -24l-16 -54q-37 23 -92 23q-60 0 -99 -64t-44 -204h199v-55h-199q2 -144 43 -217.5t112 -73.5q47 0 87 32z" />
    <glyph glyph-name="afii10054" unicode="&#x405;" horiz-adv-x="345" 
d="M257 163q0 43 -22.5 83t-54.5 73t-63.5 67t-54 79.5t-22.5 95.5q0 77 41 114t108 37q73 0 119 -31l-19 -54q-38 30 -101 30q-45 0 -67 -25.5t-22 -68.5q0 -37 22.5 -73.5t54.5 -69.5t63.5 -68.5t54 -83.5t22.5 -102q0 -84 -43 -131t-123 -47t-124 35l21 57
q41 -37 105 -37q50 0 77.5 30.5t27.5 89.5z" />
    <glyph glyph-name="afii10055" unicode="&#x406;" horiz-adv-x="187" 
d="M64 0v700h59v-700h-59z" />
    <glyph glyph-name="afii10056" unicode="&#x407;" horiz-adv-x="188" 
d="M11 793q0 20 10 32.5t27 12.5q16 0 26 -12.5t10 -32.5t-10 -32t-26 -12q-17 0 -27 12t-10 32zM105 793q0 20 10 32.5t26 12.5q17 0 27 -12.5t10 -32.5t-10.5 -32t-26.5 -12t-26 12t-10 32zM64 0v700h59v-700h-59z" />
    <glyph glyph-name="afii10057" unicode="&#x408;" horiz-adv-x="194" 
d="M75 159v541h59v-549q0 -85 -20 -122.5t-76 -37.5q-39 0 -61 14l14 52q17 -11 39 -11q29 0 37 26t8 87z" />
    <glyph glyph-name="afii10058" unicode="&#x409;" horiz-adv-x="605" 
d="M294 5v640h-129q-13 -431 -48 -555q-26 -94 -81 -94q-23 0 -39 9l9 55q8 -3 14 -3q26 0 42 55q41 139 46 588h245v-277q31 9 68 9q162 0 162 -207q0 -233 -179 -233q-63 0 -110 13zM410 47q113 0 113 171q0 159 -113 159q-37 0 -57 -9v-314q20 -7 57 -7z" />
    <glyph glyph-name="afii10059" unicode="&#x40a;" horiz-adv-x="633" 
d="M322 7v340h-210v-347h-59v700h59v-298h210v298h59v-300q24 8 69 8q74 0 117.5 -42t43.5 -152q0 -117 -45 -169.5t-132 -52.5q-68 0 -112 15zM441 47q110 0 110 160q0 83 -28.5 114.5t-81.5 31.5q-44 0 -60 -8v-292q14 -6 60 -6z" />
    <glyph glyph-name="afii10060" unicode="&#x40b;" horiz-adv-x="489" 
d="M210 338v-338h-59v645h-140v55h339v-55h-140v-248q49 43 113 43q63 0 93 -42.5t30 -151.5v-246h-59v242q0 80 -18 111.5t-60 31.5q-62 0 -99 -47z" />
    <glyph glyph-name="afii10061" unicode="&#x40c;" horiz-adv-x="398" 
d="M304 0l-162 329h-30v-329h-59v700h59v-329l28 14l149 315h68l-149 -303l-28 -32l33 -40l165 -325h-74zM154 752l75 118h79v-19l-105 -99h-49z" />
    <glyph glyph-name="afii10062" unicode="&#x40e;" horiz-adv-x="361" 
d="M71 700l112 -362l15 -89h4l13 92l86 359h61l-115 -449q-41 -161 -63 -208.5t-65 -47.5q-36 0 -60 21l18 53q21 -17 42 -17q31 0 52 128l-168 520h68zM81 855l57 14q2 -40 17 -63.5t41 -23.5q53 0 58 86l51 -13q-6 -57 -34 -88.5t-76 -31.5t-79 30.5t-35 89.5z" />
    <glyph glyph-name="afii10145" unicode="&#x40f;" horiz-adv-x="427" 
d="M183 0h-130v700h59v-645h203v645h59v-700h-131l-10 -180h-37z" />
    <glyph glyph-name="afii10017" unicode="&#x410;" horiz-adv-x="382" 
d="M316 0l-47 206h-160l-46 -206h-59l171 712h31l172 -712h-62zM173 488l-49 -227h131l-50 229l-15 104h-2z" />
    <glyph glyph-name="afii10018" unicode="&#x411;" horiz-adv-x="360" 
d="M53 5v695h252v-55h-193v-232q34 9 61 9q77 0 120 -45t43 -157q0 -228 -166 -228q-69 0 -117 13zM174 47q102 0 102 158q0 97 -27.5 129.5t-83.5 32.5q-33 0 -53 -9v-305q14 -6 62 -6z" />
    <glyph glyph-name="afii10019" unicode="&#x412;" horiz-adv-x="381" 
d="M332 541q0 -57 -21 -105.5t-65 -65.5v-4q100 -25 100 -166q0 -105 -46 -156.5t-125 -51.5q-83 0 -122 13v689q64 14 127 14q69 0 110.5 -35t41.5 -132zM180 47q47 0 76.5 39t29.5 106q0 79 -32 108t-86 29h-56v-274q19 -8 68 -8zM112 382h35q32 0 52 5q32 16 52.5 53
t20.5 86q0 127 -93 127q-49 0 -67 -6v-265z" />
    <glyph glyph-name="afii10020" unicode="&#x413;" horiz-adv-x="289" 
d="M300 700v-55h-188v-645h-59v700h247z" />
    <glyph glyph-name="afii10021" unicode="&#x414;" horiz-adv-x="437" 
d="M420 55v-185h-42l-9 130h-315l-10 -130h-42v185h48q10 22 23 83t27 215.5t14 346.5h246v-645h60zM110 55h191v590h-132q-7 -421 -59 -590z" />
    <glyph glyph-name="afii10022" unicode="&#x415;" horiz-adv-x="347" 
d="M53 0v700h251v-55h-192v-257h176v-55h-176v-278h195v-55h-254z" />
    <glyph glyph-name="afii10024" unicode="&#x416;" horiz-adv-x="527" 
d="M232 383v317h57v-329l27 14l127 315h65l-127 -303l-28 -32l34 -40l142 -325h-73l-138 329h-29v-329h-57v341l-27 -14l-138 -327h-68l140 315l31 37l-30 35l-132 313h70l125 -317h29z" />
    <glyph glyph-name="afii10025" unicode="&#x417;" horiz-adv-x="351" 
d="M121 339h-33v55h18q40 0 56 5q34 12 57 46.5t23 82.5q0 129 -97 129q-53 0 -92 -24l-17 47q48 32 122 32q144 0 144 -171q0 -53 -21.5 -97.5t-63.5 -65.5v-4q46 -11 72.5 -54.5t26.5 -114.5q0 -110 -48 -163.5t-126 -53.5q-76 0 -117 24l16 56q39 -25 104 -25
q50 0 80.5 42t30.5 116q0 128 -105 136q-20 2 -30 2z" />
    <glyph glyph-name="afii10026" unicode="&#x418;" horiz-adv-x="441" 
d="M329 0v466l6 99h-3l-28 -101l-210 -464h-41v700h59v-475l-6 -98h3l28 101l212 472h39v-700h-59z" />
    <glyph glyph-name="afii10027" unicode="&#x419;" horiz-adv-x="441" 
d="M329 0v466l6 99h-3l-28 -101l-210 -464h-41v700h59v-475l-6 -98h3l28 101l212 472h39v-700h-59zM110 855l57 14q2 -40 17 -63.5t41 -23.5q53 0 58 86l51 -13q-6 -57 -34 -88.5t-76 -31.5t-79 30.5t-35 89.5z" />
    <glyph glyph-name="afii10028" unicode="&#x41a;" horiz-adv-x="398" 
d="M304 0l-162 329h-30v-329h-59v700h59v-329l28 14l149 315h68l-149 -303l-28 -32l33 -40l165 -325h-74z" />
    <glyph glyph-name="afii10029" unicode="&#x41b;" horiz-adv-x="406" 
d="M294 0v645h-129q-13 -431 -48 -555q-26 -94 -81 -94q-23 0 -39 9l9 55q8 -3 14 -3q26 0 42 55q41 139 46 588h245v-700h-59z" />
    <glyph glyph-name="afii10030" unicode="&#x41c;" horiz-adv-x="515" 
d="M403 0v473l9 102h-4l-27 -97l-113 -307h-21l-120 307l-26 97h-4l13 -102v-473h-57v700h53l134 -343l20 -83h1l19 84l128 342h54v-700h-59z" />
    <glyph glyph-name="afii10031" unicode="&#x41d;" horiz-adv-x="435" 
d="M323 0v332h-211v-332h-59v700h59v-313h211v313h59v-700h-59z" />
    <glyph glyph-name="afii10032" unicode="&#x41e;" horiz-adv-x="443" 
d="M35 350q0 182 44.5 272t141.5 90q102 0 144.5 -91.5t42.5 -270.5q0 -183 -44.5 -272.5t-142.5 -89.5q-101 0 -143.5 92t-42.5 270zM95 350q0 -85 11.5 -151.5t41 -111t73.5 -44.5q127 0 127 307q0 134 -30.5 220.5t-96.5 86.5q-126 0 -126 -307z" />
    <glyph glyph-name="afii10033" unicode="&#x41f;" horiz-adv-x="427" 
d="M315 0v645h-203v-645h-59v700h321v-700h-59z" />
    <glyph glyph-name="afii10034" unicode="&#x420;" horiz-adv-x="365" 
d="M53 0v692q48 16 112 16q77 0 126.5 -48t49.5 -164q0 -117 -50 -172.5t-127 -55.5q-40 0 -52 4v-272h-59zM167 653q-39 0 -55 -5v-320q11 -5 49 -5q120 0 120 174q0 156 -114 156z" />
    <glyph glyph-name="afii10035" unicode="&#x421;" horiz-adv-x="370" 
d="M333 75l14 -50q-37 -37 -115 -37q-197 0 -197 362q0 189 54.5 275.5t143.5 86.5q63 0 109 -24l-16 -54q-37 23 -88 23q-64 0 -103.5 -73t-39.5 -234q0 -153 39 -230t112 -77q45 0 87 32z" />
    <glyph glyph-name="afii10036" unicode="&#x422;" horiz-adv-x="363" 
d="M351 700v-55h-140v-645h-59v645h-140v55h339z" />
    <glyph glyph-name="afii10037" unicode="&#x423;" horiz-adv-x="361" 
d="M71 700l112 -362l15 -89h4l13 92l86 359h61l-115 -449q-41 -161 -63 -208.5t-65 -47.5q-36 0 -60 21l18 53q21 -17 42 -17q31 0 52 128l-168 520h68z" />
    <glyph glyph-name="afii10038" unicode="&#x424;" horiz-adv-x="509" 
d="M226 -20v98q-20 -5 -58 -5q-143 0 -143 277q0 142 40.5 215t115.5 73q30 0 45 -4v86h57v-89q19 7 59 7q142 0 142 -278q0 -144 -41.5 -215.5t-111.5 -71.5q-33 0 -48 7v-100h-57zM331 583q-36 0 -49 -7v-445q8 -3 40 -3q102 0 102 232q0 223 -93 223zM181 128q34 0 46 6
v445q-15 4 -42 4q-48 0 -74 -58.5t-26 -174.5q0 -222 96 -222z" />
    <glyph glyph-name="afii10039" unicode="&#x425;" horiz-adv-x="404" 
d="M16 0l149 356l-136 344h70l89 -245l17 -56l16 56l95 245h64l-141 -337l148 -363h-68l-99 259l-19 59l-18 -59l-102 -259h-65z" />
    <glyph glyph-name="afii10040" unicode="&#x426;" horiz-adv-x="446" 
d="M429 55v-185h-41l-10 130h-325v700h59v-645h198v645h59v-645h60z" />
    <glyph glyph-name="afii10041" unicode="&#x427;" horiz-adv-x="393" 
d="M45 700h59v-257q0 -73 20 -100t60 -27q27 0 54 14t43 36v334h59v-700h-59v302q-43 -41 -106 -41q-59 0 -94.5 35t-35.5 133v271z" />
    <glyph glyph-name="afii10042" unicode="&#x428;" horiz-adv-x="567" 
d="M514 0h-461v700h59v-645h142v645h59v-645h142v645h59v-700z" />
    <glyph glyph-name="afii10043" unicode="&#x429;" horiz-adv-x="592" 
d="M524 0h-471v700h59v-645h142v645h59v-645h142v645h59v-645h61v-185h-41z" />
    <glyph glyph-name="afii10044" unicode="&#x42a;" horiz-adv-x="415" 
d="M104 5v640h-104v55h163v-277q29 9 67 9q163 0 163 -207q0 -122 -45.5 -177.5t-134.5 -55.5q-65 0 -109 13zM220 47q113 0 113 172q0 88 -30 123t-83 35q-37 0 -57 -9v-314q17 -7 57 -7z" />
    <glyph glyph-name="afii10045" unicode="&#x42b;" horiz-adv-x="503" 
d="M391 0v700h59v-700h-59zM53 5v695h59v-277q27 9 58 9q73 0 115.5 -45t42.5 -162q0 -121 -42.5 -177t-130.5 -56q-58 0 -102 13zM160 47q108 0 108 171q0 90 -27.5 124.5t-80.5 34.5q-28 0 -48 -9v-314q17 -7 48 -7z" />
    <glyph glyph-name="afii10046" unicode="&#x42c;" horiz-adv-x="364" 
d="M53 5v695h59v-277q31 9 68 9q162 0 162 -207q0 -233 -179 -233q-63 0 -110 13zM169 47q113 0 113 171q0 159 -113 159q-37 0 -57 -9v-314q20 -7 57 -7z" />
    <glyph glyph-name="afii10047" unicode="&#x42d;" horiz-adv-x="375" 
d="M95 329v55h185q-2 135 -39 204t-103 69q-49 0 -95 -31l-22 49q53 37 122 37q97 0 147 -84t50 -275q0 -365 -207 -365q-63 0 -107 24l16 55q41 -24 95 -24q63 0 102.5 70t41.5 216h-186z" />
    <glyph glyph-name="afii10048" unicode="&#x42e;" horiz-adv-x="581" 
d="M112 700v-313h77q2 161 45 243t135 82q98 0 137.5 -91t39.5 -271q0 -183 -41.5 -272.5t-136.5 -89.5q-96 0 -137.5 88.5t-42.5 255.5h-76v-332h-59v700h59zM248 350q0 -307 121 -307q63 0 90 74t27 233q0 307 -117 307q-64 0 -92.5 -74.5t-28.5 -232.5z" />
    <glyph glyph-name="afii10049" unicode="&#x42f;" horiz-adv-x="372" 
d="M319 693v-693h-59v315l-65 -21l-112 -294h-68l100 259l39 43q-107 29 -107 197q0 209 172 209q56 0 100 -15zM214 653q-107 0 -107 -152t109 -152h44v298q-13 6 -46 6z" />
    <glyph glyph-name="afii10065" unicode="&#x430;" horiz-adv-x="322" 
d="M66 429l-21 45q52 34 126 34q62 0 83.5 -39t21.5 -111q0 -42 -2 -118t-2 -108q0 -88 10 -134h-43l-14 49h-3q-28 -53 -97 -53q-46 0 -73.5 37.5t-27.5 101.5q0 150 162 150q22 0 33 -1q2 44 2 58q0 63 -14 89t-50 26q-50 0 -91 -26zM140 47q56 0 79 56v129q-22 2 -33 2
q-103 0 -103 -96q0 -44 15.5 -67.5t41.5 -23.5z" />
    <glyph glyph-name="afii10066" unicode="&#x431;" horiz-adv-x="349" 
d="M82 419q20 44 46 62.5t65 18.5q126 0 126 -239q0 -273 -144 -273q-74 0 -109.5 72t-35.5 243q0 100 9 170.5t22.5 110t38.5 63t47 31t58 12.5q68 9 87 36l3 -61q-14 -15 -33 -21t-62 -11q-57 -6 -85 -52.5t-35 -161.5h2zM88 250q0 -93 22 -151t64 -58q86 0 86 215
q0 191 -78 191q-94 0 -94 -197z" />
    <glyph glyph-name="afii10067" unicode="&#x432;" horiz-adv-x="325" 
d="M48 1v498q80 8 113 8q63 0 92 -30t29 -92q0 -90 -62 -119v-4q75 -19 75 -121q0 -77 -36.5 -112.5t-110.5 -35.5q-40 0 -100 8zM105 234v-184q21 -4 50 -4q81 0 81 99q0 89 -76 89h-55zM105 284h61q23 0 41 26t18 60q0 43 -15.5 63.5t-51.5 20.5q-11 0 -53 -3v-167z" />
    <glyph glyph-name="afii10068" unicode="&#x433;" horiz-adv-x="237" 
d="M239 500v-53h-134v-447h-57v500h191z" />
    <glyph glyph-name="afii10069" unicode="&#x434;" horiz-adv-x="354" 
d="M341 53v-183h-40l-9 130h-241l-11 -130h-38v183h38q9 19 19 62.5t20.5 147.5t11.5 237h202v-447h48zM97 53h139v394h-91q-10 -280 -48 -394z" />
    <glyph glyph-name="afii10070" unicode="&#x435;" horiz-adv-x="330" 
d="M268 72l21 -44q-40 -40 -110 -40q-75 0 -112 69.5t-37 192.5q0 126 38 194t107 68q124 0 125 -182q0 -41 -4 -82h-207q2 -207 105 -207q45 0 74 31zM175 459q-77 0 -84 -158h154v15q0 70 -19 106.5t-51 36.5z" />
    <glyph glyph-name="afii10072" unicode="&#x436;" horiz-adv-x="435" 
d="M186 239l-31 -14l-93 -225h-61l99 229l22 30l-33 38l-82 203h59l86 -219h34v219h57v-229l31 14l87 215h57l-86 -203l-25 -32l33 -40l94 -225h-63l-94 229h-34v-229h-57v239z" />
    <glyph glyph-name="afii10073" unicode="&#x437;" horiz-adv-x="281" 
d="M112 229h-37v53h45q23 0 42 27t19 60q0 83 -67 83q-44 0 -77 -23l-18 45q42 31 107 31q53 0 82.5 -30.5t29.5 -90.5q0 -41 -16 -71.5t-43 -44.5v-4q72 -22 72 -124q0 -66 -36.5 -106.5t-105.5 -40.5q-53 0 -91 22l16 51q30 -20 76 -20q41 0 62.5 25.5t21.5 72.5
q0 85 -82 85z" />
    <glyph glyph-name="afii10074" unicode="&#x438;" horiz-adv-x="353" 
d="M249 0v297l8 88h-4l-30 -101l-135 -284h-40v500h57v-306l-9 -85h5l29 98l136 293h40v-500h-57z" />
    <glyph glyph-name="afii10075" unicode="&#x439;" horiz-adv-x="353" 
d="M249 0v297l8 88h-4l-30 -101l-135 -284h-40v500h57v-306l-9 -85h5l29 98l136 293h40v-500h-57zM75 686l46 15q4 -44 20.5 -66.5t38.5 -22.5t38.5 23.5t19.5 64.5l43 -12q-4 -58 -33 -90.5t-69 -32.5t-69.5 29t-34.5 92z" />
    <glyph glyph-name="afii10076" unicode="&#x43a;" horiz-adv-x="311" 
d="M240 0l-104 229h-31v-229h-57v500h57v-229l29 14l100 215h59l-98 -203l-27 -32l34 -40l105 -225h-67z" />
    <glyph glyph-name="afii10077" unicode="&#x43b;" horiz-adv-x="327" 
d="M222 0v447h-89q-5 -239 -23.5 -345t-74.5 -106q-27 0 -40 8l8 51q10 -2 13 -2q21 0 33 30.5t21 130.5t11 286h198v-500h-57z" />
    <glyph glyph-name="afii10078" unicode="&#x43c;" horiz-adv-x="419" 
d="M316 0v312l5 93h-4l-24 -89l-76 -198h-20l-79 198l-23 89h-4l7 -92v-313h-50v500h55l89 -218l18 -71h1l20 73l83 216h57v-500h-55z" />
    <glyph glyph-name="afii10079" unicode="&#x43d;" horiz-adv-x="351" 
d="M246 0v230h-141v-230h-57v500h57v-217h141v217h57v-500h-57z" />
    <glyph glyph-name="afii10080" unicode="&#x43e;" horiz-adv-x="348" 
d="M30 250q0 137 36.5 199.5t107.5 62.5q75 0 109.5 -61t34.5 -201q0 -139 -36 -200.5t-108 -61.5q-75 0 -109.5 61t-34.5 201zM89 250q0 -209 85 -209q44 0 64.5 49t20.5 160q0 209 -85 209t-85 -209z" />
    <glyph glyph-name="afii10081" unicode="&#x43f;" horiz-adv-x="347" 
d="M242 0v447h-137v-447h-57v500h251v-500h-57z" />
    <glyph glyph-name="afii10082" unicode="&#x440;" horiz-adv-x="352" 
d="M48 -200v700h40l9 -48h3q30 60 94 60q65 0 96.5 -60t31.5 -192q0 -125 -40.5 -198.5t-109.5 -73.5q-39 0 -67 16v-204h-57zM182 459q-56 0 -77 -81v-311q26 -26 64 -26q43 0 68.5 59t25.5 160q0 199 -81 199z" />
    <glyph glyph-name="afii10083" unicode="&#x441;" horiz-adv-x="284" 
d="M254 65l17 -46q-40 -31 -98 -31q-143 0 -143 262q0 126 37 194t105 68q59 0 93 -22l-16 -49q-32 18 -71 18q-89 0 -89 -209t98 -209q39 0 67 24z" />
    <glyph glyph-name="afii10084" unicode="&#x442;" horiz-adv-x="259" 
d="M258 500v-53h-100v-447h-57v447h-100v53h257z" />
    <glyph glyph-name="afii10085" unicode="&#x443;" horiz-adv-x="302" 
d="M68 500l79 -333l18 -100h3l13 101l63 332h56l-96 -449q-14 -68 -23.5 -105.5t-24 -77t-31.5 -56.5t-39 -17t-37 8l9 57q8 -2 13 -2q23 0 38.5 32t26.5 110l-131 500h63z" />
    <glyph glyph-name="afii10086" unicode="&#x444;" horiz-adv-x="442" 
d="M193 -200v196q-14 -8 -44 -8q-123 0 -123 262q0 135 34.5 196.5t101.5 61.5q19 0 31 -4v196h57v-197q19 5 37 5q67 0 98.5 -55t31.5 -193q0 -272 -133 -272q-21 0 -34 7v-195h-57zM277 457q-17 0 -29 -5v-410q9 -3 31 -3q81 0 81 221q0 102 -19 149.5t-64 47.5zM163 39
q16 0 32 5v409q-15 4 -31 4q-81 0 -81 -207q0 -211 80 -211z" />
    <glyph glyph-name="afii10087" unicode="&#x445;" horiz-adv-x="327" 
d="M15 0l116 256l-108 244h66l62 -152l15 -54l16 54l63 152h60l-108 -240l115 -260h-61l-72 166l-16 57l-17 -57l-71 -166h-60z" />
    <glyph glyph-name="afii10088" unicode="&#x446;" horiz-adv-x="356" 
d="M343 53v-183h-38l-10 130h-247v500h57v-447h135v447h57v-447h46z" />
    <glyph glyph-name="afii10089" unicode="&#x447;" horiz-adv-x="318" 
d="M28 500h57v-155q0 -53 11 -79t44 -26q50 0 74 28v232h57v-500h-57v213q-34 -26 -84 -26q-102 0 -102 133v180z" />
    <glyph glyph-name="afii10090" unicode="&#x448;" horiz-adv-x="481" 
d="M433 0h-385v500h57v-447h107v447h57v-447h107v447h57v-500z" />
    <glyph glyph-name="afii10091" unicode="&#x449;" horiz-adv-x="492" 
d="M479 53v-183h-39l-10 130h-382v500h57v-447h107v447h57v-447h107v447h57v-447h46z" />
    <glyph glyph-name="afii10092" unicode="&#x44a;" horiz-adv-x="328" 
d="M129 253v-200q24 -6 44 -6q78 0 78 108q0 105 -76 105q-30 0 -46 -7zM129 500v-194q29 7 57 7q64 0 94 -40.5t30 -106.5q0 -90 -36 -131t-112 -41q-45 0 -90 6v447h-71v53h128z" />
    <glyph glyph-name="afii10093" unicode="&#x44b;" horiz-adv-x="433" 
d="M105 253v-200q26 -6 45 -6q38 0 54 26.5t16 81.5q0 105 -69 105q-27 0 -46 -7zM105 500v-194q29 7 58 7q116 0 116 -147q0 -91 -33 -131.5t-108 -40.5q-45 0 -90 6v500h57zM328 0v500h57v-500h-57z" />
    <glyph glyph-name="afii10094" unicode="&#x44c;" horiz-adv-x="303" 
d="M105 253v-200q26 -6 45 -6q76 0 76 108q0 105 -75 105q-27 0 -46 -7zM105 500v-194q29 7 58 7q63 0 92.5 -40.5t29.5 -106.5q0 -90 -35 -131t-112 -41q-45 0 -90 6v500h57z" />
    <glyph glyph-name="afii10095" unicode="&#x44d;" horiz-adv-x="299" 
d="M75 225v53h134q-2 181 -90 181q-43 0 -76 -25l-22 46q40 32 105 32q73 0 107.5 -63t34.5 -199q0 -262 -153 -262q-55 0 -93 19l16 53q30 -19 74 -19q95 0 98 184h-135z" />
    <glyph glyph-name="afii10096" unicode="&#x44e;" horiz-adv-x="469" 
d="M304 -9q-69 0 -101 59t-35 180h-63v-230h-57v500h57v-217h64q5 117 38 171.5t98 54.5q71 0 102.5 -63.5t31.5 -195.5q0 -135 -33 -197t-102 -62zM223 250q0 -206 82 -206q40 0 57.5 47t17.5 159q0 206 -76 206q-81 0 -81 -206z" />
    <glyph glyph-name="afii10097" unicode="&#x44f;" horiz-adv-x="313" 
d="M212 0v211l-51 -12l-84 -199h-65l75 174l27 37q-35 9 -57 43t-22 89q0 168 145 168q42 0 89 -14v-497h-57zM180 249l32 2v200q-13 7 -38 7q-80 0 -80 -108q0 -48 22 -74.5t64 -26.5z" />
    <glyph glyph-name="afii10071" unicode="&#x451;" horiz-adv-x="330" 
d="M268 72l21 -44q-40 -40 -110 -40q-75 0 -112 69.5t-37 192.5q0 126 38 194t107 68q124 0 125 -182q0 -41 -4 -82h-207q2 -207 105 -207q45 0 74 31zM175 459q-77 0 -84 -158h154v15q0 70 -19 106.5t-51 36.5zM73 634q0 20 9.5 31.5t24.5 11.5t24.5 -11.5t9.5 -31.5
q0 -19 -9.5 -30.5t-24.5 -11.5t-24.5 11.5t-9.5 30.5zM200 634q0 20 9.5 31.5t25.5 11.5q33 0 33 -43q0 -19 -9 -30.5t-24 -11.5q-16 0 -25.5 11.5t-9.5 30.5z" />
    <glyph glyph-name="afii10099" unicode="&#x452;" horiz-adv-x="359" 
d="M-1 448v53h54v199h57v-199h102v-53h-102v-138h2q37 50 100 50q55 0 80 -37t25 -125v-226q0 -93 -22.5 -135.5t-71.5 -42.5q-12 0 -18 1v52q35 0 45 34t10 119v162q0 84 -13.5 114.5t-53.5 30.5q-58 0 -83 -67v-240h-57v448h-54z" />
    <glyph glyph-name="afii10100" unicode="&#x453;" horiz-adv-x="237" 
d="M239 500v-53h-134v-447h-57v500h191zM113 572l38 148h62v-19l-66 -129h-34z" />
    <glyph glyph-name="afii10101" unicode="&#x454;" horiz-adv-x="303" 
d="M268 66l16 -48q-34 -28 -99 -28q-78 0 -116.5 68.5t-38.5 191.5q0 125 42.5 192.5t118.5 67.5q56 0 87 -19l-16 -51q-29 17 -72 17q-45 0 -72 -45t-31 -131h150v-53h-150q3 -80 30 -132.5t79 -52.5q44 0 72 23z" />
    <glyph glyph-name="afii10102" unicode="&#x455;" horiz-adv-x="272" 
d="M189 110q0 37 -16 66.5t-38.5 50t-45.5 42t-39 53.5t-16 74q0 55 29.5 85.5t80.5 30.5q61 0 95 -24l-16 -50q-34 21 -72 21q-60 0 -60 -62q0 -29 16 -54t38.5 -45.5t45.5 -44t39 -60t16 -82.5q0 -51 -32.5 -87t-90.5 -36q-60 0 -99 25l17 53q39 -25 80 -25q29 0 48.5 18
t19.5 51z" />
    <glyph glyph-name="afii10103" unicode="&#x456;" horiz-adv-x="175" 
d="M58 0v500h57v-500h-57zM47 655q0 23 10.5 35.5t28.5 12.5t29 -12t11 -36q0 -46 -40 -46q-39 0 -39 46z" />
    <glyph glyph-name="afii10104" unicode="&#x457;" horiz-adv-x="185" 
d="M18 655q0 42 33 42t33 -42q0 -41 -33 -41t-33 41zM102 655q0 42 32 42q33 0 33 -42q0 -41 -33 -41q-32 0 -32 41zM58 0v500h57v-500h-57z" />
    <glyph glyph-name="afii10105" unicode="&#x458;" horiz-adv-x="174" 
d="M59 0v500h57v-528q0 -95 -23 -140t-73 -45q-10 0 -16 1v52q34 0 44.5 37t10.5 123zM48 655q0 23 10.5 35.5t28.5 12.5t29 -12t11 -36q0 -46 -40 -46q-39 0 -39 46z" />
    <glyph glyph-name="afii10106" unicode="&#x459;" horiz-adv-x="477" 
d="M279 500v-194q29 7 58 7q63 0 92.5 -40.5t29.5 -106.5q0 -90 -35 -131t-112 -41q-45 0 -90 6v447h-89q-5 -239 -23.5 -345t-74.5 -106q-27 0 -40 8l8 51q10 -2 13 -2q21 0 33 30.5t21 130.5t11 286h198zM279 253v-200q25 -6 45 -6q76 0 76 108q0 105 -75 105
q-27 0 -46 -7z" />
    <glyph glyph-name="afii10107" unicode="&#x45a;" horiz-adv-x="501" 
d="M302 246v-194q21 -5 45 -5q77 0 77 104q0 55 -18 78t-57 23q-29 0 -47 -6zM302 500v-201q31 6 58 6q123 0 123 -139q0 -90 -35.5 -131t-111.5 -41q-46 0 -91 6v235h-140v-235h-57v500h57v-212h140v212h57z" />
    <glyph glyph-name="afii10108" unicode="&#x45b;" horiz-adv-x="359" 
d="M-1 448v53h53v199h57v-199h103v-53h-103v-139h3q35 51 100 51q55 0 80 -40.5t25 -137.5v-182h-57v173q0 72 -14 103t-53 31q-28 0 -50.5 -19.5t-33.5 -51.5v-236h-57v448h-53z" />
    <glyph glyph-name="afii10109" unicode="&#x45c;" horiz-adv-x="311" 
d="M240 0l-104 229h-31v-229h-57v500h57v-229l29 14l100 215h59l-98 -203l-27 -32l34 -40l105 -225h-67zM128 572l38 148h62v-19l-66 -129h-34z" />
    <glyph glyph-name="afii10110" unicode="&#x45e;" horiz-adv-x="302" 
d="M68 500l79 -333l18 -100h3l13 101l63 332h56l-96 -449q-14 -68 -23.5 -105.5t-24 -77t-31.5 -56.5t-39 -17t-37 8l9 57q8 -2 13 -2q23 0 38.5 32t26.5 110l-131 500h63zM54 686l46 15q4 -44 20.5 -66.5t38.5 -22.5t38.5 23.5t19.5 64.5l43 -12q-4 -58 -33 -90.5
t-69 -32.5t-69.5 29t-34.5 92z" />
    <glyph glyph-name="afii10193" unicode="&#x45f;" horiz-adv-x="346" 
d="M142 0h-94v500h57v-447h137v447h57v-500h-97l-10 -180h-37z" />
    <glyph glyph-name="afii10146" unicode="&#x462;" horiz-adv-x="407" 
d="M0 557v53h96v110h59v-110h134v-53h-134v-134q30 9 68 9q162 0 162 -207q0 -233 -179 -233q-69 0 -110 13v552h-96zM212 47q113 0 113 171q0 89 -29.5 124t-83.5 35q-37 0 -57 -9v-314q18 -7 57 -7z" />
    <glyph glyph-name="afii10194" unicode="&#x463;" horiz-adv-x="328" 
d="M1 447v53h71v200h57v-200h104v-53h-104v-141q29 7 57 7q64 0 94 -40.5t30 -106.5q0 -90 -36 -131t-112 -41q-45 0 -90 6v447h-71zM129 253v-201q20 -5 44 -5q38 0 58 29.5t20 78.5q0 45 -20 75t-56 30q-30 0 -46 -7z" />
    <glyph glyph-name="afii10147" unicode="&#x472;" horiz-adv-x="443" 
d="M35 350q0 182 44.5 272t141.5 90q102 0 145 -92t43 -270q0 -182 -44.5 -272t-143.5 -90q-101 0 -143.5 92t-42.5 270zM221 43q124 0 128 286h-254q2 -126 33 -206t93 -80zM221 657q-119 0 -126 -273h253q-3 120 -34 196.5t-93 76.5z" />
    <glyph glyph-name="afii10195" unicode="&#x473;" horiz-adv-x="348" 
d="M30 250q0 262 144 262t144 -262t-144 -262t-144 262zM89 275h170q-5 184 -85 184q-79 0 -85 -184zM259 222h-170q1 -89 25 -135t60 -46q81 0 85 181z" />
    <glyph glyph-name="afii10148" unicode="&#x474;" horiz-adv-x="393" 
d="M317 522l-114 -534h-30l-174 712h65l110 -492l16 -104h1l10 105l49 257q21 107 38 158t35 67t50 16q35 0 60 -18l-19 -52q-22 15 -39 15q-19 0 -31.5 -32.5t-26.5 -97.5z" />
    <glyph glyph-name="afii10196" unicode="&#x475;" horiz-adv-x="331" 
d="M269 362l-97 -374h-26l-142 512h64l77 -293l17 -106h1l14 108l20 90q26 114 47.5 161t60.5 47q25 0 40 -8l-8 -55q-14 6 -20 6q-13 0 -23.5 -18.5t-24.5 -69.5z" />
    <glyph glyph-name="uni048A" unicode="&#x48a;" horiz-adv-x="453" 
d="M329 0v466l6 99h-3l-28 -101l-210 -464h-41v700h59v-475l-6 -98h3l28 101l212 472h39v-647h65v-20l-60 -163h-39l29 130h-54zM110 855l57 14q2 -40 17 -63.5t41 -23.5q53 0 58 86l51 -13q-6 -57 -34 -88.5t-76 -31.5t-79 30.5t-35 89.5z" />
    <glyph glyph-name="uni048B" unicode="&#x48b;" horiz-adv-x="367" 
d="M249 0v297l8 88h-4l-30 -101l-135 -284h-40v500h57v-306l-9 -85h5l29 98l136 293h40v-447h62v-20l-60 -163h-39l29 130h-49zM77 686l46 15q4 -44 20.5 -66.5t38.5 -22.5t38.5 23.5t19.5 64.5l43 -12q-4 -58 -33 -90.5t-69 -32.5t-69.5 29t-34.5 92z" />
    <glyph glyph-name="uni048C" unicode="&#x48c;" horiz-adv-x="407" 
d="M0 557v53h96v110h59v-110h134v-53h-134v-134q30 9 68 9q162 0 162 -207q0 -233 -179 -233q-69 0 -110 13v552h-96zM212 47q113 0 113 171q0 89 -29.5 124t-83.5 35q-37 0 -57 -9v-314q18 -7 57 -7z" />
    <glyph glyph-name="uni048D" unicode="&#x48d;" horiz-adv-x="328" 
d="M1 447v53h71v200h57v-200h104v-53h-104v-141q29 7 57 7q64 0 94 -40.5t30 -106.5q0 -90 -36 -131t-112 -41q-45 0 -90 6v447h-71zM129 253v-201q20 -5 44 -5q38 0 58 29.5t20 78.5q0 45 -20 75t-56 30q-30 0 -46 -7z" />
    <glyph glyph-name="uni048E" unicode="&#x48e;" horiz-adv-x="365" 
d="M53 0v692q48 16 112 16q77 0 126.5 -48t49.5 -164q0 -132 -70 -192l53 -95l-41 -25l-53 96q-32 -12 -66 -12q-40 0 -52 4v-272h-59zM151 437l34 21l55 -105q41 43 41 144q0 156 -114 156q-39 0 -55 -5v-320q11 -5 49 -5q28 0 47 8z" />
    <glyph glyph-name="uni048F" unicode="&#x48f;" horiz-adv-x="352" 
d="M48 -200v700h40l9 -48h3q30 60 94 60q65 0 96.5 -60t31.5 -192q0 -157 -62 -230l40 -67l-39 -25l-37 63q-26 -13 -52 -13q-39 0 -67 16v-204h-57zM152 129l32 21l42 -73q37 60 37 183q0 199 -81 199q-56 0 -77 -81v-311q26 -26 64 -26q15 0 29 8z" />
    <glyph glyph-name="afii10050" unicode="&#x490;" horiz-adv-x="289" 
d="M300 830v-185h-188v-645h-59v700h197l10 130h40z" />
    <glyph glyph-name="afii10098" unicode="&#x491;" horiz-adv-x="237" 
d="M239 447h-134v-447h-57v500h141l10 130h40v-183z" />
    <glyph glyph-name="uni0492" unicode="&#x492;" horiz-adv-x="313" 
d="M318 700v-55h-188v-264h137v-53h-137v-328h-59v328h-65v53h65v319h247z" />
    <glyph glyph-name="uni0493" unicode="&#x493;" horiz-adv-x="240" 
d="M242 500v-53h-134v-166h116v-53h-116v-228h-57v228h-51v53h51v219h191z" />
    <glyph glyph-name="uni0494" unicode="&#x494;" horiz-adv-x="376" 
d="M112 295v-295h-59v700h247v-55h-188v-294q38 21 90 21q65 0 102 -52t37 -182q0 -138 -37 -202t-115 -64q-24 0 -45 3v55q13 -3 49 -3q88 0 88 203q0 102 -24 144.5t-71 42.5q-33 0 -74 -22z" />
    <glyph glyph-name="uni0495" unicode="&#x495;" horiz-adv-x="346" 
d="M105 201v-201h-57v500h191v-53h-134v-196q2 1 11 5t17 7t22.5 6t30.5 3q59 0 93 -49t34 -177q0 -132 -34 -193t-108 -61q-35 0 -44 3v53q10 -3 45 -3q84 0 84 190q0 104 -22 144t-65 40q-24 0 -64 -18z" />
    <glyph glyph-name="uni0496" unicode="&#x496;" horiz-adv-x="560" 
d="M232 383v317h57v-329l27 14l127 315h65l-127 -303l-28 -32l34 -40l117 -270h50v-185h-42l-10 130h-46l-138 329h-29v-329h-57v341l-27 -14l-138 -327h-68l140 315l31 37l-30 35l-132 313h70l125 -317h29z" />
    <glyph glyph-name="uni0497" unicode="&#x497;" horiz-adv-x="461" 
d="M371 0l-94 229h-34v-229h-57v239l-31 -14l-93 -225h-61l99 229l22 30l-33 38l-82 203h59l86 -219h34v219h57v-229l31 14l87 215h57l-86 -203l-25 -32l33 -40l72 -172h47v-183h-38l-11 130h-39z" />
    <glyph glyph-name="uni0498" unicode="&#x498;" horiz-adv-x="351" 
d="M121 339h-33v55h18q40 0 56 5q34 12 57 46.5t23 82.5q0 129 -97 129q-53 0 -92 -24l-17 47q48 32 122 32q144 0 144 -171q0 -53 -21.5 -97.5t-63.5 -65.5v-4q46 -11 72.5 -54.5t26.5 -114.5q0 -99 -39 -152t-105 -63l-9 -170h-37l-12 168q-56 4 -89 24l16 56
q39 -25 104 -25q50 0 80.5 42t30.5 116q0 128 -105 136q-20 2 -30 2z" />
    <glyph glyph-name="uni0499" unicode="&#x499;" horiz-adv-x="281" 
d="M112 229h-37v53h45q23 0 42 27t19 60q0 83 -67 83q-44 0 -77 -23l-18 45q42 31 107 31q53 0 82.5 -30.5t29.5 -90.5q0 -41 -16 -71.5t-43 -44.5v-4q72 -22 72 -124q0 -56 -26.5 -94.5t-76.5 -49.5l-10 -176h-37l-13 173q-40 3 -70 22l16 51q30 -20 76 -20q41 0 62.5 25.5
t21.5 72.5q0 85 -82 85z" />
    <glyph glyph-name="uni049A" unicode="&#x49a;" horiz-adv-x="416" 
d="M304 0l-162 329h-30v-329h-59v700h59v-329l28 14l149 315h68l-149 -303l-28 -32l33 -40l136 -270h59v-185h-41l-10 130h-53z" />
    <glyph glyph-name="uni049B" unicode="&#x49b;" horiz-adv-x="329" 
d="M240 0l-104 229h-31v-229h-57v500h57v-229l29 14l100 215h59l-98 -203l-27 -32l34 -40l80 -172h42v-183h-38l-11 130h-35z" />
    <glyph glyph-name="uni049C" unicode="&#x49c;" horiz-adv-x="436" 
d="M135 200v129h-23v-329h-59v700h59v-329l23 4v125h45v-118l15 3l133 315h67l-135 -303l-28 -32l34 -40l150 -325h-73l-145 329h-18v-129h-45z" />
    <glyph glyph-name="uni049D" unicode="&#x49d;" horiz-adv-x="342" 
d="M124 100v129h-19v-229h-57v500h57v-229l19 3v126h42v-118l16 3l81 215h60l-79 -203l-30 -32l35 -40l86 -225h-64l-87 229h-18v-129h-42z" />
    <glyph glyph-name="uni049E" unicode="&#x49e;" horiz-adv-x="435" 
d="M0 577v53h90v70h59v-70h76v-53h-76v-206l28 14l148 315h69l-150 -303l-27 -32l33 -40l164 -325h-74l-162 329h-29v-329h-59v577h-90z" />
    <glyph glyph-name="uni049F" unicode="&#x49f;" horiz-adv-x="311" 
d="M-4 558v53h52v89h57v-89h104v-53h-104v-287l27 14l96 215h65l-96 -203l-28 -32l33 -40l105 -225h-68l-104 229h-30v-229h-57v558h-52z" />
    <glyph glyph-name="uni04A0" unicode="&#x4a0;" horiz-adv-x="449" 
d="M104 645h-104v55h163v-329l28 14l149 315h68l-149 -303l-28 -32l33 -40l165 -325h-75l-161 329h-30v-329h-59v645z" />
    <glyph glyph-name="uni04A1" unicode="&#x4a1;" horiz-adv-x="334" 
d="M129 500v-229l30 14l99 215h59l-97 -203l-28 -32l34 -40l105 -225h-66l-104 229h-32v-229h-57v447h-71v53h128z" />
    <glyph glyph-name="uni04A2" unicode="&#x4a2;" horiz-adv-x="462" 
d="M323 0v332h-211v-332h-59v700h59v-313h211v313h59v-645h62v-186h-41l-10 131h-70z" />
    <glyph glyph-name="uni04A3" unicode="&#x4a3;" horiz-adv-x="361" 
d="M246 0v230h-141v-230h-57v500h57v-217h141v217h57v-447h50v-183h-38l-11 130h-58z" />
    <glyph glyph-name="uni04A4" unicode="&#x4a4;" horiz-adv-x="558" 
d="M570 700v-55h-188v-645h-59v332h-211v-332h-59v700h59v-313h211v313h247z" />
    <glyph glyph-name="uni04A5" unicode="&#x4a5;" horiz-adv-x="436" 
d="M438 500v-53h-135v-447h-57v230h-141v-230h-57v500h57v-217h141v217h192z" />
    <glyph glyph-name="uni04A6" unicode="&#x4a6;" horiz-adv-x="637" 
d="M373 295v-295h-59v645h-202v-645h-59v700h320v-349q42 21 90 21q66 0 103 -52t37 -182q0 -137 -37.5 -201.5t-115.5 -64.5q-35 0 -44 3v55q10 -3 49 -3q88 0 88 202q0 102 -23.5 145t-70.5 43q-39 0 -76 -22z" />
    <glyph glyph-name="uni04A7" unicode="&#x4a7;" horiz-adv-x="537" 
d="M299 200v-200h-57v447h-137v-447h-57v500h251v-246q45 18 81 18q127 0 127 -226q0 -132 -34 -193t-108 -61q-35 0 -44 3v53q10 -3 46 -3q83 0 83 190q0 101 -22.5 142.5t-64.5 41.5q-30 0 -64 -19z" />
    <glyph glyph-name="uni04A8" unicode="&#x4a8;" horiz-adv-x="529" 
d="M229 712v-55q-134 0 -134 -307q0 -135 40 -221t108 -86q21 0 33 6q-40 41 -63.5 126.5t-23.5 185.5q0 157 40.5 238t111.5 81q148 0 148 -282q0 -121 -29 -215t-75 -137q8 -3 21 -3q39 0 69 28l18 -50q-31 -33 -87 -33q-48 0 -81 27q-33 -27 -84 -27q-100 0 -153 95
t-53 267q0 362 194 362zM249 350q0 -84 22 -164t63 -117q39 32 67 117.5t28 205.5q0 233 -86 233q-43 0 -68.5 -69t-25.5 -206z" />
    <glyph glyph-name="uni04A9" unicode="&#x4a9;" horiz-adv-x="435" 
d="M176 512v-53q-87 0 -87 -209q0 -95 26 -152t76 -57q22 0 31 12q-23 23 -39 80t-16 128q0 239 120 239q59 0 86.5 -59.5t27.5 -156.5q0 -79 -23 -147t-52 -90q9 -7 22 -7q27 0 48 26l22 -42q-26 -36 -76 -36q-47 0 -69 32q-32 -32 -90 -32q-74 0 -113.5 67t-39.5 195
q0 127 37 194.5t109 67.5zM226 253q0 -61 14 -114.5t38 -78.5q27 22 45.5 84.5t18.5 140.5q0 71 -14 116.5t-41 45.5q-36 0 -48.5 -48.5t-12.5 -145.5z" />
    <glyph glyph-name="uni04AA" unicode="&#x4aa;" horiz-adv-x="370" 
d="M333 75l14 -50q-30 -30 -89 -37l-9 -168h-37l-13 170q-164 25 -164 360q0 189 54.5 275.5t143.5 86.5q63 0 109 -24l-16 -54q-37 23 -88 23q-64 0 -103.5 -73t-39.5 -234q0 -153 39 -230t112 -77q45 0 87 32z" />
    <glyph glyph-name="uni04AB" unicode="&#x4ab;" horiz-adv-x="284" 
d="M254 65l17 -46q-32 -25 -67 -31l-9 -168h-37l-13 168q-115 22 -115 262q0 126 37 194t105 68q59 0 93 -22l-16 -49q-32 18 -71 18q-89 0 -89 -209t98 -209q39 0 67 24z" />
    <glyph glyph-name="uni04AC" unicode="&#x4ac;" horiz-adv-x="361" 
d="M151 0v645h-140v55h339v-55h-140v-590h63v-186h-41l-10 131h-71z" />
    <glyph glyph-name="uni04AD" unicode="&#x4ad;" horiz-adv-x="258" 
d="M101 0v447h-100v53h257v-53h-100v-394h47v-183h-38l-11 130h-55z" />
    <glyph glyph-name="uni04AE" unicode="&#x4ae;" horiz-adv-x="367" 
d="M155 0v282l-150 418h68l103 -312l10 -58h2l11 60l100 310h63l-148 -417v-283h-59z" />
    <glyph glyph-name="uni04AF" unicode="&#x4af;" horiz-adv-x="314" 
d="M131 0l-127 500h66l76 -323l17 -116h1l16 118l69 321h61l-122 -500v-200h-57v200z" />
    <glyph glyph-name="uni04B0" unicode="&#x4b0;" horiz-adv-x="367" 
d="M57 233v50h97l-149 417h68l103 -312l10 -58h2l11 60l100 310h63l-148 -417h98v-50h-98v-233h-59v233h-98z" />
    <glyph glyph-name="uni04B1" unicode="&#x4b1;" horiz-adv-x="314" 
d="M53 -52v53h77l-126 499h66l76 -323l17 -116h1l16 118l69 321h61l-122 -499h78v-53h-78v-148h-57v148h-78z" />
    <glyph glyph-name="uni04B2" unicode="&#x4b2;" horiz-adv-x="433" 
d="M16 0l149 356l-136 344h70l89 -245l17 -56l16 56l95 245h64l-141 -337l125 -308h62v-185h-41l-10 130h-56l-99 259l-19 59l-18 -59l-102 -259h-65z" />
    <glyph glyph-name="uni04B3" unicode="&#x4b3;" horiz-adv-x="343" 
d="M15 0l116 256l-108 244h66l62 -152l15 -54l16 54l63 152h60l-108 -240l91 -207h50v-183h-38l-11 130h-38l-72 166l-16 57l-17 -57l-71 -166h-60z" />
    <glyph glyph-name="uni04B4" unicode="&#x4b4;" horiz-adv-x="544" 
d="M527 55v-185h-41l-10 130h-325v645h-140v55h313v-55h-114v-590h198v645h59v-645h60z" />
    <glyph glyph-name="uni04B5" unicode="&#x4b5;" horiz-adv-x="410" 
d="M397 53v-183h-39l-10 130h-247v447h-100v53h243v-53h-86v-394h135v447h57v-447h47z" />
    <glyph glyph-name="uni04B6" unicode="&#x4b6;" horiz-adv-x="420" 
d="M281 0v302q-43 -41 -106 -41q-59 0 -94.5 35t-35.5 133v271h59v-257q0 -73 20 -100t60 -27q27 0 54 14t43 36v334h59v-645h62v-186h-41l-10 131h-70z" />
    <glyph glyph-name="uni04B7" unicode="&#x4b7;" horiz-adv-x="333" 
d="M214 0v213q-34 -26 -84 -26q-102 0 -102 133v180h57v-155q0 -53 11 -79t44 -26q50 0 74 28v232h57v-447h49v-183h-38l-11 130h-57z" />
    <glyph glyph-name="uni04B8" unicode="&#x4b8;" horiz-adv-x="401" 
d="M175 150v111q-65 1 -97.5 39t-32.5 135v265h59v-254q0 -67 17 -97t54 -33v134h46v-129q44 13 68 45v334h59v-700h-59v302q-29 -25 -68 -36v-116h-46z" />
    <glyph glyph-name="uni04B9" unicode="&#x4b9;" horiz-adv-x="325" 
d="M133 70v110q-55 0 -80 38t-25 134v148h57v-148q0 -55 10 -85t38 -34v137h42v-134q31 7 45 28v236h57v-500h-57v213q-18 -18 -45 -27v-116h-42z" />
    <glyph glyph-name="uni04BA" unicode="&#x4ba;" horiz-adv-x="394" 
d="M349 0h-59v241q0 76 -17.5 110t-60.5 34q-62 0 -100 -47v-338h-59v700h59v-303q53 43 111 43q64 0 95 -41.5t31 -152.5v-246z" />
    <glyph glyph-name="uni04BB" unicode="&#x4bb;" horiz-adv-x="355" 
d="M313 0h-57v319q0 72 -14.5 106t-53.5 34q-28 0 -50.5 -22t-32.5 -56v-381h-57v700h57v-240h2q39 52 100 52q55 0 80.5 -39.5t25.5 -134.5v-338z" />
    <glyph glyph-name="uni04BC" unicode="&#x4bc;" horiz-adv-x="509" 
d="M464 325h-279q5 -143 40 -212.5t105 -69.5q44 0 96 40l20 -51q-55 -44 -126 -44q-189 0 -195 337h-23q-54 0 -78 25.5t-24 81.5q0 52 24 86h55q-25 -30 -25 -79q0 -31 12 -45t48 -14h11q4 160 49.5 246t131.5 86q81 0 122.5 -69.5t41.5 -196.5q0 -69 -6 -121zM184 380
h224q3 24 3 70q0 90 -26 148.5t-78 58.5q-116 0 -123 -277z" />
    <glyph glyph-name="uni04BD" unicode="&#x4bd;" horiz-adv-x="406" 
d="M341 72l21 -44q-40 -40 -110 -40q-75 0 -112 69t-37 191h-7q-93 0 -93 107q0 63 40 105h57q-46 -38 -46 -103q0 -57 42 -57h8q7 103 44.5 157.5t99.5 54.5q124 0 125 -182q0 -41 -4 -82h-207q2 -207 105 -207q45 0 74 31zM248 459q-77 0 -84 -158h154v15q0 70 -19 106.5
t-51 36.5z" />
    <glyph glyph-name="uni04BE" unicode="&#x4be;" horiz-adv-x="509" 
d="M464 325h-279q5 -143 40 -212.5t105 -69.5q44 0 96 40l20 -51q-47 -38 -98 -45l-9 -167h-37l-13 168q-160 26 -164 337h-23q-54 0 -78 25.5t-24 81.5q0 52 24 86h55q-25 -30 -25 -79q0 -31 12 -45t48 -14h11q4 160 49.5 246t131.5 86q81 0 122.5 -69.5t41.5 -196.5
q0 -69 -6 -121zM184 380h224q3 24 3 70q0 90 -26 148.5t-78 58.5q-116 0 -123 -277z" />
    <glyph glyph-name="uni04BF" unicode="&#x4bf;" horiz-adv-x="406" 
d="M341 72l21 -44q-33 -32 -79 -40l-9 -168h-37l-13 168q-61 12 -91 80.5t-30 179.5h-8q-92 0 -92 107q0 63 40 105h57q-46 -38 -46 -103q0 -57 42 -57h8q7 103 44.5 157.5t99.5 54.5q124 0 125 -182q0 -41 -4 -82h-207q2 -207 105 -207q45 0 74 31zM248 459q-77 0 -84 -158
h154v15q0 70 -19 106.5t-51 36.5z" />
    <glyph glyph-name="uni04C0" unicode="&#x4c0;" horiz-adv-x="187" 
d="M64 0v700h59v-700h-59z" />
    <glyph glyph-name="uni04C3" unicode="&#x4c3;" horiz-adv-x="391" 
d="M285 70q0 148 -32.5 203.5t-110.5 55.5h-30v-329h-59v700h59v-329l28 14l149 315h68l-143 -287l-38 -38h39q72 -23 100.5 -87.5t28.5 -216.5v-17q0 -142 -34 -204.5t-101 -62.5q-3 0 -8 0.5t-7 0.5v56q52 0 71.5 51t19.5 175z" />
    <glyph glyph-name="uni04C4" unicode="&#x4c4;" horiz-adv-x="315" 
d="M232 13q0 112 -24.5 162t-73.5 51h-29v-226h-57v500h57v-239l28 14l100 225h60l-98 -213l-24 -25l28 -6q90 -31 90 -226v-16q0 -223 -118 -223q-8 0 -22 2v52q4 -1 11 -1q34 0 53 44.5t19 124.5z" />
    <glyph glyph-name="uni04C5" unicode="&#x4c5;" horiz-adv-x="415" 
d="M294 0v645h-129q-13 -431 -48 -555q-26 -94 -81 -94q-23 0 -39 9l9 55q8 -3 14 -3q26 0 42 55q41 139 46 588h245v-647h62v-20l-60 -163h-39l29 130h-51z" />
    <glyph glyph-name="uni04C6" unicode="&#x4c6;" horiz-adv-x="341" 
d="M222 0v447h-89q-5 -239 -23.5 -345t-74.5 -106q-27 0 -40 8l8 51q10 -2 13 -2q21 0 33 30.5t21 130.5t11 286h198v-447h62v-20l-60 -163h-39l29 130h-49z" />
    <glyph glyph-name="uni04C7" unicode="&#x4c7;" horiz-adv-x="435" 
d="M382 700v-728q0 -96 -21.5 -140.5t-73.5 -44.5q-11 0 -17 1v54q35 0 44 34t9 124v332h-211v-332h-59v700h59v-313h211v313h59z" />
    <glyph glyph-name="uni04C8" unicode="&#x4c8;" horiz-adv-x="351" 
d="M246 0v230h-141v-230h-57v500h57v-217h141v217h57v-528q0 -93 -22.5 -135.5t-71.5 -42.5q-12 0 -18 1v52q35 0 45 34t10 119z" />
    <glyph glyph-name="uni04C9" unicode="&#x4c9;" horiz-adv-x="448" 
d="M323 0v332h-211v-332h-59v700h59v-313h211v313h59v-647h66v-20l-60 -163h-39l29 130h-55z" />
    <glyph glyph-name="uni04CA" unicode="&#x4ca;" horiz-adv-x="365" 
d="M246 0v230h-141v-230h-57v500h57v-217h141v217h57v-447h62v-20l-60 -163h-39l29 130h-49z" />
    <glyph glyph-name="uni04CB" unicode="&#x4cb;" horiz-adv-x="393" 
d="M45 700h59v-257q0 -73 20 -100t60 -27q27 0 54 14t43 36v334h59v-700h-71l-10 -130h-41v185h63v247q-43 -41 -106 -41q-59 0 -94.5 35t-35.5 133v271z" />
    <glyph glyph-name="uni04CC" unicode="&#x4cc;" horiz-adv-x="318" 
d="M213 53v163q-29 -29 -87 -29q-51 0 -74.5 35t-23.5 130v148h57v-141q0 -59 11 -89t43 -30q51 0 74 27v233h57v-500h-61l-9 -130h-40v183h53z" />
    <glyph glyph-name="uni04CD" unicode="&#x4cd;" horiz-adv-x="528" 
d="M403 0v473l9 102h-4l-27 -97l-113 -307h-21l-120 307l-26 97h-4l13 -102v-473h-57v700h53l134 -343l20 -83h1l19 84l128 342h54v-647h66v-20l-60 -163h-39l29 130h-55z" />
    <glyph glyph-name="uni04CE" unicode="&#x4ce;" horiz-adv-x="433" 
d="M316 0v312l5 93h-4l-24 -89l-76 -198h-20l-79 198l-23 89h-4l7 -92v-313h-50v500h55l89 -218l18 -71h1l20 73l83 216h57v-447h62v-20l-60 -163h-39l29 130h-47z" />
    <glyph glyph-name="uni04CF" unicode="&#x4cf;" horiz-adv-x="166" 
d="M55 0v700h57v-700h-57z" />
    <glyph glyph-name="uni04D0" unicode="&#x4d0;" horiz-adv-x="382" 
d="M316 0l-47 206h-160l-46 -206h-59l171 712h31l172 -712h-62zM173 488l-49 -227h131l-50 229l-15 104h-2zM78 855l57 14q2 -40 17 -63.5t41 -23.5q53 0 58 86l51 -13q-6 -57 -34 -88.5t-76 -31.5t-79 30.5t-35 89.5z" />
    <glyph glyph-name="uni04D1" unicode="&#x4d1;" horiz-adv-x="322" 
d="M66 429l-21 45q52 34 126 34q62 0 83.5 -39t21.5 -111q0 -42 -2 -118t-2 -108q0 -88 10 -134h-43l-14 49h-3q-28 -53 -97 -53q-46 0 -73.5 37.5t-27.5 101.5q0 150 162 150q22 0 33 -1q2 44 2 58q0 63 -14 89t-50 26q-50 0 -91 -26zM140 47q56 0 79 56v129q-22 2 -33 2
q-103 0 -103 -96q0 -44 15.5 -67.5t41.5 -23.5zM58 686l46 15q4 -44 20.5 -66.5t38.5 -22.5t38.5 23.5t19.5 64.5l43 -12q-4 -58 -33 -90.5t-69 -32.5t-69.5 29t-34.5 92z" />
    <glyph glyph-name="uni04D2" unicode="&#x4d2;" horiz-adv-x="382" 
d="M316 0l-47 206h-160l-46 -206h-59l171 712h31l172 -712h-62zM173 488l-49 -227h131l-50 229l-15 104h-2zM90 793q0 20 10.5 32.5t27.5 12.5q16 0 26 -12.5t10 -32.5t-10 -32t-26 -12q-17 0 -27.5 12t-10.5 32zM217 793q0 20 10 32.5t27 12.5t27 -12.5t10 -32.5t-10.5 -32
t-26.5 -12t-26.5 12t-10.5 32z" />
    <glyph glyph-name="uni04D3" unicode="&#x4d3;" horiz-adv-x="322" 
d="M66 429l-21 45q52 34 126 34q62 0 83.5 -39t21.5 -111q0 -42 -2 -118t-2 -108q0 -88 10 -134h-43l-14 49h-3q-28 -53 -97 -53q-46 0 -73.5 37.5t-27.5 101.5q0 150 162 150q22 0 33 -1q2 44 2 58q0 63 -14 89t-50 26q-50 0 -91 -26zM140 47q56 0 79 56v129q-22 2 -33 2
q-103 0 -103 -96q0 -44 15.5 -67.5t41.5 -23.5zM62 634q0 20 9.5 31.5t24.5 11.5t24.5 -11.5t9.5 -31.5q0 -19 -9.5 -30.5t-24.5 -11.5t-24.5 11.5t-9.5 30.5zM189 634q0 20 9.5 31.5t25.5 11.5q33 0 33 -43q0 -19 -9 -30.5t-24 -11.5q-16 0 -25.5 11.5t-9.5 30.5z" />
    <glyph glyph-name="uni04D4" unicode="&#x4d4;" horiz-adv-x="551" 
d="M257 595h-2l-21 -95l-88 -239h111v334zM257 0v206h-133l-76 -206h-62l270 700h252v-55h-192v-257h175v-55h-175v-278h195v-55h-254z" />
    <glyph glyph-name="uni04D5" unicode="&#x4d5;" horiz-adv-x="517" 
d="M141 45q31 0 51 20.5t27 51.5v121q-18 2 -27 2q-109 0 -109 -98q0 -38 16.5 -67.5t41.5 -29.5zM244 65h-5q-34 -73 -109 -73q-48 0 -77 39.5t-29 105.5q0 83 40.5 117t115.5 34q13 0 39 -2q2 44 2 58q0 62 -14 86.5t-50 24.5q-23 0 -50.5 -10t-45.5 -26l-18 45
q48 44 128 44q69 0 88 -66q30 70 102 70q124 0 124 -186q0 -51 -4 -82h-207q1 -105 24.5 -154t77.5 -49q22 0 44.5 8.5t33.5 19.5l21 -44q-43 -37 -114 -37q-40 0 -71.5 20t-45.5 57zM362 459q-78 0 -86 -164h155v16q0 70 -19 109t-50 39z" />
    <glyph glyph-name="uni04D6" unicode="&#x4d6;" horiz-adv-x="347" 
d="M53 0v700h251v-55h-192v-257h176v-55h-176v-278h195v-55h-254zM66 855l57 14q2 -40 17 -63.5t41 -23.5q53 0 58 86l51 -13q-6 -57 -34 -88.5t-76 -31.5t-79 30.5t-35 89.5z" />
    <glyph glyph-name="uni04D7" unicode="&#x4d7;" horiz-adv-x="330" 
d="M268 72l21 -44q-40 -40 -110 -40q-75 0 -112 69.5t-37 192.5q0 126 38 194t107 68q124 0 125 -182q0 -41 -4 -82h-207q2 -207 105 -207q45 0 74 31zM175 459q-77 0 -84 -158h154v15q0 70 -19 106.5t-51 36.5zM68 686l46 15q4 -44 20.5 -66.5t38.5 -22.5t38.5 23.5
t19.5 64.5l43 -12q-4 -58 -33 -90.5t-69 -32.5t-69.5 29t-34.5 92z" />
    <glyph glyph-name="uni04D8" unicode="&#x4d8;" horiz-adv-x="416" 
d="M323 329h-227q-3 -39 -3 -72q0 -95 27 -154.5t81 -59.5q120 0 122 286zM41 384h281q-5 139 -37.5 206t-98.5 67q-49 0 -101 -40l-20 51q65 44 130 44q96 0 141 -85.5t45 -276.5q0 -362 -182 -362q-81 0 -123 71.5t-42 199.5q0 62 7 125z" />
    <glyph glyph-name="afii10846" unicode="&#x4d9;" horiz-adv-x="330" 
d="M62 431l-21 44q42 37 114 37q145 0 145 -262t-141 -262q-59 0 -94 52.5t-35 157.5q0 16 4 74h209q-2 97 -25.5 142t-77.5 45q-50 0 -78 -28zM160 41q39 0 60.5 45.5t21.5 132.5h-157v-10q0 -81 21 -124.5t54 -43.5z" />
    <glyph glyph-name="uni04DA" unicode="&#x4da;" horiz-adv-x="416" 
d="M323 329h-227q-3 -39 -3 -72q0 -95 27 -154.5t81 -59.5q120 0 122 286zM41 384h281q-5 139 -37.5 206t-98.5 67q-49 0 -101 -40l-20 51q65 44 130 44q96 0 141 -85.5t45 -276.5q0 -362 -182 -362q-81 0 -123 71.5t-42 199.5q0 62 7 125zM99 793q0 20 10.5 32.5t27.5 12.5
q16 0 26 -12.5t10 -32.5t-10 -32t-26 -12q-17 0 -27.5 12t-10.5 32zM226 793q0 20 10 32.5t27 12.5t27 -12.5t10 -32.5t-10.5 -32t-26.5 -12t-26.5 12t-10.5 32z" />
    <glyph glyph-name="uni04DB" unicode="&#x4db;" horiz-adv-x="330" 
d="M62 431l-21 44q42 37 114 37q145 0 145 -262t-141 -262q-59 0 -94 52.5t-35 157.5q0 16 4 74h209q-2 97 -25.5 142t-77.5 45q-50 0 -78 -28zM160 41q39 0 60.5 45.5t21.5 132.5h-157v-10q0 -81 21 -124.5t54 -43.5zM61 634q0 20 9.5 31.5t24.5 11.5t24.5 -11.5t9.5 -31.5
q0 -19 -9.5 -30.5t-24.5 -11.5t-24.5 11.5t-9.5 30.5zM188 634q0 20 9.5 31.5t25.5 11.5q33 0 33 -43q0 -19 -9 -30.5t-24 -11.5q-16 0 -25.5 11.5t-9.5 30.5z" />
    <glyph glyph-name="uni04DC" unicode="&#x4dc;" horiz-adv-x="527" 
d="M232 383v317h57v-329l27 14l127 315h65l-127 -303l-28 -32l34 -40l142 -325h-73l-138 329h-29v-329h-57v341l-27 -14l-138 -327h-68l140 315l31 37l-30 35l-132 313h70l125 -317h29zM161 793q0 20 10.5 32.5t27.5 12.5q16 0 26 -12.5t10 -32.5t-10 -32t-26 -12
q-17 0 -27.5 12t-10.5 32zM288 793q0 20 10 32.5t27 12.5t27 -12.5t10 -32.5t-10.5 -32t-26.5 -12t-26.5 12t-10.5 32z" />
    <glyph glyph-name="uni04DD" unicode="&#x4dd;" horiz-adv-x="435" 
d="M186 239l-31 -14l-93 -225h-61l99 229l22 30l-33 38l-82 203h59l86 -219h34v219h57v-229l31 14l87 215h57l-86 -203l-25 -32l33 -40l94 -225h-63l-94 229h-34v-229h-57v239zM119 634q0 20 9.5 31.5t24.5 11.5t24.5 -11.5t9.5 -31.5q0 -19 -9.5 -30.5t-24.5 -11.5
t-24.5 11.5t-9.5 30.5zM246 634q0 20 9.5 31.5t25.5 11.5q33 0 33 -43q0 -19 -9 -30.5t-24 -11.5q-16 0 -25.5 11.5t-9.5 30.5z" />
    <glyph glyph-name="uni04DE" unicode="&#x4de;" horiz-adv-x="351" 
d="M121 339h-33v55h18q40 0 56 5q34 12 57 46.5t23 82.5q0 129 -97 129q-53 0 -92 -24l-17 47q48 32 122 32q144 0 144 -171q0 -53 -21.5 -97.5t-63.5 -65.5v-4q46 -11 72.5 -54.5t26.5 -114.5q0 -110 -48 -163.5t-126 -53.5q-76 0 -117 24l16 56q39 -25 104 -25
q50 0 80.5 42t30.5 116q0 128 -105 136q-20 2 -30 2zM58 793q0 20 10.5 32.5t27.5 12.5q16 0 26 -12.5t10 -32.5t-10 -32t-26 -12q-17 0 -27.5 12t-10.5 32zM185 793q0 20 10 32.5t27 12.5t27 -12.5t10 -32.5t-10.5 -32t-26.5 -12t-26.5 12t-10.5 32z" />
    <glyph glyph-name="uni04DF" unicode="&#x4df;" horiz-adv-x="281" 
d="M112 229h-37v53h45q23 0 42 27t19 60q0 83 -67 83q-44 0 -77 -23l-18 45q42 31 107 31q53 0 82.5 -30.5t29.5 -90.5q0 -41 -16 -71.5t-43 -44.5v-4q72 -22 72 -124q0 -66 -36.5 -106.5t-105.5 -40.5q-53 0 -91 22l16 51q30 -20 76 -20q41 0 62.5 25.5t21.5 72.5
q0 85 -82 85zM28 634q0 20 9.5 31.5t24.5 11.5t24.5 -11.5t9.5 -31.5q0 -19 -9.5 -30.5t-24.5 -11.5t-24.5 11.5t-9.5 30.5zM155 634q0 20 9.5 31.5t25.5 11.5q33 0 33 -43q0 -19 -9 -30.5t-24 -11.5q-16 0 -25.5 11.5t-9.5 30.5z" />
    <glyph glyph-name="uni04E0" unicode="&#x4e0;" horiz-adv-x="365" 
d="M149 43q58 0 87.5 43.5t29.5 115.5q0 145 -125 145h-58v21l122 241l28 43l-39 -7h-157v55h271v-20l-132 -254l-24 -31v-2l23 7q67 0 108.5 -49t41.5 -138q0 -107 -45.5 -166t-129.5 -59q-74 0 -117 29l16 57q45 -31 100 -31z" />
    <glyph glyph-name="uni04E1" unicode="&#x4e1;" horiz-adv-x="311" 
d="M116 -155q48 0 77.5 44t29.5 113q0 75 -27 113t-77 38h-46v20l98 238l30 43l-42 -7h-134v53h238v-20l-106 -250l-22 -29v-2l24 7q53 -6 87 -55t34 -139q0 -104 -45.5 -162t-119.5 -58q-54 0 -92 19l17 52q28 -18 76 -18z" />
    <glyph glyph-name="uni04E2" unicode="&#x4e2;" horiz-adv-x="441" 
d="M329 0v466l6 99h-3l-28 -101l-210 -464h-41v700h59v-475l-6 -98h3l28 101l212 472h39v-700h-59zM118 764v56h208v-56h-208z" />
    <glyph glyph-name="uni04E3" unicode="&#x4e3;" horiz-adv-x="353" 
d="M249 0v297l8 88h-4l-30 -101l-135 -284h-40v500h57v-306l-9 -85h5l29 98l136 293h40v-500h-57zM80 588v52h195v-52h-195z" />
    <glyph glyph-name="uni04E4" unicode="&#x4e4;" horiz-adv-x="441" 
d="M329 0v466l6 99h-3l-28 -101l-210 -464h-41v700h59v-475l-6 -98h3l28 101l212 472h39v-700h-59zM126 793q0 20 10.5 32.5t27.5 12.5q16 0 26 -12.5t10 -32.5t-10 -32t-26 -12q-17 0 -27.5 12t-10.5 32zM253 793q0 20 10 32.5t27 12.5t27 -12.5t10 -32.5t-10.5 -32
t-26.5 -12t-26.5 12t-10.5 32z" />
    <glyph glyph-name="uni04E5" unicode="&#x4e5;" horiz-adv-x="353" 
d="M249 0v297l8 88h-4l-30 -101l-135 -284h-40v500h57v-306l-9 -85h5l29 98l136 293h40v-500h-57zM81 634q0 20 9.5 31.5t24.5 11.5t24.5 -11.5t9.5 -31.5q0 -19 -9.5 -30.5t-24.5 -11.5t-24.5 11.5t-9.5 30.5zM208 634q0 20 9.5 31.5t25.5 11.5q33 0 33 -43q0 -19 -9 -30.5
t-24 -11.5q-16 0 -25.5 11.5t-9.5 30.5z" />
    <glyph glyph-name="uni04E6" unicode="&#x4e6;" horiz-adv-x="443" 
d="M35 350q0 182 44.5 272t141.5 90q102 0 144.5 -91.5t42.5 -270.5q0 -183 -44.5 -272.5t-142.5 -89.5q-101 0 -143.5 92t-42.5 270zM95 350q0 -85 11.5 -151.5t41 -111t73.5 -44.5q127 0 127 307q0 134 -30.5 220.5t-96.5 86.5q-126 0 -126 -307zM121 793q0 20 10.5 32.5
t27.5 12.5q16 0 26 -12.5t10 -32.5t-10 -32t-26 -12q-17 0 -27.5 12t-10.5 32zM248 793q0 20 10 32.5t27 12.5t27 -12.5t10 -32.5t-10.5 -32t-26.5 -12t-26.5 12t-10.5 32z" />
    <glyph glyph-name="uni04E7" unicode="&#x4e7;" horiz-adv-x="348" 
d="M30 250q0 137 36.5 199.5t107.5 62.5q75 0 109.5 -61t34.5 -201q0 -139 -36 -200.5t-108 -61.5q-75 0 -109.5 61t-34.5 201zM89 250q0 -209 85 -209q44 0 64.5 49t20.5 160q0 209 -85 209t-85 -209zM77 634q0 20 9.5 31.5t24.5 11.5t24.5 -11.5t9.5 -31.5
q0 -19 -9.5 -30.5t-24.5 -11.5t-24.5 11.5t-9.5 30.5zM204 634q0 20 9.5 31.5t25.5 11.5q33 0 33 -43q0 -19 -9 -30.5t-24 -11.5q-16 0 -25.5 11.5t-9.5 30.5z" />
    <glyph glyph-name="uni04E8" unicode="&#x4e8;" horiz-adv-x="443" 
d="M35 350q0 182 44.5 272t141.5 90q102 0 145 -92t43 -270q0 -182 -44.5 -272t-143.5 -90q-101 0 -143.5 92t-42.5 270zM221 43q124 0 128 286h-254q2 -126 33 -206t93 -80zM221 657q-119 0 -126 -273h253q-3 120 -34 196.5t-93 76.5z" />
    <glyph glyph-name="uni04E9" unicode="&#x4e9;" horiz-adv-x="348" 
d="M30 250q0 262 144 262t144 -262t-144 -262t-144 262zM89 275h170q-5 184 -85 184q-79 0 -85 -184zM259 222h-170q1 -89 25 -135t60 -46q81 0 85 181z" />
    <glyph glyph-name="uni04EA" unicode="&#x4ea;" horiz-adv-x="443" 
d="M35 350q0 182 44.5 272t141.5 90q102 0 145 -92t43 -270q0 -182 -44.5 -272t-143.5 -90q-101 0 -143.5 92t-42.5 270zM221 43q124 0 128 286h-254q2 -126 33 -206t93 -80zM221 657q-119 0 -126 -273h253q-3 120 -34 196.5t-93 76.5zM121 793q0 20 10.5 32.5t27.5 12.5
q16 0 26 -12.5t10 -32.5t-10 -32t-26 -12q-17 0 -27.5 12t-10.5 32zM248 793q0 20 10 32.5t27 12.5t27 -12.5t10 -32.5t-10.5 -32t-26.5 -12t-26.5 12t-10.5 32z" />
    <glyph glyph-name="uni04EB" unicode="&#x4eb;" horiz-adv-x="348" 
d="M30 250q0 262 144 262t144 -262t-144 -262t-144 262zM89 275h170q-5 184 -85 184q-79 0 -85 -184zM259 222h-170q1 -89 25 -135t60 -46q81 0 85 181zM77 634q0 20 9.5 31.5t24.5 11.5t24.5 -11.5t9.5 -31.5q0 -19 -9.5 -30.5t-24.5 -11.5t-24.5 11.5t-9.5 30.5zM204 634
q0 20 9.5 31.5t25.5 11.5q33 0 33 -43q0 -19 -9 -30.5t-24 -11.5q-16 0 -25.5 11.5t-9.5 30.5z" />
    <glyph glyph-name="uni04EC" unicode="&#x4ec;" horiz-adv-x="375" 
d="M95 329v55h185q-2 135 -39 204t-103 69q-49 0 -95 -31l-22 49q53 37 122 37q97 0 147 -84t50 -275q0 -365 -207 -365q-63 0 -107 24l16 55q41 -24 95 -24q63 0 102.5 70t41.5 216h-186zM51 793q0 20 10.5 32.5t27.5 12.5q16 0 26 -12.5t10 -32.5t-10 -32t-26 -12
q-17 0 -27.5 12t-10.5 32zM178 793q0 20 10 32.5t27 12.5t27 -12.5t10 -32.5t-10.5 -32t-26.5 -12t-26.5 12t-10.5 32z" />
    <glyph glyph-name="uni04ED" unicode="&#x4ed;" horiz-adv-x="299" 
d="M75 225v53h134q-2 181 -90 181q-43 0 -76 -25l-22 46q40 32 105 32q73 0 107.5 -63t34.5 -199q0 -262 -153 -262q-55 0 -93 19l16 53q30 -19 74 -19q95 0 98 184h-135zM29 634q0 20 9.5 31.5t24.5 11.5t24.5 -11.5t9.5 -31.5q0 -19 -9.5 -30.5t-24.5 -11.5t-24.5 11.5
t-9.5 30.5zM156 634q0 20 9.5 31.5t25.5 11.5q33 0 33 -43q0 -19 -9 -30.5t-24 -11.5q-16 0 -25.5 11.5t-9.5 30.5z" />
    <glyph glyph-name="uni04EE" unicode="&#x4ee;" horiz-adv-x="361" 
d="M71 700l112 -362l15 -89h4l13 92l86 359h61l-115 -449q-41 -161 -63 -208.5t-65 -47.5q-36 0 -60 21l18 53q21 -17 42 -17q31 0 52 128l-168 520h68zM87 764v56h208v-56h-208z" />
    <glyph glyph-name="uni04EF" unicode="&#x4ef;" horiz-adv-x="302" 
d="M68 500l79 -333l18 -100h3l13 101l63 332h56l-96 -449q-14 -68 -23.5 -105.5t-24 -77t-31.5 -56.5t-39 -17t-37 8l9 57q8 -2 13 -2q23 0 38.5 32t26.5 110l-131 500h63zM56 588v52h195v-52h-195z" />
    <glyph glyph-name="uni04F0" unicode="&#x4f0;" horiz-adv-x="361" 
d="M71 700l112 -362l15 -89h4l13 92l86 359h61l-115 -449q-41 -161 -63 -208.5t-65 -47.5q-36 0 -60 21l18 53q21 -17 42 -17q31 0 52 128l-168 520h68zM89 793q0 20 10.5 32.5t27.5 12.5q16 0 26 -12.5t10 -32.5t-10 -32t-26 -12q-17 0 -27.5 12t-10.5 32zM216 793
q0 20 10 32.5t27 12.5t27 -12.5t10 -32.5t-10.5 -32t-26.5 -12t-26.5 12t-10.5 32z" />
    <glyph glyph-name="uni04F1" unicode="&#x4f1;" horiz-adv-x="302" 
d="M68 500l79 -333l18 -100h3l13 101l63 332h56l-96 -449q-14 -68 -23.5 -105.5t-24 -77t-31.5 -56.5t-39 -17t-37 8l9 57q8 -2 13 -2q23 0 38.5 32t26.5 110l-131 500h63zM62 634q0 20 9.5 31.5t24.5 11.5t24.5 -11.5t9.5 -31.5q0 -19 -9.5 -30.5t-24.5 -11.5t-24.5 11.5
t-9.5 30.5zM189 634q0 20 9.5 31.5t25.5 11.5q33 0 33 -43q0 -19 -9 -30.5t-24 -11.5q-16 0 -25.5 11.5t-9.5 30.5z" />
    <glyph glyph-name="uni04F2" unicode="&#x4f2;" horiz-adv-x="361" 
d="M71 700l112 -362l15 -89h4l13 92l86 359h61l-115 -449q-41 -161 -63 -208.5t-65 -47.5q-36 0 -60 21l18 53q21 -17 42 -17q31 0 52 128l-168 520h68zM115 741l41 109h65v-16l-65 -93h-41zM199 741l66 109h69v-16l-93 -93h-42z" />
    <glyph glyph-name="uni04F3" unicode="&#x4f3;" horiz-adv-x="302" 
d="M68 500l79 -333l18 -100h3l13 101l63 332h56l-96 -449q-14 -68 -23.5 -105.5t-24 -77t-31.5 -56.5t-39 -17t-37 8l9 57q8 -2 13 -2q23 0 38.5 32t26.5 110l-131 500h63zM101 571l22 129h55v-16l-47 -113h-30zM174 571l48 129h59v-16l-74 -113h-33z" />
    <glyph glyph-name="uni04F4" unicode="&#x4f4;" horiz-adv-x="393" 
d="M45 700h59v-257q0 -73 20 -100t60 -27q27 0 54 14t43 36v334h59v-700h-59v302q-43 -41 -106 -41q-59 0 -94.5 35t-35.5 133v271zM96 793q0 20 10.5 32.5t27.5 12.5q16 0 26 -12.5t10 -32.5t-10 -32t-26 -12q-17 0 -27.5 12t-10.5 32zM223 793q0 20 10 32.5t27 12.5
t27 -12.5t10 -32.5t-10.5 -32t-26.5 -12t-26.5 12t-10.5 32z" />
    <glyph glyph-name="uni04F5" unicode="&#x4f5;" horiz-adv-x="318" 
d="M28 500h57v-155q0 -53 11 -79t44 -26q50 0 74 28v232h57v-500h-57v213q-34 -26 -84 -26q-102 0 -102 133v180zM53 634q0 20 9.5 31.5t24.5 11.5t24.5 -11.5t9.5 -31.5q0 -19 -9.5 -30.5t-24.5 -11.5t-24.5 11.5t-9.5 30.5zM180 634q0 20 9.5 31.5t25.5 11.5q33 0 33 -43
q0 -19 -9 -30.5t-24 -11.5q-16 0 -25.5 11.5t-9.5 30.5z" />
    <glyph glyph-name="uni04F6" unicode="&#x4f6;" horiz-adv-x="289" 
d="M53 0v700h247v-55h-188v-590h64v-186h-41l-10 131h-72z" />
    <glyph glyph-name="uni04F7" unicode="&#x4f7;" horiz-adv-x="237" 
d="M48 0v500h191v-53h-134v-394h49v-183h-38l-11 130h-57z" />
    <glyph glyph-name="uni04F8" unicode="&#x4f8;" horiz-adv-x="503" 
d="M391 0v700h59v-700h-59zM53 5v695h59v-277q27 9 58 9q73 0 115.5 -45t42.5 -162q0 -121 -42.5 -177t-130.5 -56q-58 0 -102 13zM160 47q108 0 108 171q0 90 -27.5 124.5t-80.5 34.5q-28 0 -48 -9v-314q17 -7 48 -7zM149 793q0 20 10.5 32.5t27.5 12.5q16 0 26 -12.5
t10 -32.5t-10 -32t-26 -12q-17 0 -27.5 12t-10.5 32zM276 793q0 20 10 32.5t27 12.5t27 -12.5t10 -32.5t-10.5 -32t-26.5 -12t-26.5 12t-10.5 32z" />
    <glyph glyph-name="uni04F9" unicode="&#x4f9;" horiz-adv-x="433" 
d="M105 253v-200q26 -6 45 -6q38 0 54 26.5t16 81.5q0 105 -69 105q-27 0 -46 -7zM105 500v-194q29 7 58 7q116 0 116 -147q0 -91 -33 -131.5t-108 -40.5q-45 0 -90 6v500h57zM328 0v500h57v-500h-57zM115 634q0 20 9.5 31.5t24.5 11.5t24.5 -11.5t9.5 -31.5
q0 -19 -9.5 -30.5t-24.5 -11.5t-24.5 11.5t-9.5 30.5zM242 634q0 20 9.5 31.5t25.5 11.5q33 0 33 -43q0 -19 -9 -30.5t-24 -11.5q-16 0 -25.5 11.5t-9.5 30.5z" />
    <glyph glyph-name="uni04FC" unicode="&#x4fc;" horiz-adv-x="400" 
d="M310 -52q0 82 -33 166l-57 144l-19 60l-18 -59l-102 -259h-65l149 356l-136 344h70l89 -245l17 -56l16 56l95 245h64l-141 -337l88 -216q42 -104 42 -185q0 -91 -24.5 -131.5t-76.5 -40.5q-2 0 -7 0.5t-8 0.5v54q25 0 38 16t16 35.5t3 51.5z" />
    <glyph glyph-name="uni04FD" unicode="&#x4fd;" horiz-adv-x="331" 
d="M204 260l61 -134q41 -90 41 -164q0 -168 -102 -168q-12 0 -18 1v52q35 0 49 23t14 72q0 71 -34 151l-29 66l-20 58l-20 -58l-68 -159h-63l116 256l-108 244h70l58 -145l18 -62l20 62l59 145h64z" />
    <glyph glyph-name="uni04FE" unicode="&#x4fe;" horiz-adv-x="404" 
d="M32 333v53h121l-124 314h70l89 -245l17 -56l16 56l95 245h64l-132 -314h125v-53h-122l136 -333h-68l-99 259l-19 59l-18 -59l-102 -259h-65l139 333h-123z" />
    <glyph glyph-name="uni04FF" unicode="&#x4ff;" horiz-adv-x="327" 
d="M32 236v48h86l-95 216h66l62 -152l15 -54l16 54l63 152h60l-97 -216h87v-48h-88l105 -236h-61l-72 166l-16 57l-17 -57l-71 -166h-60l107 236h-90z" />
    <glyph glyph-name="uni0510" unicode="&#x510;" horiz-adv-x="376" 
d="M268 339h-33q-18 0 -28 -1q-52 -5 -79 -36.5t-27 -101.5q0 -75 29.5 -116t81.5 -41t94 30l19 -50q-47 -35 -122 -35q-76 0 -119 52.5t-43 156.5q0 142 96 172v4q-40 19 -61.5 66.5t-21.5 101.5q0 86 42 128.5t109 42.5q72 0 114 -33l-17 -51q-43 29 -92 29
q-96 0 -96 -120q0 -58 26 -95t63 -46q19 -4 54 -4h11v-53z" />
    <glyph glyph-name="uni0511" unicode="&#x511;" horiz-adv-x="285" 
d="M206 229h-37q-80 0 -80 -85q0 -44 21 -71.5t61 -27.5q48 0 76 20l17 -48q-36 -25 -98 -25q-67 0 -101.5 39t-34.5 109q0 96 68 124v4q-56 29 -56 116q0 59 29 90.5t80 31.5q71 0 110 -28l-18 -48q-36 23 -76 23q-66 0 -66 -84q0 -34 18.5 -60.5t41.5 -26.5h45v-53z" />
    <glyph glyph-name="uni0512" unicode="&#x512;" horiz-adv-x="406" 
d="M353 700v-728q0 -96 -21.5 -140.5t-73.5 -44.5q-11 0 -17 1v54q18 0 28.5 8t15.5 30t6.5 46.5t1.5 73.5v645h-128q-13 -432 -48 -555q-26 -94 -82 -94q-22 0 -38 9l9 55q8 -3 15 -3q23 0 41 55q41 120 46 588h245z" />
    <glyph glyph-name="uni0513" unicode="&#x513;" horiz-adv-x="327" 
d="M222 0v447h-89q-5 -239 -23.5 -345t-74.5 -106q-27 0 -40 8l8 51q10 -2 13 -2q21 0 33 30.5t21 130.5t11 286h198v-528q0 -93 -22.5 -135.5t-71.5 -42.5q-12 0 -18 1v52q35 0 45 34t10 119z" />
    <glyph glyph-name="uni051A" unicode="&#x51a;" horiz-adv-x="443" 
d="M458 -101v-55q-26 -11 -62 -11q-46 0 -123 32.5t-106 32.5q-17 0 -30 -6v55q19 6 38 6q33 0 106.5 -32.5t118.5 -32.5q25 0 58 11zM35 350q0 182 44.5 272t141.5 90q102 0 144.5 -91.5t42.5 -270.5q0 -183 -44.5 -272.5t-142.5 -89.5q-101 0 -143.5 92t-42.5 270zM95 350
q0 -85 11.5 -151.5t41 -111t73.5 -44.5q127 0 127 307q0 134 -30.5 220.5t-96.5 86.5q-126 0 -126 -307z" />
    <glyph glyph-name="uni051B" unicode="&#x51b;" horiz-adv-x="349" 
d="M301 477v-677h-57v236h-2q-28 -48 -85 -48q-127 0 -127 262q0 127 41 192.5t119 65.5q67 0 111 -31zM169 41q57 0 75 77v320q-21 17 -64 17t-67 -52.5t-24 -152.5q0 -93 19.5 -151t60.5 -58z" />
    <glyph glyph-name="uni051C" unicode="&#x51c;" horiz-adv-x="542" 
d="M69 700l76 -476l11 -116h1l10 118l90 474h37l90 -475l9 -117h1l12 118l72 474h59l-126 -712h-38l-89 471l-10 107h-3l-11 -108l-90 -470h-37l-129 712h65z" />
    <glyph glyph-name="uni051D" unicode="&#x51d;" horiz-adv-x="476" 
d="M221 500h42l72 -300l15 -99h2l12 101l57 298h52l-108 -512h-31l-84 337l-10 90h-2l-10 -91l-81 -336h-32l-111 512h58l65 -300l11 -99h1l15 101z" />
    <glyph glyph-name="uni0524" unicode="&#x524;" horiz-adv-x="454" 
d="M315 0v645h-203v-645h-59v700h321v-645h62v-186h-41l-10 131h-70z" />
    <glyph glyph-name="uni0525" unicode="&#x525;" horiz-adv-x="362" 
d="M242 0v447h-137v-447h-57v500h251v-447h50v-183h-38l-11 130h-58z" />
    <glyph glyph-name="uni0526" unicode="&#x526;" horiz-adv-x="424" 
d="M290 0v241q0 76 -17.5 110t-60.5 34q-62 0 -100 -47v-338h-59v700h59v-303q53 43 111 43q64 0 95 -41.5t31 -152.5v-191h61v-186h-41l-10 131h-69z" />
    <glyph glyph-name="uni0527" unicode="&#x527;" horiz-adv-x="374" 
d="M256 0v319q0 72 -14.5 106t-53.5 34q-28 0 -50.5 -22t-32.5 -56v-381h-57v700h57v-240h2q39 52 100 52q55 0 80.5 -39.5t25.5 -134.5v-285h49v-183h-38l-11 130h-57z" />
    <glyph glyph-name="uni1E30" unicode="&#x1e30;" horiz-adv-x="398" 
d="M304 0l-162 329h-30v-329h-59v700h59v-329l28 14l149 315h68l-149 -303l-28 -32l33 -40l165 -325h-74zM145 752l75 118h79v-19l-105 -99h-49z" />
    <glyph glyph-name="uni1E31" unicode="&#x1e31;" horiz-adv-x="312" 
d="M239 0l-104 229h-30v-229h-57v700h57v-429l27 14l96 215h65l-96 -203l-28 -32l33 -40l105 -225h-68zM158 572l38 148h62v-19l-66 -129h-34z" />
    <glyph glyph-name="uni1E3E" unicode="&#x1e3e;" horiz-adv-x="515" 
d="M403 0v473l9 102h-4l-27 -97l-113 -307h-21l-120 307l-26 97h-4l13 -102v-473h-57v700h53l134 -343l20 -83h1l19 84l128 342h54v-700h-59zM223 752l75 118h79v-19l-105 -99h-49z" />
    <glyph glyph-name="uni1E3F" unicode="&#x1e3f;" horiz-adv-x="527" 
d="M295 0h-57v309q0 86 -11.5 118t-47.5 32q-26 0 -46 -25t-28 -60v-374h-57v500h40l11 -46h2q34 58 100 58q32 0 50.5 -15t30.5 -53q14 31 42.5 49.5t59.5 18.5q55 0 78 -36t23 -128v-348h-57v334q0 67 -12 96t-46 29q-58 0 -75 -77v-382zM244 572l38 148h62v-19l-66 -129
h-34z" />
    <glyph glyph-name="uni1E54" unicode="&#x1e54;" horiz-adv-x="365" 
d="M53 0v692q48 16 112 16q77 0 126.5 -48t49.5 -164q0 -117 -50 -172.5t-127 -55.5q-40 0 -52 4v-272h-59zM167 653q-39 0 -55 -5v-320q11 -5 49 -5q120 0 120 174q0 156 -114 156zM138 752l75 118h79v-19l-105 -99h-49z" />
    <glyph glyph-name="uni1E55" unicode="&#x1e55;" horiz-adv-x="352" 
d="M48 -200v700h40l9 -48h3q30 60 94 60q65 0 96.5 -60t31.5 -192q0 -125 -40.5 -198.5t-109.5 -73.5q-39 0 -67 16v-204h-57zM182 459q-56 0 -77 -81v-311q26 -26 64 -26q43 0 68.5 59t25.5 160q0 199 -81 199zM149 572l38 148h62v-19l-66 -129h-34z" />
    <glyph glyph-name="Wgrave" unicode="&#x1e80;" horiz-adv-x="542" 
d="M69 700l76 -476l11 -116h1l10 118l90 474h37l90 -475l9 -117h1l12 118l72 474h59l-126 -712h-38l-89 471l-10 107h-3l-11 -108l-90 -470h-37l-129 712h65zM259 870l76 -118h-51l-103 99v19h78z" />
    <glyph glyph-name="wgrave" unicode="&#x1e81;" horiz-adv-x="476" 
d="M221 500h42l72 -300l15 -99h2l12 101l57 298h52l-108 -512h-31l-84 337l-10 90h-2l-10 -91l-81 -336h-32l-111 512h58l65 -300l11 -99h1l15 101zM222 720l42 -148h-32l-76 129v19h66z" />
    <glyph glyph-name="Wacute" unicode="&#x1e82;" horiz-adv-x="542" 
d="M69 700l76 -476l11 -116h1l10 118l90 474h37l90 -475l9 -117h1l12 118l72 474h59l-126 -712h-38l-89 471l-10 107h-3l-11 -108l-90 -470h-37l-129 712h65zM239 752l75 118h79v-19l-105 -99h-49z" />
    <glyph glyph-name="wacute" unicode="&#x1e83;" horiz-adv-x="476" 
d="M221 500h42l72 -300l15 -99h2l12 101l57 298h52l-108 -512h-31l-84 337l-10 90h-2l-10 -91l-81 -336h-32l-111 512h58l65 -300l11 -99h1l15 101zM217 572l38 148h62v-19l-66 -129h-34z" />
    <glyph glyph-name="Wdieresis" unicode="&#x1e84;" horiz-adv-x="542" 
d="M69 700l76 -476l11 -116h1l10 118l90 474h37l90 -475l9 -117h1l12 118l72 474h59l-126 -712h-38l-89 471l-10 107h-3l-11 -108l-90 -470h-37l-129 712h65zM175 793q0 20 10.5 32.5t27.5 12.5q16 0 26 -12.5t10 -32.5t-10 -32t-26 -12q-17 0 -27.5 12t-10.5 32zM302 793
q0 20 10 32.5t27 12.5t27 -12.5t10 -32.5t-10.5 -32t-26.5 -12t-26.5 12t-10.5 32z" />
    <glyph glyph-name="wdieresis" unicode="&#x1e85;" horiz-adv-x="476" 
d="M221 500h42l72 -300l15 -99h2l12 101l57 298h52l-108 -512h-31l-84 337l-10 90h-2l-10 -91l-81 -336h-32l-111 512h58l65 -300l11 -99h1l15 101zM143 654q0 20 9.5 31.5t24.5 11.5t24.5 -11.5t9.5 -31.5q0 -19 -9.5 -30.5t-24.5 -11.5t-24.5 11.5t-9.5 30.5zM270 654
q0 20 9.5 31.5t25.5 11.5q33 0 33 -43q0 -19 -9 -30.5t-24 -11.5q-16 0 -25.5 11.5t-9.5 30.5z" />
    <glyph glyph-name="uni1E9E" unicode="&#x1e9e;" horiz-adv-x="429" 
d="M160 378l119 251q-27 30 -88 30q-26 0 -43 -11t-25 -34.5t-11 -49t-3 -63.5v-501h-59v522q0 95 32.5 142.5t111.5 47.5q97 0 157 -65l-102 -217l-21 -29v-2l21 7q67 0 105 -52.5t38 -141.5q0 -107 -43 -165.5t-119 -58.5q-58 0 -82 18l10 54q22 -19 72 -19q48 0 75 45
t27 116q0 73 -32.5 114.5t-91.5 41.5h-48v20z" />
    <glyph glyph-name="Ygrave" unicode="&#x1ef2;" horiz-adv-x="367" 
d="M155 0v282l-150 418h68l103 -312l10 -58h2l11 60l100 310h63l-148 -417v-283h-59zM151 870l76 -118h-51l-103 99v19h78z" />
    <glyph glyph-name="ygrave" unicode="&#x1ef3;" horiz-adv-x="302" 
d="M68 500l79 -333l18 -100h3l13 101l63 332h56l-96 -449q-14 -68 -23.5 -105.5t-24 -77t-31.5 -56.5t-39 -17t-37 8l9 57q8 -2 13 -2q23 0 38.5 32t26.5 110l-131 500h63zM140 720l42 -148h-32l-76 129v19h66z" />
    <glyph glyph-name="uni2000" unicode="&#x2000;" horiz-adv-x="429" 
 />
    <glyph glyph-name="uni2001" unicode="&#x2001;" horiz-adv-x="533" 
 />
    <glyph glyph-name="uni2002" unicode="&#x2002;" horiz-adv-x="429" 
 />
    <glyph glyph-name="uni2003" unicode="&#x2003;" horiz-adv-x="533" 
 />
    <glyph glyph-name="uni2004" unicode="&#x2004;" horiz-adv-x="178" 
 />
    <glyph glyph-name="uni2005" unicode="&#x2005;" horiz-adv-x="134" 
 />
    <glyph glyph-name="uni2006" unicode="&#x2006;" horiz-adv-x="89" 
 />
    <glyph glyph-name="uni2007" unicode="&#x2007;" horiz-adv-x="331" 
 />
    <glyph glyph-name="uni2008" unicode="&#x2008;" horiz-adv-x="134" 
 />
    <glyph glyph-name="uni2009" unicode="&#x2009;" horiz-adv-x="107" 
 />
    <glyph glyph-name="uni200A" unicode="&#x200a;" horiz-adv-x="44" 
 />
    <glyph glyph-name="uni200B" unicode="&#x200b;" horiz-adv-x="0" 
 />
    <glyph glyph-name="uni2010" unicode="&#x2010;" horiz-adv-x="237" 
d="M39 257v53h159v-53h-159z" />
    <glyph glyph-name="uni2011" unicode="&#x2011;" horiz-adv-x="237" 
d="M39 257v53h159v-53h-159z" />
    <glyph glyph-name="figuredash" unicode="&#x2012;" horiz-adv-x="429" 
d="M76 342v53h277v-53h-277z" />
    <glyph glyph-name="endash" unicode="&#x2013;" horiz-adv-x="428" 
d="M75 262v53h277v-53h-277z" />
    <glyph glyph-name="emdash" unicode="&#x2014;" horiz-adv-x="537" 
d="M78 262v53h381v-53h-381z" />
    <glyph glyph-name="quoteleft" unicode="&#x2018;" horiz-adv-x="132" 
d="M107 623q0 -20 -11.5 -33t-27.5 -13q-43 0 -43 61q0 94 59 136l21 -21q-35 -31 -35 -82v-4h5q13 -1 22.5 -13t9.5 -31z" />
    <glyph glyph-name="quoteright" unicode="&#x2019;" horiz-adv-x="132" 
d="M25 662q0 20 11.5 33t27.5 13q43 0 43 -61q0 -94 -59 -136l-21 21q35 31 35 82v4h-5q-13 1 -22.5 13t-9.5 31z" />
    <glyph glyph-name="quotesinglbase" unicode="&#x201a;" horiz-adv-x="132" 
d="M25 46q0 20 11.5 33t27.5 13q43 0 43 -61q0 -94 -59 -136l-21 21q35 31 35 82v4h-5q-13 1 -22.5 13t-9.5 31z" />
    <glyph glyph-name="quotedblleft" unicode="&#x201c;" horiz-adv-x="237" 
d="M212 623q0 -20 -11.5 -33t-27.5 -13q-43 0 -43 61q0 94 59 136l21 -21q-35 -31 -35 -82v-4h5q13 -1 22.5 -13t9.5 -31zM107 623q0 -20 -11.5 -33t-27.5 -13q-43 0 -43 61q0 94 59 136l21 -21q-35 -31 -35 -82v-4h5q13 -1 22.5 -13t9.5 -31z" />
    <glyph glyph-name="quotedblright" unicode="&#x201d;" horiz-adv-x="237" 
d="M25 662q0 20 11.5 33t27.5 13q43 0 43 -61q0 -94 -59 -136l-21 21q35 31 35 82v4h-5q-13 1 -22.5 13t-9.5 31zM130 662q0 20 11.5 33t27.5 13q43 0 43 -61q0 -94 -59 -136l-21 21q35 31 35 82v4h-5q-13 1 -22.5 13t-9.5 31z" />
    <glyph glyph-name="quotedblbase" unicode="&#x201e;" horiz-adv-x="237" 
d="M130 46q0 20 11.5 33t27.5 13q43 0 43 -61q0 -94 -59 -136l-21 21q35 31 35 82v4h-5q-13 1 -22.5 13t-9.5 31zM25 46q0 20 11.5 33t27.5 13q43 0 43 -61q0 -94 -59 -136l-21 21q35 31 35 82v4h-5q-13 1 -22.5 13t-9.5 31z" />
    <glyph glyph-name="dagger" unicode="&#x2020;" horiz-adv-x="318" 
d="M25 442v53h84l29 -10l-8 45v170h57v-170l-8 -45l30 10h83v-53h-84l-29 10l8 -41v-411l-10 -200h-37q-10 198 -10 201v410l8 41l-29 -10h-84z" />
    <glyph glyph-name="daggerdbl" unicode="&#x2021;" horiz-adv-x="318" 
d="M130 269v142l8 41l-29 -10h-84v53h84l29 -10l-8 45v170h57v-170l-8 -45l30 10h83v-53h-84l-29 10l8 -41v-142l-8 -40l29 10h84v-53h-83l-30 10l8 -46v-150l-10 -200h-37q-9 192 -10 201v149l8 46l-29 -10h-84v53h84l29 -10z" />
    <glyph glyph-name="bullet" unicode="&#x2022;" horiz-adv-x="294" 
d="M55 311q0 62 25 99t67 37q43 0 67.5 -35.5t24.5 -100.5t-24.5 -100.5t-67.5 -35.5t-67.5 35.5t-24.5 100.5z" />
    <glyph glyph-name="ellipsis" unicode="&#x2026;" horiz-adv-x="563" 
d="M444 38q0 51 39 51q41 0 41 -51q0 -50 -41 -50q-39 0 -39 50zM250 38q0 51 39 51q41 0 41 -51q0 -50 -41 -50q-39 0 -39 50zM56 38q0 51 39 51q41 0 41 -51q0 -50 -41 -50q-39 0 -39 50z" />
    <glyph glyph-name="perthousand" unicode="&#x2030;" horiz-adv-x="772" 
d="M44 542q0 170 102 170q49 0 76 -38t27 -132q0 -170 -103 -170q-102 0 -102 170zM94 542q0 -123 52 -123q26 0 39 25.5t13 97.5q0 70 -13 96.5t-39 26.5t-39 -26t-13 -97zM288 170q0 170 102 170q49 0 76 -38t27 -132q0 -170 -103 -170q-102 0 -102 170zM338 170
q0 -123 52 -123q26 0 39 25.5t13 97.5q0 70 -13 96.5t-39 26.5t-39 -26t-13 -97zM530 170q0 170 102 170q49 0 76 -38t27 -132q0 -170 -103 -170q-102 0 -102 170zM580 170q0 -123 52 -123q26 0 39 25.5t13 97.5q0 70 -13 96.5t-39 26.5t-39 -26t-13 -97zM77 6l344 707
l39 -19l-344 -706z" />
    <glyph glyph-name="guilsinglleft" unicode="&#x2039;" horiz-adv-x="197" 
d="M133 38l-108 221l104 230l42 -24l-71 -164l-32 -41l32 -36l77 -162z" />
    <glyph glyph-name="guilsinglright" unicode="&#x203a;" horiz-adv-x="197" 
d="M64 489l108 -221l-104 -230l-42 24l70 164l31 41l-31 36l-76 161z" />
    </font>
</defs>
</svg>
